<svg width="13" height="13" viewBox="0 0 13 13" fill="none" xmlns="http://www.w3.org/2000/svg">
<path d="M10.8004 3.38871L1.46769 12.712C1.32919 12.8503 1.15519 12.9179 0.945692 12.9147C0.736026 12.9115 0.561942 12.8407 0.423442 12.7022C0.285109 12.5637 0.215942 12.3913 0.215942 12.185C0.215942 11.9786 0.285109 11.8062 0.423442 11.6677L9.74669 2.33496H1.55044C1.33794 2.33496 1.15978 2.26304 1.01594 2.11921C0.872276 1.97538 0.800443 1.79721 0.800443 1.58471C0.800443 1.37204 0.872276 1.19396 1.01594 1.05046C1.15978 0.906794 1.33794 0.834961 1.55044 0.834961H11.3964C11.6526 0.834961 11.8673 0.921545 12.0404 1.09471C12.2138 1.26804 12.3004 1.48271 12.3004 1.73871V11.585C12.3004 11.7975 12.2285 11.9755 12.0847 12.1192C11.9409 12.263 11.7627 12.335 11.5502 12.335C11.3375 12.335 11.1594 12.263 11.0157 12.1192C10.8722 11.9755 10.8004 11.7975 10.8004 11.585V3.38871Z" fill="#5E3AA1"/>
</svg>
