<svg width="21" height="20" viewBox="0 0 21 20" fill="none" xmlns="http://www.w3.org/2000/svg">
<mask id="mask0_766_1947" style="mask-type:alpha" maskUnits="userSpaceOnUse" x="0" y="0" width="21" height="20">
<rect x="0.5" y="0.400391" width="19.6" height="19.6" fill="#D9D9D9"/>
</mask>
<g mask="url(#mask0_766_1947)">
<path d="M10.2842 15.9937C10.1251 15.9937 9.96784 15.9649 9.8124 15.9073C9.65683 15.8497 9.5199 15.7618 9.40162 15.6435L8.46409 14.7968C7.01083 13.4766 5.72846 12.1927 4.61697 10.9452C3.50562 9.69777 2.94995 8.40132 2.94995 7.05586C2.94995 6.01719 3.30282 5.14506 4.00856 4.43946C4.71416 3.73373 5.58629 3.38086 6.62495 3.38086C7.22071 3.38086 7.84104 3.5314 8.48593 3.83248C9.13096 4.13342 9.73564 4.70114 10.3 5.53563C10.8643 4.70114 11.4689 4.13342 12.114 3.83248C12.7589 3.5314 13.3792 3.38086 13.975 3.38086C15.0136 3.38086 15.8858 3.73373 16.5914 4.43946C17.2971 5.14506 17.65 6.01719 17.65 7.05586C17.65 8.43262 17.0715 9.75603 15.9145 11.0261C14.7576 12.2961 13.4912 13.5546 12.1154 14.8015L11.1826 15.6435C11.0643 15.7618 10.9248 15.8497 10.764 15.9073C10.6033 15.9649 10.4433 15.9937 10.2842 15.9937ZM9.90101 6.38374C9.4121 5.59525 8.90379 5.03379 8.37609 4.69937C7.84839 4.36481 7.26467 4.19753 6.62495 4.19753C5.80829 4.19753 5.12773 4.46975 4.58328 5.01419C4.03884 5.55864 3.76662 6.23919 3.76662 7.05586C3.76662 7.65897 3.9373 8.27746 4.27867 8.91132C4.6199 9.54533 5.07819 10.1948 5.65353 10.8597C6.22887 11.5245 6.8901 12.2045 7.63721 12.8997C8.38419 13.595 9.16186 14.3106 9.97022 15.0465C10.0644 15.1304 10.1743 15.1723 10.3 15.1723C10.4256 15.1723 10.5355 15.1304 10.6297 15.0465C11.438 14.3106 12.2157 13.595 12.9627 12.8997C13.7098 12.2045 14.371 11.5245 14.9464 10.8597C15.5217 10.1948 15.98 9.54533 16.3212 8.91132C16.6626 8.27746 16.8333 7.65897 16.8333 7.05586C16.8333 6.23919 16.5611 5.55864 16.0166 5.01419C15.4722 4.46975 14.7916 4.19753 13.975 4.19753C13.3352 4.19753 12.7515 4.36481 12.2238 4.69937C11.6961 5.03379 11.1878 5.59525 10.6989 6.38374C10.6559 6.45697 10.5978 6.51189 10.5245 6.5485C10.4513 6.58525 10.3764 6.60363 10.3 6.60363C10.2235 6.60363 10.1486 6.58525 10.0754 6.5485C10.0021 6.51189 9.94402 6.45697 9.90101 6.38374Z" fill="white"/>
</g>
</svg>
