<svg width="40" height="41" viewBox="0 0 40 41" fill="none" xmlns="http://www.w3.org/2000/svg">
<path d="M1.53846 40.5C0.688791 40.5 8.21377e-09 39.8112 1.8346e-08 38.9615L2.38498e-07 20.5C3.70216e-07 9.45431 8.95431 0.5 20 0.5C31.0457 0.5 40 9.45431 40 20.5C40 31.5457 31.0457 40.5 20 40.5L1.53846 40.5Z" fill="#9747FF"/>
<path d="M20.7071 12.7929C20.3166 12.4024 19.6834 12.4024 19.2929 12.7929L12.9289 19.1569C12.5384 19.5474 12.5384 20.1805 12.9289 20.5711C13.3195 20.9616 13.9526 20.9616 14.3431 20.5711L20 14.9142L25.6569 20.5711C26.0474 20.9616 26.6805 20.9616 27.0711 20.5711C27.4616 20.1805 27.4616 19.5474 27.0711 19.1569L20.7071 12.7929ZM21 25.5L21 13.5L19 13.5L19 25.5L21 25.5Z" fill="white"/>
</svg>
