<svg width="36" height="37" viewBox="0 0 36 37" fill="none" xmlns="http://www.w3.org/2000/svg">
<circle cx="18" cy="18.5" r="18" fill="#885AFF"/>
<path d="M17.9804 26.7727C17.6795 26.7727 17.398 26.7199 17.1357 26.6142C16.8733 26.5085 16.6342 26.3565 16.4184 26.1582L14.8643 24.7466C13.1335 23.1689 11.5567 21.5814 10.1339 19.9842C8.71131 18.387 8 16.6566 8 14.793C8 13.2948 8.51743 12.0382 9.5523 11.023C10.587 10.0077 11.8553 9.5 13.3571 9.5C14.2036 9.5 15.0297 9.70035 15.8355 10.1011C16.6414 10.5016 17.3629 11.1116 18 11.9312C18.6371 11.1116 19.3586 10.5016 20.1645 10.1011C20.9703 9.70035 21.7964 9.5 22.6429 9.5C24.1447 9.5 25.413 10.0077 26.4477 11.023C27.4826 12.0382 28 13.2948 28 14.793C28 16.6956 27.256 18.4553 25.7679 20.0723C24.2798 21.6892 22.7442 23.2323 21.1612 24.7016L19.562 26.1582C19.3462 26.3565 19.1038 26.5085 18.8349 26.6142C18.5661 26.7199 18.2812 26.7727 17.9804 26.7727Z" fill="white"/>
</svg>
