<svg width="32" height="32" viewBox="0 0 32 32" fill="none" xmlns="http://www.w3.org/2000/svg">
<path d="M1.23077 32C0.551035 32 6.57102e-09 31.449 1.46768e-08 30.7692L1.90798e-07 16C2.96173e-07 7.16344 7.16344 8.54232e-08 16 1.90798e-07C24.8366 2.96173e-07 32 7.16344 32 16C32 24.8366 24.8366 32 16 32L1.23077 32Z" fill="#5E3AA1"/>
<path d="M16.7071 9.69289C16.3166 9.30237 15.6834 9.30237 15.2929 9.69289L8.92893 16.0569C8.53841 16.4474 8.53841 17.0805 8.92893 17.4711C9.31946 17.8616 9.95262 17.8616 10.3431 17.4711L16 11.8142L21.6569 17.4711C22.0474 17.8616 22.6805 17.8616 23.0711 17.4711C23.4616 17.0805 23.4616 16.4474 23.0711 16.0569L16.7071 9.69289ZM17 20L17 10.4L15 10.4L15 20L17 20Z" fill="white"/>
</svg>
