<svg width="41" height="41" viewBox="0 0 41 41" fill="none" xmlns="http://www.w3.org/2000/svg">
<path d="M0.28125 40.585L0.28125 20.585C0.28125 9.53927 9.23556 0.584961 20.2813 0.584961C31.3269 0.584961 40.2813 9.53927 40.2813 20.585C40.2813 31.6307 31.3269 40.585 20.2812 40.585L0.28125 40.585Z" fill="#885AFF"/>
<mask id="mask0_819_274" style="mask-type:alpha" maskUnits="userSpaceOnUse" x="8" y="8" width="25" height="25">
<rect x="32.1738" y="32.2705" width="24" height="24" transform="rotate(-180 32.1738 32.2705)" fill="#D9D9D9"/>
</mask>
<g mask="url(#mask0_819_274)">
<path d="M20.9238 19.4165L22.2566 20.7493C22.3951 20.8878 22.5675 20.957 22.7738 20.957C22.9802 20.957 23.1526 20.8878 23.2911 20.7493C23.4296 20.6109 23.4988 20.4364 23.4988 20.2258C23.4988 20.0149 23.4296 19.8414 23.2911 19.7053L20.7968 17.211C20.6162 17.0302 20.4053 16.9398 20.1643 16.9398C19.9232 16.9398 19.7122 17.0302 19.5316 17.211L17.0373 19.7053C16.8988 19.8414 16.8296 20.0149 16.8296 20.2258C16.8296 20.4364 16.8988 20.6109 17.0373 20.7493C17.1758 20.8878 17.3504 20.957 17.5611 20.957C17.7717 20.957 17.9452 20.8878 18.0816 20.7493L19.4143 19.4165L19.4143 23.2225C19.4143 23.435 19.4862 23.6131 19.6298 23.7568C19.7737 23.9006 19.9519 23.9725 20.1646 23.9725C20.3771 23.9725 20.5567 23.9006 20.7036 23.7568C20.8504 23.6131 20.9238 23.435 20.9238 23.2225L20.9238 19.4165ZM20.1721 10.7705C21.4861 10.7705 22.7212 11.0198 23.8773 11.5185C25.0335 12.0172 26.0392 12.6939 26.8943 13.5488C27.7495 14.4036 28.4266 15.4088 28.9256 16.5645C29.4244 17.7202 29.6738 18.9549 29.6738 20.2688C29.6738 21.5828 29.4245 22.8178 28.9258 23.974C28.4272 25.1302 27.7504 26.1358 26.8956 26.991C26.0407 27.8462 25.0355 28.5233 23.8798 29.0223C22.7242 29.5211 21.4894 29.7705 20.1756 29.7705C18.8616 29.7705 17.6265 29.5212 16.4703 29.0225C15.3142 28.5238 14.3085 27.8471 13.4533 26.9923C12.5982 26.1374 11.9211 25.1322 11.4221 23.9765C10.9232 22.8208 10.6738 21.5861 10.6738 20.2723C10.6738 18.9583 10.9232 17.7232 11.4218 16.567C11.9205 15.4108 12.5972 14.4052 13.4521 13.55C14.3069 12.6948 15.3122 12.0178 16.4678 11.5188C17.6235 11.0199 18.8582 10.7705 20.1721 10.7705ZM20.1738 12.2705C17.9405 12.2705 16.0488 13.0455 14.4988 14.5955C12.9488 16.1455 12.1738 18.0372 12.1738 20.2705C12.1738 22.5038 12.9488 24.3955 14.4988 25.9455C16.0488 27.4955 17.9405 28.2705 20.1738 28.2705C22.4072 28.2705 24.2988 27.4955 25.8488 25.9455C27.3988 24.3955 28.1738 22.5038 28.1738 20.2705C28.1738 18.0372 27.3988 16.1455 25.8488 14.5955C24.2988 13.0455 22.4072 12.2705 20.1738 12.2705Z" fill="white"/>
</g>
</svg>
