<svg width="21" height="20" viewBox="0 0 21 20" fill="none" xmlns="http://www.w3.org/2000/svg">
<mask id="mask0_766_1373" style="mask-type:alpha" maskUnits="userSpaceOnUse" x="0" y="0" width="21" height="20">
<rect x="0.5" y="0.400391" width="19.6" height="19.6" fill="#D9D9D9"/>
</mask>
<g mask="url(#mask0_766_1373)">
<path d="M10.2842 15.9937C10.1251 15.9937 9.96784 15.9649 9.8124 15.9073C9.65683 15.8497 9.5199 15.7618 9.40162 15.6435L8.46409 14.7968C7.01083 13.4766 5.72846 12.1927 4.61697 10.9452C3.50562 9.69777 2.94995 8.40132 2.94995 7.05586C2.94995 6.01719 3.30282 5.14506 4.00856 4.43946C4.71416 3.73373 5.58629 3.38086 6.62495 3.38086C7.22071 3.38086 7.84104 3.5314 8.48593 3.83248C9.13096 4.13342 9.73564 4.70114 10.3 5.53563C10.8643 4.70114 11.4689 4.13342 12.114 3.83248C12.7589 3.5314 13.3792 3.38086 13.975 3.38086C15.0136 3.38086 15.8858 3.73373 16.5914 4.43946C17.2971 5.14506 17.65 6.01719 17.65 7.05586C17.65 8.43262 17.0715 9.75603 15.9145 11.0261C14.7576 12.2961 13.4912 13.5546 12.1154 14.8015L11.1826 15.6435C11.0643 15.7618 10.9248 15.8497 10.764 15.9073C10.6033 15.9649 10.4433 15.9937 10.2842 15.9937Z" fill="#8644FF"/>
</g>
</svg>
