<svg width="36" height="37" viewBox="0 0 36 37" fill="none" xmlns="http://www.w3.org/2000/svg">
<circle cx="18" cy="18.5" r="17.5" fill="#EEEEEE" stroke="#885AFF"/>
<path d="M17.3226 26.1504L17.3225 26.1504C17.118 26.068 16.9298 25.9491 16.7567 25.79L16.7545 25.7881L15.2011 24.3771C15.201 24.377 15.201 24.377 15.2009 24.3769C13.4818 22.8098 11.9175 21.2347 10.5073 19.6516C9.15339 18.1315 8.5 16.5159 8.5 14.793C8.5 13.4241 8.96696 12.2976 9.90244 11.3799L9.9025 11.3799C10.84 10.4599 11.981 10 13.3571 10C14.1215 10 14.8717 10.1802 15.6128 10.5488L15.6129 10.5488C16.342 10.9112 17.0072 11.4687 17.6052 12.2381L18 12.7459L18.3948 12.2381C18.9928 11.4687 19.658 10.9112 20.3871 10.5488L20.3872 10.5488C21.1283 10.1802 21.8785 10 22.6429 10C24.019 10 25.16 10.4599 26.0975 11.3799L26.0976 11.3799C27.033 12.2976 27.5 13.4241 27.5 14.793C27.5 16.5508 26.8172 18.1937 25.4 19.7337C23.9211 21.3405 22.3954 22.8737 20.8228 24.3335C20.8223 24.334 20.8217 24.3346 20.8211 24.3351L19.2253 25.7885L19.2237 25.79C19.0526 25.9473 18.8627 26.066 18.652 26.1489C18.4438 26.2307 18.2212 26.2727 17.9804 26.2727C17.7394 26.2727 17.5217 26.2307 17.3226 26.1504Z" fill="#EEEEEE" stroke="#885AFF"/>
</svg>
