<svg width="36" height="36" viewBox="0 0 36 36" fill="none" xmlns="http://www.w3.org/2000/svg">
<circle cx="18" cy="18" r="18" fill="#E6E6EA"/>
<path d="M20.1645 9.60106C19.4933 9.93464 18.8807 10.4135 18.3266 11.0378C18.3494 11.0664 18.3721 11.0953 18.3948 11.1244L18 11.4312L20.1645 9.60106ZM20.1645 9.60106C20.9703 9.20035 21.7964 9 22.6429 9C24.1447 9 25.413 9.50767 26.4477 10.523C27.4826 11.5382 28 12.7948 28 14.293C28 16.1956 27.256 17.9553 25.7679 19.5723C24.2798 21.1892 22.7442 22.7323 21.1612 24.2016L19.562 25.6582M20.1645 9.60106L19.562 25.6582M19.562 25.6582C19.3462 25.8565 19.1038 26.0085 18.8349 26.1142C18.5661 26.2199 18.2812 26.2727 17.9804 26.2727C17.6795 26.2727 17.398 26.2199 17.1357 26.1142L19.562 25.6582ZM17.3226 25.6504L17.3225 25.6504C17.118 25.568 16.9298 25.4491 16.7567 25.29L16.7545 25.2881L15.2011 23.8771C15.201 23.877 15.201 23.877 15.2009 23.8769C13.4818 22.3098 11.9175 20.7347 10.5073 19.1516C9.15339 17.6315 8.5 16.0159 8.5 14.293C8.5 12.9241 8.96696 11.7976 9.90244 10.8799L9.9025 10.8799C10.84 9.95989 11.981 9.5 13.3571 9.5C14.1215 9.5 14.8717 9.68022 15.6128 10.0488L15.6129 10.0488C16.342 10.4112 17.0072 10.9687 17.6052 11.7381L18 12.2459L18.3948 11.7381C18.9928 10.9687 19.658 10.4112 20.3871 10.0488L20.3872 10.0488C21.1283 9.68022 21.8785 9.5 22.6429 9.5C24.019 9.5 25.16 9.95989 26.0975 10.8799L26.0976 10.8799C27.033 11.7976 27.5 12.9241 27.5 14.293C27.5 16.0508 26.8172 17.6937 25.4 19.2337C23.9211 20.8405 22.3954 22.3737 20.8228 23.8335C20.8223 23.834 20.8217 23.8346 20.8211 23.8351L19.2253 25.2885L19.2237 25.29C19.0526 25.4473 18.8627 25.566 18.652 25.6489C18.4438 25.7307 18.2212 25.7727 17.9804 25.7727C17.7394 25.7727 17.5217 25.7307 17.3226 25.6504Z" fill="#E6E6EA" stroke="white"/>
</svg>
