<svg width="41" height="40" viewBox="0 0 41 40" fill="none" xmlns="http://www.w3.org/2000/svg">
<rect x="0.605682" width="40" height="40" rx="4" fill="#EEEEEE"/>
<mask id="mask0_862_4758" style="mask-type:alpha" maskUnits="userSpaceOnUse" x="0" y="0" width="41" height="40">
<rect x="0.605682" width="40" height="40" fill="#D9D9D9"/>
</mask>
<g mask="url(#mask0_862_4758)">
<mask id="mask1_862_4758" style="mask-type:alpha" maskUnits="userSpaceOnUse" x="0" y="-1" width="41" height="41">
<rect x="0.654755" y="-0.046875" width="40" height="40" fill="#D9D9D9"/>
</mask>
<g mask="url(#mask1_862_4758)">
<path d="M20.6548 33.3502C19.0659 33.3502 17.7196 32.7984 16.616 31.6948C15.5121 30.5909 14.9602 29.2445 14.9602 27.6556H8.58226C8.02032 27.6556 7.53074 27.4471 7.11351 27.0302C6.69657 26.6133 6.4881 26.1238 6.4881 25.5619C6.4881 21.7177 7.73879 18.4092 10.2402 15.6364C12.7416 12.8637 15.8641 11.3523 19.6077 11.1023V7.15353C19.6077 6.85242 19.707 6.6027 19.9056 6.40436C20.1039 6.20575 20.3539 6.10645 20.6556 6.10645C20.957 6.10645 21.2067 6.20575 21.4048 6.40436C21.6028 6.6027 21.7018 6.85242 21.7018 7.15353V11.1023C25.4455 11.3523 28.568 12.8637 31.0693 15.6364C33.5707 18.4092 34.8214 21.7177 34.8214 25.5619C34.8214 26.1238 34.613 26.6133 34.196 27.0302C33.7788 27.4471 33.2892 27.6556 32.7273 27.6556H26.3493C26.3493 29.2445 25.7974 30.5909 24.6935 31.6948C23.5899 32.7984 22.2437 33.3502 20.6548 33.3502ZM8.58226 25.5619H32.7273C32.7273 22.1216 31.5523 19.1977 29.2023 16.7902C26.852 14.383 24.0034 13.1794 20.6564 13.1794C17.3092 13.1794 14.46 14.383 12.1089 16.7902C9.75782 19.1977 8.58226 22.1216 8.58226 25.5619ZM20.6589 31.256C21.6584 31.256 22.5075 30.9056 23.2064 30.2048C23.9056 29.5037 24.2552 28.6539 24.2552 27.6556H17.0543C17.0543 28.6578 17.4052 29.5084 18.1068 30.2073C18.8085 30.9064 19.6592 31.256 20.6589 31.256Z" fill="#1C1B1F"/>
</g>
</g>
</svg>
