<svg width="40" height="41" viewBox="0 0 40 41" fill="none" xmlns="http://www.w3.org/2000/svg">
<rect y="0.848633" width="40" height="40" rx="4" fill="#EEEEEE"/>
<mask id="mask0_862_4750" style="mask-type:alpha" maskUnits="userSpaceOnUse" x="0" y="0" width="40" height="41">
<rect y="0.848633" width="40" height="40" fill="#D9D9D9"/>
</mask>
<g mask="url(#mask0_862_4750)">
<mask id="mask1_862_4750" style="mask-type:alpha" maskUnits="userSpaceOnUse" x="-1" y="0" width="41" height="41">
<rect x="-0.252441" y="0.835938" width="40" height="40" fill="#D9D9D9"/>
</mask>
<g mask="url(#mask1_862_4750)">
<path d="M11.4142 31.1139H16.4142V24.1693H18.0809V19.7247C18.0809 18.808 17.7545 18.0233 17.1017 17.3705C16.4489 16.7177 15.6642 16.3914 14.7476 16.3914H13.0809C12.1642 16.3914 11.3795 16.7177 10.7267 17.3705C10.0739 18.0233 9.74756 18.808 9.74756 19.7247V24.1693H11.4142V31.1139ZM13.9142 14.8914C14.5345 14.8914 15.0646 14.6715 15.5046 14.2318C15.9444 13.792 16.1642 13.2619 16.1642 12.6414C16.1642 12.0211 15.9444 11.4911 15.5046 11.0514C15.0646 10.6114 14.5345 10.3914 13.9142 10.3914C13.2939 10.3914 12.7638 10.6114 12.3238 11.0514C11.8841 11.4911 11.6642 12.0211 11.6642 12.6414C11.6642 13.2619 11.8841 13.792 12.3238 14.2318C12.7638 14.6715 13.2939 14.8914 13.9142 14.8914ZM21.2755 18.8914H29.6088L25.4421 12.2247L21.2755 18.8914ZM25.4421 29.4472L29.6088 22.7805H21.2755L25.4421 29.4472ZM7.52548 35.8359C6.77548 35.8359 6.12492 35.5605 5.57381 35.0097C5.02298 34.4586 4.74756 33.808 4.74756 33.058V8.61385C4.74756 7.88219 5.02298 7.23635 5.57381 6.67635C6.12492 6.11608 6.77548 5.83594 7.52548 5.83594H31.9696C32.7013 5.83594 33.3471 6.11608 33.9071 6.67635C34.4674 7.23635 34.7476 7.88219 34.7476 8.61385V33.058C34.7476 33.808 34.4674 34.4586 33.9071 35.0097C33.3471 35.5605 32.7013 35.8359 31.9696 35.8359H7.52548ZM7.52548 33.058H31.9696V8.61385H7.52548V33.058Z" fill="#1C1B1F"/>
</g>
</g>
</svg>
