<svg width="40" height="40" viewBox="0 0 40 40" fill="none" xmlns="http://www.w3.org/2000/svg">
<rect width="40" height="40" rx="4" fill="#EEEEEE"/>
<mask id="mask0_862_4778" style="mask-type:alpha" maskUnits="userSpaceOnUse" x="0" y="0" width="40" height="40">
<rect width="40" height="40" fill="#D9D9D9"/>
</mask>
<g mask="url(#mask0_862_4778)">
<mask id="mask1_862_4778" style="mask-type:alpha" maskUnits="userSpaceOnUse" x="0" y="0" width="40" height="40">
<rect width="40" height="40" fill="#D9D9D9"/>
</mask>
<g mask="url(#mask1_862_4778)">
<path d="M8.44043 34.1663C7.72626 34.1663 7.1132 33.9104 6.60126 33.3984C6.08932 32.8865 5.83334 32.2734 5.83334 31.5593V8.44009C5.83334 7.72592 6.08932 7.11287 6.60126 6.60092C7.1132 6.08898 7.72626 5.83301 8.44043 5.83301H31.5596C32.2738 5.83301 32.8868 6.08898 33.3988 6.60092C33.9107 7.11287 34.1667 7.72592 34.1667 8.44009V31.5593C34.1667 32.2734 33.9107 32.8865 33.3988 33.3984C32.8868 33.9104 32.2738 34.1663 31.5596 34.1663H8.44043ZM21.0471 21.0468V32.0722H31.5596C31.7093 32.0722 31.8322 32.0241 31.9283 31.928C32.0245 31.8319 32.0725 31.709 32.0725 31.5593V21.0468H21.0471ZM21.0471 18.9526H32.0725V8.44009C32.0725 8.29037 32.0245 8.16745 31.9283 8.07134C31.8322 7.97523 31.7093 7.92718 31.5596 7.92718H21.0471V18.9526ZM18.9529 18.9526V7.92718H8.44043C8.29071 7.92718 8.16779 7.97523 8.07168 8.07134C7.97557 8.16745 7.92751 8.29037 7.92751 8.44009V18.9526H18.9529ZM18.9529 21.0468H7.92751V31.5593C7.92751 31.709 7.97557 31.8319 8.07168 31.928C8.16779 32.0241 8.29071 32.0722 8.44043 32.0722H18.9529V21.0468Z" fill="#1C1B1F"/>
</g>
</g>
</svg>
