<svg width="40" height="41" viewBox="0 0 40 41" fill="none" xmlns="http://www.w3.org/2000/svg">
<rect y="0.848633" width="40" height="40" rx="4" fill="#EEEEEE"/>
<mask id="mask0_862_4772" style="mask-type:alpha" maskUnits="userSpaceOnUse" x="0" y="0" width="40" height="41">
<rect y="0.848633" width="40" height="40" fill="#D9D9D9"/>
</mask>
<g mask="url(#mask0_862_4772)">
<path d="M17.0278 36.5429V27.0704L19.3887 20.1816C19.472 19.9503 19.6133 19.7534 19.8124 19.5912C20.0116 19.4293 20.2778 19.3483 20.6112 19.3483H33.0833C33.4166 19.3483 33.6805 19.4247 33.8749 19.5775C34.0694 19.7303 34.2128 19.9316 34.3053 20.1816L36.6666 27.0704V36.5429C36.6666 36.8171 36.5731 37.0476 36.3862 37.2346C36.1992 37.4215 35.9687 37.515 35.6945 37.515H34.6874C34.4235 37.515 34.1967 37.4215 34.007 37.2346C33.817 37.0476 33.722 36.8171 33.722 36.5429V34.8204H19.972V36.5429C19.972 36.8171 19.8785 37.0476 19.6916 37.2346C19.5046 37.4215 19.2741 37.515 18.9999 37.515H17.9928C17.7289 37.515 17.5021 37.4215 17.3124 37.2346C17.1227 37.0476 17.0278 36.8171 17.0278 36.5429ZM19.6112 25.5983H34.0833L32.6387 21.2929H21.0553L19.6112 25.5983ZM21.6666 31.8762C22.131 31.8762 22.5203 31.7191 22.8345 31.405C23.1484 31.0908 23.3053 30.7015 23.3053 30.2371C23.3053 29.7729 23.1484 29.3837 22.8345 29.0696C22.5203 28.7554 22.131 28.5983 21.6666 28.5983C21.2021 28.5983 20.813 28.7554 20.4991 29.0696C20.1849 29.3837 20.0278 29.7729 20.0278 30.2371C20.0278 30.7015 20.1849 31.0908 20.4991 31.405C20.813 31.7191 21.2021 31.8762 21.6666 31.8762ZM32.0278 31.8762C32.492 31.8762 32.8812 31.7191 33.1953 31.405C33.5095 31.0908 33.6666 30.7015 33.6666 30.2371C33.6666 29.7729 33.5095 29.3837 33.1953 29.0696C32.8812 28.7554 32.492 28.5983 32.0278 28.5983C31.5634 28.5983 31.1741 28.7554 30.8599 29.0696C30.5458 29.3837 30.3887 29.7729 30.3887 30.2371C30.3887 30.7015 30.5458 31.0908 30.8599 31.405C31.1741 31.7191 31.5634 31.8762 32.0278 31.8762ZM9.99992 24.515V21.3762H13.1387V24.515H9.99992ZM18.5278 13.9871V10.8483H21.6666V13.9871H18.5278ZM9.99992 31.015V27.8762H13.1387V31.015H9.99992ZM9.99992 37.515V34.3762H13.1387V37.515H9.99992ZM3.33325 37.515V14.7096H11.8612V4.18164H28.3333V15.2929H25.5553V6.95956H14.6387V17.4871H6.11117V37.515H3.33325ZM18.972 32.8762H34.722V27.5429H18.972V32.8762Z" fill="#121212"/>
</g>
</svg>
