<svg width="41" height="41" viewBox="0 0 41 41" fill="none" xmlns="http://www.w3.org/2000/svg">
<rect x="0.15625" y="0.302734" width="40" height="40" rx="4" fill="#EEEEEE"/>
<mask id="mask0_862_4695" style="mask-type:alpha" maskUnits="userSpaceOnUse" x="0" y="0" width="41" height="41">
<rect x="0.15625" y="0.302734" width="40" height="40" fill="#D9D9D9"/>
</mask>
<g mask="url(#mask0_862_4695)">
<path d="M34.748 18.5881V32.2797C34.748 32.9958 34.4927 33.6093 33.9822 34.1201C33.4713 34.631 32.8577 34.8864 32.1413 34.8864H8.1605C7.44411 34.8864 6.83064 34.631 6.32008 34.1201C5.80925 33.6093 5.55383 32.9958 5.55383 32.2797V18.5422C4.81883 17.9497 4.30828 17.2007 4.02217 16.2951C3.73633 15.3896 3.7455 14.4535 4.04967 13.4868L5.75425 7.99931C5.97536 7.27876 6.34744 6.71876 6.8705 6.31931C7.39356 5.91959 8.01869 5.71973 8.74592 5.71973H31.4447C32.1922 5.71973 32.8359 5.9175 33.3759 6.31306C33.9162 6.70889 34.2968 7.25973 34.5176 7.96556L36.2801 13.4868C36.5842 14.4535 36.5887 15.3921 36.2934 16.3026C35.9984 17.2132 35.4833 17.975 34.748 18.5881ZM23.8659 17.5893C24.8059 17.5893 25.5447 17.3064 26.0822 16.7406C26.6194 16.1747 26.8406 15.546 26.7459 14.8543L25.6713 7.81389H21.2118V14.741C21.2118 15.5132 21.4674 16.181 21.9788 16.7443C22.4899 17.3076 23.119 17.5893 23.8659 17.5893ZM16.2247 17.5893C17.053 17.5893 17.7423 17.3111 18.2926 16.7547C18.8429 16.1983 19.118 15.5271 19.118 14.741V7.81389H14.6476L13.573 14.9185C13.4833 15.5388 13.6927 16.139 14.2013 16.7193C14.7097 17.2993 15.3841 17.5893 16.2247 17.5893ZM8.72883 17.5893C9.41467 17.5893 10.0115 17.3506 10.5193 16.8731C11.0273 16.3956 11.3301 15.8046 11.4276 15.1001L12.4876 7.81389H8.50883C8.32717 7.81389 8.18119 7.85389 8.07092 7.93389C7.96036 8.01417 7.88203 8.13431 7.83592 8.29431L6.10925 13.9656C5.83647 14.8208 5.9505 15.6386 6.45133 16.4189C6.95189 17.1992 7.71106 17.5893 8.72883 17.5893ZM31.573 17.5893C32.5161 17.5893 33.2636 17.2146 33.8155 16.4651C34.3674 15.7154 34.4988 14.8822 34.2097 13.9656L32.4447 8.26264C32.3986 8.10237 32.3202 7.9875 32.2097 7.91806C32.0994 7.84862 31.9534 7.81389 31.7718 7.81389H27.8313L28.8913 15.1001C28.9961 15.8046 29.2972 16.3956 29.7947 16.8731C30.2922 17.3506 30.8849 17.5893 31.573 17.5893ZM8.1605 32.7922H32.1413C32.2838 32.7922 32.4049 32.7442 32.5047 32.6481C32.6044 32.552 32.6543 32.4292 32.6543 32.2797V19.5531C32.5481 19.6078 32.3947 19.6432 32.1938 19.6593C31.993 19.6754 31.7861 19.6835 31.573 19.6835C30.853 19.6835 30.1951 19.5374 29.5993 19.2451C29.0034 18.9532 28.4234 18.4932 27.8593 17.8651C27.4143 18.4163 26.8666 18.8571 26.2163 19.1876C25.5661 19.5182 24.8113 19.6835 23.9522 19.6835C23.203 19.6835 22.5286 19.5451 21.9288 19.2685C21.3291 18.9915 20.7412 18.565 20.1651 17.9889C19.6729 18.5422 19.098 18.9631 18.4405 19.2514C17.783 19.5394 17.0993 19.6835 16.3893 19.6835C15.6056 19.6835 14.8823 19.5415 14.2193 19.2576C13.5562 18.9738 12.984 18.5096 12.5026 17.8651C11.7604 18.566 11.0761 19.0442 10.4497 19.2997C9.82328 19.5556 9.24967 19.6835 8.72883 19.6835C8.52439 19.6835 8.32703 19.6754 8.13675 19.6593C7.94675 19.6432 7.78369 19.6078 7.64758 19.5531V32.2797C7.64758 32.4292 7.69744 32.552 7.79717 32.6481C7.89689 32.7442 8.018 32.7922 8.1605 32.7922ZM14.2055 30.3031H17.5388C17.7397 30.3031 17.9099 30.2332 18.0497 30.0935C18.1891 29.9538 18.2588 29.7871 18.2588 29.5935C18.2588 29.4001 18.1879 29.2318 18.0459 29.0885C17.9043 28.9451 17.7352 28.8735 17.5388 28.8735H14.9255V26.8906H17.5368C17.739 26.8906 17.9099 26.8189 18.0497 26.6756C18.1891 26.5322 18.2588 26.3675 18.2588 26.1814V22.8481C18.2588 22.6472 18.1879 22.4769 18.0459 22.3372C17.9043 22.1978 17.7352 22.1281 17.5388 22.1281H14.2055C14.0047 22.1281 13.8344 22.1989 13.6947 22.3406C13.5552 22.4825 13.4855 22.6517 13.4855 22.8481C13.4855 23.0342 13.5565 23.1989 13.6984 23.3422C13.8401 23.4856 14.0091 23.5572 14.2055 23.5572H16.8188V25.4614H14.2076C14.0054 25.4614 13.8344 25.5322 13.6947 25.6739C13.5552 25.8158 13.4855 25.985 13.4855 26.1814V29.5864C13.4855 29.7922 13.5565 29.9631 13.6984 30.0989C13.8401 30.235 14.0091 30.3031 14.2055 30.3031ZM25.4043 26.8906V29.5972C25.4043 29.7883 25.4752 29.9538 25.6172 30.0935C25.7588 30.2332 25.9279 30.3031 26.1243 30.3031C26.3106 30.3031 26.4755 30.2335 26.6188 30.0943C26.7622 29.9554 26.8338 29.7897 26.8338 29.5972V22.8518C26.8338 22.6485 26.764 22.4769 26.6243 22.3372C26.4843 22.1978 26.3176 22.1281 26.1243 22.1281C25.9309 22.1281 25.7626 22.1989 25.6193 22.3406C25.4759 22.4825 25.4043 22.6517 25.4043 22.8481V25.4614H23.5005V22.8501C23.5005 22.6479 23.4306 22.4769 23.2909 22.3372C23.1509 22.1978 22.9842 22.1281 22.7909 22.1281C22.5976 22.1281 22.4293 22.1989 22.2859 22.3406C22.1426 22.4825 22.0709 22.6517 22.0709 22.8481V26.1814C22.0709 26.375 22.1419 26.5417 22.2838 26.6814C22.4255 26.8208 22.5945 26.8906 22.7909 26.8906H25.4043Z" fill="#121212"/>
</g>
<mask id="mask1_862_4695" style="mask-type:alpha" maskUnits="userSpaceOnUse" x="0" y="0" width="41" height="41">
<rect x="0.15625" y="0.302734" width="40" height="40" fill="#D9D9D9"/>
</mask>
<g mask="url(#mask1_862_4695)">
<path d="M34.748 18.5881V32.2797C34.748 32.9958 34.4927 33.6093 33.9822 34.1201C33.4713 34.631 32.8577 34.8864 32.1413 34.8864H8.1605C7.44411 34.8864 6.83064 34.631 6.32008 34.1201C5.80925 33.6093 5.55383 32.9958 5.55383 32.2797V18.5422C4.81883 17.9497 4.30828 17.2007 4.02217 16.2951C3.73633 15.3896 3.7455 14.4535 4.04967 13.4868L5.75425 7.99931C5.97536 7.27876 6.34744 6.71876 6.8705 6.31931C7.39356 5.91959 8.01869 5.71973 8.74592 5.71973H31.4447C32.1922 5.71973 32.8359 5.9175 33.3759 6.31306C33.9162 6.70889 34.2968 7.25973 34.5176 7.96556L36.2801 13.4868C36.5842 14.4535 36.5887 15.3921 36.2934 16.3026C35.9984 17.2132 35.4833 17.975 34.748 18.5881ZM23.8659 17.5893C24.8059 17.5893 25.5447 17.3064 26.0822 16.7406C26.6194 16.1747 26.8406 15.546 26.7459 14.8543L25.6713 7.81389H21.2118V14.741C21.2118 15.5132 21.4674 16.181 21.9788 16.7443C22.4899 17.3076 23.119 17.5893 23.8659 17.5893ZM16.2247 17.5893C17.053 17.5893 17.7423 17.3111 18.2926 16.7547C18.8429 16.1983 19.118 15.5271 19.118 14.741V7.81389H14.6476L13.573 14.9185C13.4833 15.5388 13.6927 16.139 14.2013 16.7193C14.7097 17.2993 15.3841 17.5893 16.2247 17.5893ZM8.72883 17.5893C9.41467 17.5893 10.0115 17.3506 10.5193 16.8731C11.0273 16.3956 11.3301 15.8046 11.4276 15.1001L12.4876 7.81389H8.50883C8.32717 7.81389 8.18119 7.85389 8.07092 7.93389C7.96036 8.01417 7.88203 8.13431 7.83592 8.29431L6.10925 13.9656C5.83647 14.8208 5.9505 15.6386 6.45133 16.4189C6.95189 17.1992 7.71106 17.5893 8.72883 17.5893ZM31.573 17.5893C32.5161 17.5893 33.2636 17.2146 33.8155 16.4651C34.3674 15.7154 34.4988 14.8822 34.2097 13.9656L32.4447 8.26264C32.3986 8.10237 32.3202 7.9875 32.2097 7.91806C32.0994 7.84862 31.9534 7.81389 31.7718 7.81389H27.8313L28.8913 15.1001C28.9961 15.8046 29.2972 16.3956 29.7947 16.8731C30.2922 17.3506 30.8849 17.5893 31.573 17.5893ZM8.1605 32.7922H32.1413C32.2838 32.7922 32.4049 32.7442 32.5047 32.6481C32.6044 32.552 32.6543 32.4292 32.6543 32.2797V19.5531C32.5481 19.6078 32.3947 19.6432 32.1938 19.6593C31.993 19.6754 31.7861 19.6835 31.573 19.6835C30.853 19.6835 30.1951 19.5374 29.5993 19.2451C29.0034 18.9532 28.4234 18.4932 27.8593 17.8651C27.4143 18.4163 26.8666 18.8571 26.2163 19.1876C25.5661 19.5182 24.8113 19.6835 23.9522 19.6835C23.203 19.6835 22.5286 19.5451 21.9288 19.2685C21.3291 18.9915 20.7412 18.565 20.1651 17.9889C19.6729 18.5422 19.098 18.9631 18.4405 19.2514C17.783 19.5394 17.0993 19.6835 16.3893 19.6835C15.6056 19.6835 14.8823 19.5415 14.2193 19.2576C13.5562 18.9738 12.984 18.5096 12.5026 17.8651C11.7604 18.566 11.0761 19.0442 10.4497 19.2997C9.82328 19.5556 9.24967 19.6835 8.72883 19.6835C8.52439 19.6835 8.32703 19.6754 8.13675 19.6593C7.94675 19.6432 7.78369 19.6078 7.64758 19.5531V32.2797C7.64758 32.4292 7.69744 32.552 7.79717 32.6481C7.89689 32.7442 8.018 32.7922 8.1605 32.7922ZM14.2055 30.3031H17.5388C17.7397 30.3031 17.9099 30.2332 18.0497 30.0935C18.1891 29.9538 18.2588 29.7871 18.2588 29.5935C18.2588 29.4001 18.1879 29.2318 18.0459 29.0885C17.9043 28.9451 17.7352 28.8735 17.5388 28.8735H14.9255V26.8906H17.5368C17.739 26.8906 17.9099 26.8189 18.0497 26.6756C18.1891 26.5322 18.2588 26.3675 18.2588 26.1814V22.8481C18.2588 22.6472 18.1879 22.4769 18.0459 22.3372C17.9043 22.1978 17.7352 22.1281 17.5388 22.1281H14.2055C14.0047 22.1281 13.8344 22.1989 13.6947 22.3406C13.5552 22.4825 13.4855 22.6517 13.4855 22.8481C13.4855 23.0342 13.5565 23.1989 13.6984 23.3422C13.8401 23.4856 14.0091 23.5572 14.2055 23.5572H16.8188V25.4614H14.2076C14.0054 25.4614 13.8344 25.5322 13.6947 25.6739C13.5552 25.8158 13.4855 25.985 13.4855 26.1814V29.5864C13.4855 29.7922 13.5565 29.9631 13.6984 30.0989C13.8401 30.235 14.0091 30.3031 14.2055 30.3031ZM25.4043 26.8906V29.5972C25.4043 29.7883 25.4752 29.9538 25.6172 30.0935C25.7588 30.2332 25.9279 30.3031 26.1243 30.3031C26.3106 30.3031 26.4755 30.2335 26.6188 30.0943C26.7622 29.9554 26.8338 29.7897 26.8338 29.5972V22.8518C26.8338 22.6485 26.764 22.4769 26.6243 22.3372C26.4843 22.1978 26.3176 22.1281 26.1243 22.1281C25.9309 22.1281 25.7626 22.1989 25.6193 22.3406C25.4759 22.4825 25.4043 22.6517 25.4043 22.8481V25.4614H23.5005V22.8501C23.5005 22.6479 23.4306 22.4769 23.2909 22.3372C23.1509 22.1978 22.9842 22.1281 22.7909 22.1281C22.5976 22.1281 22.4293 22.1989 22.2859 22.3406C22.1426 22.4825 22.0709 22.6517 22.0709 22.8481V26.1814C22.0709 26.375 22.1419 26.5417 22.2838 26.6814C22.4255 26.8208 22.5945 26.8906 22.7909 26.8906H25.4043Z" fill="#121212"/>
</g>
</svg>
