<svg width="40" height="41" viewBox="0 0 40 41" fill="none" xmlns="http://www.w3.org/2000/svg">
<rect y="0.697266" width="40" height="40" rx="4" fill="#EEEEEE"/>
<path d="M7.5 17.042L4.97875 18.9962C4.73931 19.1798 4.48237 19.2493 4.20792 19.2045C3.9332 19.1595 3.70403 19.0188 3.52042 18.7824C3.33653 18.5461 3.265 18.2888 3.30584 18.0108C3.34667 17.7327 3.48584 17.502 3.72334 17.3187L18.4154 6.0912C18.6585 5.92037 18.914 5.78759 19.1821 5.69287C19.4499 5.59814 19.7232 5.55078 20.0021 5.55078C20.2807 5.55078 20.5536 5.59814 20.8208 5.69287C21.0878 5.78759 21.3424 5.92037 21.5846 6.0912L36.3021 17.3466C36.5365 17.5305 36.6707 17.7609 36.7046 18.0379C36.7385 18.3148 36.6635 18.5687 36.4796 18.7995C36.296 19.0304 36.0699 19.1654 35.8013 19.2045C35.5326 19.2437 35.2813 19.1713 35.0471 18.9874L20 7.51661L9.59417 15.4512V30.5899C9.59417 30.7397 9.64223 30.8626 9.73834 30.9587C9.83445 31.0548 9.95737 31.1029 10.1071 31.1029H17.4842C17.7806 31.1029 18.0292 31.2038 18.23 31.4058C18.4306 31.6074 18.5308 31.8574 18.5308 32.1558C18.5308 32.4538 18.4306 32.7019 18.23 32.8999C18.0292 33.098 17.7806 33.197 17.4842 33.197H10.1071C9.3957 33.197 8.78334 32.9404 8.27 32.427C7.75667 31.9137 7.5 31.3013 7.5 30.5899V17.042ZM23.3546 38.8058C23.0676 38.8058 22.8303 38.712 22.6425 38.5245C22.455 38.337 22.3613 38.0999 22.3613 37.8133C22.3613 37.5263 22.455 37.2888 22.6425 37.1008C22.8303 36.9127 23.0676 36.8187 23.3546 36.8187H25.0888C24.2704 36.0473 23.6113 35.1349 23.1113 34.0816C22.6113 33.0283 22.3613 31.9108 22.3613 30.7291C22.3613 29.088 22.8008 27.6068 23.68 26.2854C24.5592 24.9637 25.7168 23.9887 27.1529 23.3604C27.4049 23.2429 27.6388 23.2402 27.8546 23.3524C28.0704 23.4647 28.2318 23.6415 28.3388 23.8829C28.4454 24.1243 28.4567 24.3727 28.3725 24.6283C28.2881 24.8836 28.0801 25.0955 27.7488 25.2641C26.734 25.7577 25.9136 26.4912 25.2875 27.4645C24.6614 28.4379 24.3483 29.5261 24.3483 30.7291C24.3483 31.6416 24.5449 32.5038 24.9379 33.3158C25.3313 34.1277 25.8613 34.835 26.5279 35.4375V33.6458C26.5279 33.3588 26.6217 33.1215 26.8092 32.9337C26.9967 32.7459 27.2338 32.652 27.5204 32.652C27.8074 32.652 28.0449 32.7459 28.2329 32.9337C28.421 33.1215 28.515 33.3588 28.515 33.6458V37.5024C28.515 37.8719 28.3901 38.1815 28.1404 38.4312C27.8904 38.6809 27.5808 38.8058 27.2117 38.8058H23.3546ZM33.1504 38.0975C32.8985 38.2152 32.6603 38.2152 32.4358 38.0975C32.2114 37.98 32.0458 37.8005 31.9392 37.5591C31.8322 37.3177 31.821 37.0694 31.9054 36.8141C31.9899 36.5588 32.1976 36.3468 32.5288 36.1779C33.5546 35.6565 34.3778 34.9134 34.9983 33.9487C35.6192 32.984 35.9296 31.9108 35.9296 30.7291C35.9296 29.8166 35.7329 28.9544 35.3396 28.1424C34.9465 27.3305 34.4167 26.6233 33.75 26.0208V27.8125C33.75 28.0994 33.6563 28.3368 33.4688 28.5245C33.2813 28.712 33.044 28.8058 32.7571 28.8058C32.4704 28.8058 32.2331 28.712 32.045 28.5245C31.857 28.3368 31.7629 28.0994 31.7629 27.8125V23.9558C31.7629 23.5863 31.8878 23.2768 32.1375 23.027C32.3872 22.777 32.6968 22.652 33.0663 22.652H36.9229C37.2101 22.652 37.4475 22.7458 37.635 22.9333C37.8228 23.1211 37.9167 23.3583 37.9167 23.6449C37.9167 23.9319 37.8228 24.1694 37.635 24.3574C37.4475 24.5452 37.2101 24.6391 36.9229 24.6391H35.1892C36.0075 25.4105 36.6667 26.323 37.1667 27.3766C37.6667 28.4299 37.9167 29.5474 37.9167 30.7291C37.9167 32.3702 37.4771 33.8515 36.5979 35.1729C35.7185 36.4945 34.5693 37.4694 33.1504 38.0975Z" fill="#121212"/>
<mask id="mask0_862_4811" style="mask-type:alpha" maskUnits="userSpaceOnUse" x="0" y="0" width="40" height="41">
<rect y="0.697266" width="40" height="40" fill="#D9D9D9"/>
</mask>
<g mask="url(#mask0_862_4811)">
</g>
</svg>
