<svg width="40" height="40" viewBox="0 0 40 40" fill="none" xmlns="http://www.w3.org/2000/svg">
<rect width="40" height="40" rx="4" fill="#EEEEEE"/>
<mask id="mask0_862_4872" style="mask-type:alpha" maskUnits="userSpaceOnUse" x="0" y="0" width="40" height="40">
<rect width="40" height="40" fill="#D9D9D9"/>
</mask>
<g mask="url(#mask0_862_4872)">
<path d="M17.4637 29.3487C17.8362 29.647 18.2264 29.8634 18.6342 29.9978C19.0417 30.132 19.4564 30.1991 19.8783 30.1991C20.7103 30.1991 21.4635 29.9346 22.1379 29.4057C22.8124 28.8769 23.2108 28.1206 23.3333 27.137C23.4722 25.8087 23.0544 24.8188 22.08 24.1674C21.1058 23.5163 20.3656 22.6757 19.8592 21.6457C19.7203 22.0574 19.6479 22.4242 19.6421 22.7462C19.6365 23.0681 19.6811 23.4349 19.7758 23.8466C19.8592 24.3602 19.9621 24.8224 20.0846 25.2332C20.2071 25.6444 20.221 26.1009 20.1262 26.6028C19.9874 27.1442 19.6789 27.6817 19.2008 28.2153C18.7231 28.7487 18.144 29.1264 17.4637 29.3487ZM4.16666 33.2266V6.77408C4.16666 6.06269 4.42333 5.45032 4.93666 4.93699C5.45 4.42366 6.06236 4.16699 6.77375 4.16699H33.2262C33.9376 4.16699 34.55 4.42366 35.0633 4.93699C35.5767 5.45032 35.8333 6.06269 35.8333 6.77408V33.2266C35.8333 33.938 35.5767 34.5503 35.0633 35.0637C34.55 35.577 33.9376 35.8337 33.2262 35.8337H6.77375C6.06236 35.8337 5.45 35.577 4.93666 35.0637C4.42333 34.5503 4.16666 33.938 4.16666 33.2266ZM20.0021 31.6457C21.431 31.6457 22.6418 31.1475 23.6346 30.1512C24.6274 29.1548 25.1237 27.9449 25.1237 26.5216C25.1237 25.8521 24.9821 25.2745 24.6987 24.7887C24.4151 24.3031 24.0347 23.8971 23.5575 23.5707C22.4494 22.8321 21.5469 21.9855 20.85 21.0307C20.1531 20.076 19.6261 19.182 19.2692 18.3487C17.9117 19.3209 16.8372 20.4749 16.0458 21.8107C15.2547 23.1466 14.8592 24.6834 14.8592 26.4212C14.8592 27.875 15.3735 29.1092 16.4021 30.1237C17.4307 31.1384 18.6307 31.6457 20.0021 31.6457ZM6.77375 33.7395H10.5771V32.912C10.5771 32.56 10.7012 32.261 10.9496 32.0149C11.1982 31.7688 11.4978 31.6457 11.8483 31.6457H15.06C14.3364 30.9669 13.7729 30.1696 13.3696 29.2541C12.9665 28.3385 12.765 27.3942 12.765 26.4212C12.765 24.0787 13.3356 22.0506 14.4767 20.337C15.6175 18.6234 17.1474 17.1548 19.0662 15.9312C19.2485 15.805 19.4407 15.7394 19.6429 15.7341C19.8451 15.7285 20.0357 15.7585 20.2146 15.8241C20.3935 15.8896 20.5551 15.9917 20.6996 16.1303C20.8443 16.2689 20.9469 16.4396 21.0075 16.6424C21.3886 17.8291 21.8703 18.8025 22.4525 19.5628C23.0347 20.3231 23.8126 21.0823 24.7862 21.8403C25.6074 22.4956 26.2179 23.2003 26.6179 23.9545C27.0179 24.7087 27.2179 25.5644 27.2179 26.5216C27.2179 27.508 27.0332 28.4437 26.6637 29.3287C26.2946 30.2139 25.7386 30.9863 24.9958 31.6457H28.1517C28.5022 31.6457 28.8018 31.7699 29.0504 32.0182C29.2987 32.2669 29.4229 32.5664 29.4229 32.917V33.7395H33.2262C33.376 33.7395 33.4989 33.6914 33.595 33.5953C33.6911 33.4992 33.7392 33.3763 33.7392 33.2266V6.77408C33.7392 6.62435 33.6911 6.50144 33.595 6.40532C33.4989 6.30921 33.376 6.26116 33.2262 6.26116H6.77375C6.62403 6.26116 6.50111 6.30921 6.405 6.40532C6.30889 6.50144 6.26083 6.62435 6.26083 6.77408V33.2266C6.26083 33.3763 6.30889 33.4992 6.405 33.5953C6.50111 33.6914 6.62403 33.7395 6.77375 33.7395Z" fill="#1C1B1F"/>
</g>
</svg>
