<svg width="40" height="41" viewBox="0 0 40 41" fill="none" xmlns="http://www.w3.org/2000/svg">
<rect x="6.10352e-05" y="0.697266" width="40" height="40" rx="4" fill="#EEEEEE"/>
<mask id="mask0_862_4744" style="mask-type:alpha" maskUnits="userSpaceOnUse" x="0" y="0" width="40" height="41">
<rect x="6.10352e-05" y="0.697266" width="40" height="40" fill="#D9D9D9"/>
</mask>
<g mask="url(#mask0_862_4744)">
<path d="M3.94244 32.8656V7.95103C3.94244 7.36519 4.15022 6.86436 4.56578 6.44853C4.98161 6.03297 5.48244 5.8252 6.06828 5.8252H17.4466C18.0324 5.8252 18.5333 6.03297 18.9491 6.44853C19.3647 6.86436 19.5724 7.36519 19.5724 7.95103V12.5877H33.9316C34.5174 12.5877 35.0183 12.7956 35.4341 13.2114C35.8497 13.6273 36.0574 14.1281 36.0574 14.7139V32.8656C36.0574 33.4514 35.8497 33.9523 35.4341 34.3681C35.0183 34.7839 34.5174 34.9919 33.9316 34.9919H6.06828C5.48244 34.9919 4.98161 34.7839 4.56578 34.3681C4.15022 33.9523 3.94244 33.4514 3.94244 32.8656ZM6.03619 32.8977H10.7158V28.2181H6.03619V32.8977ZM6.03619 26.1244H10.7158V21.4552H6.03619V26.1244ZM6.03619 19.3614H10.7158V14.6819H6.03619V19.3614ZM6.03619 12.5877H10.7158V7.91895H6.03619V12.5877ZM12.8099 32.8977H17.4787V28.2181H12.8099V32.8977ZM12.8099 26.1244H17.4787V21.4552H12.8099V26.1244ZM12.8099 19.3614H17.4787V14.6819H12.8099V19.3614ZM12.8099 12.5877H17.4787V7.91895H12.8099V12.5877ZM19.5724 32.8977H33.9637V14.6819H19.5724V19.3614H23.2266V21.4552H19.5724V26.1244H23.2266V28.2181H19.5724V32.8977ZM27.3933 21.4552V19.3614H29.487V21.4552H27.3933ZM27.3933 28.2181V26.1244H29.487V28.2181H27.3933Z" fill="#121212"/>
</g>
</svg>
