<svg width="40" height="40" viewBox="0 0 40 40" fill="none" xmlns="http://www.w3.org/2000/svg">
<rect width="40" height="40" rx="4" fill="#EEEEEE"/>
<mask id="mask0_862_4786" style="mask-type:alpha" maskUnits="userSpaceOnUse" x="0" y="0" width="40" height="40">
<rect width="40" height="40" fill="#D9D9D9"/>
</mask>
<g mask="url(#mask0_862_4786)">
<mask id="mask1_862_4786" style="mask-type:alpha" maskUnits="userSpaceOnUse" x="0" y="-1" width="41" height="41">
<rect x="0.0490723" y="-0.046875" width="40" height="40" fill="#D9D9D9"/>
</mask>
<g mask="url(#mask1_862_4786)">
<path d="M9.6024 34.8994V24.1194H8.60907C8.23963 24.1194 7.93004 23.9946 7.68032 23.7448C7.43032 23.4948 7.30532 23.1853 7.30532 22.8161V14.7948C7.30532 14.0376 7.57574 13.3885 8.11657 12.8473C8.6574 12.3065 9.3006 12.0361 10.0462 12.0361H14.477C15.2295 12.0361 15.8762 12.3065 16.417 12.8473C16.9581 13.3885 17.2287 14.0376 17.2287 14.7948V22.8161C17.2287 23.1853 17.1037 23.4948 16.8537 23.7448C16.6039 23.9946 16.2943 24.1194 15.9249 24.1194H14.9316V34.8994C14.9316 35.2686 14.8066 35.5782 14.5566 35.8282C14.3068 36.0779 13.9974 36.2028 13.6282 36.2028H10.9057C10.5366 36.2028 10.2271 36.0779 9.9774 35.8282C9.7274 35.5782 9.6024 35.2686 9.6024 34.8994ZM12.2699 10.0553C11.4568 10.0553 10.7638 9.76971 10.1907 9.1986C9.61768 8.62721 9.33115 7.93512 9.33115 7.12234C9.33115 6.30929 9.61671 5.61623 10.1878 5.04318C10.7592 4.47012 11.4514 4.18359 12.2645 4.18359C13.0775 4.18359 13.7705 4.46915 14.3432 5.04026C14.9163 5.61165 15.2028 6.30387 15.2028 7.11693C15.2028 7.92998 14.9173 8.6229 14.3462 9.19568C13.7748 9.76873 13.0827 10.0553 12.2699 10.0553ZM26.0749 34.8994V26.6194H23.5749C23.1585 26.6194 22.8195 26.4479 22.5578 26.1048C22.2964 25.7621 22.2263 25.3826 22.3474 24.9665L25.357 13.8907C25.5328 13.2987 25.8641 12.8417 26.3507 12.5194C26.8377 12.1972 27.4006 12.0361 28.0395 12.0361C28.6784 12.0361 29.2395 12.1972 29.7228 12.5194C30.2062 12.8417 30.5357 13.2987 30.7116 13.8907L33.7316 24.9665C33.8527 25.3826 33.7816 25.7621 33.5182 26.1048C33.2546 26.4479 32.9131 26.6194 32.4937 26.6194H29.9937V34.8994C29.9937 35.2686 29.8687 35.5782 29.6187 35.8282C29.3689 36.0779 29.0593 36.2028 28.6899 36.2028H27.3782C27.0088 36.2028 26.6992 36.0779 26.4495 35.8282C26.1998 35.5782 26.0749 35.2686 26.0749 34.8994ZM28.037 10.0553C27.2239 10.0553 26.5309 9.76971 25.9578 9.1986C25.3848 8.62721 25.0982 7.93512 25.0982 7.12234C25.0982 6.30929 25.3838 5.61623 25.9549 5.04318C26.5263 4.47012 27.2185 4.18359 28.0316 4.18359C28.8446 4.18359 29.5375 4.46915 30.1103 5.04026C30.6834 5.61165 30.9699 6.30387 30.9699 7.11693C30.9699 7.92998 30.6844 8.6229 30.1132 9.19568C29.5419 9.76873 28.8498 10.0553 28.037 10.0553Z" fill="#1C1B1F"/>
</g>
</g>
</svg>
