<svg xmlns="http://www.w3.org/2000/svg" width="40" height="41" viewBox="0 0 40 41" fill="none">
  <rect x="6.10352e-05" y="0.697266" width="40" height="40" rx="4" fill="#EEEEEE"/>
  <path d="M9.83137 28.779V17.1719C9.83137 16.8752 9.93221 16.6266 10.1339 16.4261C10.3358 16.2252 10.5858 16.1248 10.8839 16.1248C11.1822 16.1248 11.4304 16.2252 11.6285 16.4261C11.8265 16.6266 11.9255 16.8752 11.9255 17.1719V28.779C11.9255 29.0756 11.8246 29.3243 11.6226 29.5248C11.421 29.7256 11.171 29.8261 10.8726 29.8261C10.5746 29.8261 10.3265 29.7256 10.1285 29.5248C9.9304 29.3243 9.83137 29.0756 9.83137 28.779ZM19.0322 28.779V17.1719C19.0322 16.8752 19.133 16.6266 19.3347 16.4261C19.5367 16.2252 19.7867 16.1248 20.0847 16.1248C20.383 16.1248 20.6312 16.2252 20.8293 16.4261C21.0271 16.6266 21.126 16.8752 21.126 17.1719V28.779C21.126 29.0756 21.0251 29.3243 20.8235 29.5248C20.6218 29.7256 20.3718 29.8261 20.0735 29.8261C19.7754 29.8261 19.5273 29.7256 19.3293 29.5248C19.1312 29.3243 19.0322 29.0756 19.0322 28.779ZM5.66262 34.8473C5.36596 34.8473 5.11735 34.7465 4.91679 34.5448C4.71596 34.3429 4.61554 34.0929 4.61554 33.7948C4.61554 33.4965 4.71596 33.2483 4.91679 33.0502C5.11735 32.8522 5.36596 32.7531 5.66262 32.7531H34.3376C34.6343 32.7531 34.8829 32.8541 35.0835 33.0561C35.2843 33.2577 35.3847 33.5077 35.3847 33.8061C35.3847 34.1041 35.2843 34.3522 35.0835 34.5502C34.8829 34.7483 34.6343 34.8473 34.3376 34.8473H5.66262ZM28.0747 28.779V17.1719C28.0747 16.8752 28.1757 16.6266 28.3776 16.4261C28.5793 16.2252 28.8293 16.1248 29.1276 16.1248C29.4257 16.1248 29.6737 16.2252 29.8718 16.4261C30.0698 16.6266 30.1689 16.8752 30.1689 17.1719V28.779C30.1689 29.0756 30.068 29.3243 29.8664 29.5248C29.6644 29.7256 29.4144 29.8261 29.1164 29.8261C28.818 29.8261 28.5698 29.7256 28.3718 29.5248C28.1737 29.3243 28.0747 29.0756 28.0747 28.779ZM34.481 13.1977H5.41804C5.20054 13.1977 5.01235 13.1186 4.85346 12.9602C4.69485 12.8019 4.61554 12.6148 4.61554 12.399V11.8427C4.61554 11.698 4.65498 11.5629 4.73387 11.4373C4.81248 11.3117 4.91804 11.2148 5.05054 11.1465L18.8005 3.90272C19.1772 3.70911 19.5761 3.6123 19.9972 3.6123C20.4183 3.6123 20.8192 3.70911 21.1997 3.90272L34.9101 11.1048C35.0554 11.1931 35.1708 11.3067 35.2564 11.4456C35.3419 11.5845 35.3847 11.7434 35.3847 11.9223V12.2761C35.3847 12.5436 35.3001 12.7641 35.131 12.9377C34.9615 13.1111 34.7448 13.1977 34.481 13.1977ZM18.8048 6.27132C16.4374 7.51885 17.3241 11.1036 20.0001 11.1036C22.6761 11.1036 23.5628 7.51885 21.1954 6.27132L20.2247 5.7598C20.1497 5.72758 20.0748 5.71147 20.0001 5.71147C19.9254 5.71147 19.8505 5.72758 19.7755 5.7598L18.8048 6.27132Z" fill="#121212"/>
</svg>