<svg width="290" height="297" viewBox="0 0 290 297" fill="none" xmlns="http://www.w3.org/2000/svg">
<path d="M226.176 21.4424V33.8018H224.713V27.458H223.387V33.2275H221.965V21.7705H223.387V26.2275H224.713V21.4424H226.176ZM220.912 23.001C220.912 26.3369 219.859 29.208 216.346 31.2178L215.471 30.165C218.103 28.6406 219.217 26.6855 219.436 24.2178H216.045V23.001H220.912ZM238.016 21.4424V27.8271H236.498V26.4873H234.01V27.4307H228.227V21.9893H229.744V23.5479H232.506V21.9893H234.01V23.083H236.498V21.4424H238.016ZM238.016 28.333V31.5049H231.398V32.4482H238.412V33.6514H229.881V30.3838H236.498V29.5225H229.867V28.333H238.016ZM229.744 26.2275H232.506V24.71H229.744V26.2275ZM234.01 25.3252H236.498V24.2314H234.01V25.3252ZM241.83 22.3037V26.9795C243.416 26.959 245.098 26.8428 246.916 26.4736L247.08 27.7178C245.043 28.1416 243.143 28.251 241.324 28.251H240.299V22.3037H241.83ZM249.514 21.4561V24.9971H251.236V26.2686H249.514V30.3428H247.996V21.4561H249.514ZM249.924 32.3252V33.5557H241.611V29.4951H243.143V32.3252H249.924ZM257.594 29.0713C260.15 29.0713 261.723 29.9326 261.736 31.4229C261.723 32.9268 260.15 33.8018 257.594 33.8018C255.01 33.8018 253.41 32.9268 253.41 31.4229C253.41 29.9326 255.01 29.0713 257.594 29.0713ZM257.594 30.2607C255.898 30.2607 254.928 30.6572 254.928 31.4229C254.928 32.1885 255.898 32.5986 257.594 32.5986C259.289 32.5986 260.232 32.1885 260.232 31.4229C260.232 30.6572 259.289 30.2607 257.594 30.2607ZM261.613 21.4424V24.3955H263.336V25.667H261.613V28.7705H260.096V21.4424H261.613ZM253.793 22.2217V23.8896H256.678V22.2217H258.182V27.9912H252.289V22.2217H253.793ZM253.793 26.7881H256.678V25.0791H253.793V26.7881Z" fill="#121212"/>
<path d="M217.008 4.87793V8.97949C218.49 8.98535 220.031 8.8916 221.73 8.53418L221.836 9.2959C220.066 9.6709 218.484 9.76465 216.914 9.76465H216.082V4.87793H217.008ZM223.723 4.12793V7.22168H225.293V8.01855H223.723V11.6514H222.809V4.12793H223.723ZM224.098 13.5381V14.3115H217.242V10.9131H218.156V13.5381H224.098ZM230.754 10.667C232.898 10.667 234.188 11.3701 234.188 12.5889C234.188 13.8193 232.898 14.5225 230.754 14.5342C228.609 14.5225 227.297 13.8193 227.297 12.5889C227.297 11.3701 228.609 10.667 230.754 10.667ZM230.754 11.3936C229.184 11.4053 228.211 11.8389 228.223 12.5889C228.211 13.3389 229.184 13.7842 230.754 13.7842C232.336 13.7842 233.297 13.3389 233.297 12.5889C233.297 11.8389 232.336 11.4053 230.754 11.3936ZM234.094 4.11621V6.74121H235.664V7.52637H234.094V10.3857H233.18V4.11621H234.094ZM227.297 4.77246V6.36621H230.332V4.77246H231.246V9.57715H226.395V4.77246H227.297ZM227.297 8.82715H230.332V7.09277H227.297V8.82715Z" fill="#505050"/>
<rect x="167.156" y="0.584961" width="40" height="40" rx="4" fill="#EEEEEE"/>
<path d="M58.8203 85.9756V87.1924H55.252C55.4365 88.2725 56.9473 89.2637 59.2988 89.4893L58.7383 90.665C56.5166 90.4395 54.8555 89.5371 54.1855 88.2588C53.5156 89.5303 51.875 90.4395 49.6465 90.665L49.1133 89.4893C51.4375 89.2363 52.9346 88.2588 53.1465 87.1924H49.5918V85.9756H58.8203ZM59.832 91.2939V92.5107H48.5664V91.2939H59.832ZM58.4512 93.5225V97.8018H56.9336V94.7529H49.8105V93.5225H58.4512ZM65.3418 88.4092C65.3281 90.6787 66.5176 92.9482 68.5273 93.8096L67.625 95.0264C66.2031 94.3701 65.1572 93.0576 64.5898 91.4443C64.0225 93.1875 62.9629 94.6094 61.459 95.3135L60.5293 94.042C62.5938 93.1533 63.7969 90.7881 63.7969 88.4092V86.4404H65.3418V88.4092ZM70.9473 85.4424V97.8154H69.416V85.4424H70.9473ZM83.0605 85.4424V92.0732H81.5293V85.4424H83.0605ZM76.3887 92.6475V93.9189H81.543V92.6475H83.0605V97.6514H74.8848V92.6475H76.3887ZM76.3887 96.4209H81.543V95.1084H76.3887V96.4209ZM76.3203 85.9893C78.2207 85.9756 79.6426 87.165 79.6426 88.8877C79.6426 90.5693 78.2207 91.7588 76.3203 91.7588C74.4062 91.7588 72.9844 90.5693 72.9844 88.8877C72.9844 87.165 74.4062 85.9756 76.3203 85.9893ZM76.3203 87.2607C75.2402 87.2607 74.4609 87.8896 74.4746 88.8877C74.4609 89.8721 75.2402 90.501 76.3203 90.5146C77.3867 90.501 78.1523 89.8721 78.1523 88.8877C78.1523 87.8896 77.3867 87.2607 76.3203 87.2607ZM96.1309 92.333V93.5635H91.2227V97.7881H89.7188V93.5635H84.8652V92.333H96.1309ZM95.0918 86.1396V87.3428H91.3867C91.4756 88.6963 93.1025 89.9951 95.543 90.3096L94.9961 91.499C92.8906 91.2051 91.25 90.2412 90.498 88.9014C89.7461 90.2412 88.1055 91.2051 86.0273 91.499L85.4531 90.3096C87.8799 89.9951 89.5068 88.6963 89.623 87.3428H85.9043V86.1396H95.0918ZM97.7031 92.8115C97.7031 90.2412 98.4688 88.0947 99.7539 86.2627H101.395C100.451 87.6162 99.5078 90.3643 99.5078 92.8115C99.5078 95.2588 100.451 98.0068 101.395 99.374H99.7539C98.4688 97.5283 97.7031 95.3955 97.7031 92.8115ZM109.133 86.5771V87.7803H102.229V86.5771H104.99V85.3467H106.508V86.5771H109.133ZM105.729 88.2178C107.41 88.2178 108.613 89.1338 108.627 90.46C108.613 91.7998 107.41 92.6885 105.729 92.6885C104.047 92.6885 102.857 91.7998 102.871 90.46C102.857 89.1338 104.047 88.2178 105.729 88.2178ZM105.729 89.3662C104.854 89.3662 104.279 89.7764 104.293 90.46C104.279 91.1436 104.854 91.5811 105.729 91.5811C106.604 91.5811 107.205 91.1436 107.205 90.46C107.205 89.7764 106.604 89.3662 105.729 89.3662ZM112.551 85.4424V92.7842H111.033V91.8135H109.201V90.5967H111.033V89.3936H109.215V88.1631H111.033V85.4424H112.551ZM105.838 93.2627V94.3018H111.047V93.2627H112.551V97.6514H104.32V93.2627H105.838ZM105.838 96.4619H111.047V95.4502H105.838V96.4619ZM118.307 86.3037C120.262 86.29 121.697 87.5342 121.711 89.2842C121.697 91.0479 120.262 92.2783 118.307 92.2783C116.365 92.2783 114.916 91.0479 114.916 89.2842C114.916 87.5342 116.365 86.29 118.307 86.3037ZM118.307 87.6162C117.227 87.6162 116.42 88.2588 116.42 89.2842C116.42 90.3232 117.227 90.9521 118.307 90.9521C119.4 90.9521 120.221 90.3232 120.221 89.2842C120.221 88.2588 119.4 87.6162 118.307 87.6162ZM124.596 85.4424V97.8154H123.078V85.4424H124.596ZM114.355 93.9873C116.584 93.9873 119.674 93.96 122.34 93.5771L122.463 94.6846C119.688 95.2178 116.721 95.2314 114.547 95.2314L114.355 93.9873ZM136.08 85.4424V90.2686H137.912V91.54H136.08V97.7744H134.562V85.4424H136.08ZM132.812 86.7275C132.812 90.3643 131.309 93.5498 127.193 95.5732L126.332 94.3975C129.34 92.9004 130.967 90.7949 131.281 87.9854H127.002V86.7275H132.812ZM148.494 88.6553V89.8857H139.963V85.6611H141.48V88.6553H148.494ZM149.779 91.0752V92.3057H138.5V91.0752H149.779ZM144.119 93.1943C146.785 93.208 148.385 94.0283 148.398 95.4775C148.385 96.9268 146.785 97.7471 144.119 97.7471C141.426 97.7471 139.812 96.9268 139.812 95.4775C139.812 94.0283 141.426 93.208 144.119 93.1943ZM144.119 94.3838C142.314 94.3975 141.344 94.7393 141.357 95.4775C141.344 96.1885 142.314 96.585 144.119 96.585C145.883 96.585 146.867 96.1885 146.881 95.4775C146.867 94.7393 145.883 94.3975 144.119 94.3838ZM154.277 92.8115C154.277 95.3955 153.512 97.5283 152.227 99.374H150.586C151.529 98.0068 152.473 95.2588 152.473 92.8115C152.473 90.3643 151.529 87.6162 150.586 86.2627H152.227C153.512 88.0947 154.277 90.2412 154.277 92.8115Z" fill="#121212"/>
<path d="M57.1797 68.1162V73.7061H56.2656V68.1162H57.1797ZM51.3438 74.2334V75.499H56.2656V74.2334H57.1797V78.3936H50.4297V74.2334H51.3438ZM51.3438 77.6436H56.2656V76.2373H51.3438V77.6436ZM51.5547 68.6318C53.1367 68.6201 54.2852 69.5928 54.2852 71.0225C54.2852 72.4404 53.1367 73.4131 51.5547 73.4131C49.9727 73.4131 48.8242 72.4404 48.8242 71.0225C48.8242 69.5928 49.9727 68.6201 51.5547 68.6318ZM51.5547 69.4053C50.4883 69.3936 49.7148 70.0732 49.7266 71.0225C49.7148 71.9717 50.4883 72.6514 51.5547 72.6514C52.6094 72.6514 53.3828 71.9717 53.3828 71.0225C53.3828 70.0732 52.6094 69.3936 51.5547 69.4053ZM64.2109 69.5928C64.1992 70.9873 66.0625 72.1709 67.8789 72.4404L67.5391 73.167C65.9102 72.8916 64.3281 72.0244 63.6953 70.7646C63.0625 72.0244 61.4746 72.8916 59.875 73.167L59.5117 72.4404C61.3164 72.1709 63.1797 70.9873 63.1797 69.5928V69.5225H59.8398V68.7725H67.5391V69.5225H64.2109V69.5928ZM68.4414 74.0576V74.8193H64.1289V78.5342H63.2266V74.8193H58.9492V74.0576H68.4414ZM80.3945 68.1162V72.3584H82.082V73.1318H80.3945V78.5342H79.4805V68.1162H80.3945ZM77.6992 69.2412C77.6992 72.1943 76.3164 74.8779 72.918 76.5537L72.4023 75.8271C75.0977 74.4854 76.5625 72.4814 76.7734 70.0146H72.8828V69.2412H77.6992ZM91.1172 71.0342V71.7959H84.0039V68.3271H84.918V71.0342H91.1172ZM92.207 73.0146V73.7764H82.7031V73.0146H92.207ZM87.4492 74.7139C89.6875 74.7139 91.0234 75.3936 91.0352 76.6006C91.0234 77.8076 89.6875 78.4873 87.4492 78.4873C85.1992 78.4873 83.8516 77.8076 83.8516 76.6006C83.8516 75.3936 85.1992 74.7139 87.4492 74.7139ZM87.4492 75.4404C85.7734 75.4521 84.7773 75.8623 84.7891 76.6006C84.7773 77.3271 85.7734 77.7725 87.4492 77.7725C89.1016 77.7725 90.1094 77.3271 90.1094 76.6006C90.1094 75.8623 89.1016 75.4521 87.4492 75.4404ZM96.0273 68.5029C97.5859 68.5146 98.7227 69.4521 98.7227 70.8115C98.7227 72.1709 97.5859 73.1084 96.0273 73.1084C94.4453 73.1084 93.3203 72.1709 93.3203 70.8115C93.3203 69.4521 94.4453 68.5146 96.0273 68.5029ZM96.0273 69.2764C94.9844 69.2764 94.2109 69.9092 94.2227 70.8115C94.2109 71.7256 94.9844 72.3584 96.0273 72.3584C97.0586 72.3584 97.832 71.7256 97.832 70.8115C97.832 69.9092 97.0586 69.2764 96.0273 69.2764ZM101.676 68.1162V73.4717H100.762V68.1162H101.676ZM101.676 73.9756V76.4834H95.8281V77.6553H102.051V78.3936H94.9258V75.792H100.762V74.7139H94.9023V73.9756H101.676Z" fill="#505050"/>
<rect x="0.15625" y="64.585" width="40" height="40" rx="4" fill="#EEEEEE"/>
<path d="M51.998 22.1396C52.9961 22.1396 53.8574 22.5088 54.4453 23.124H57.3984V21.4424H58.916V28.7158H57.3984V27.1436H54.4453C53.8574 27.7588 52.9893 28.1211 51.998 28.1143C50.1387 28.1279 48.7305 26.8701 48.7305 25.1338C48.7305 23.3838 50.1387 22.1396 51.998 22.1396ZM51.998 23.4385C50.9316 23.4385 50.1797 24.0947 50.1797 25.1338C50.1797 26.1455 50.9316 26.8291 51.998 26.8291C53.0234 26.8291 53.7754 26.1455 53.7891 25.1338C53.7754 24.0947 53.0234 23.4385 51.998 23.4385ZM54.7324 28.9756C57.3301 28.9756 58.957 29.8643 58.957 31.3818C58.957 32.8994 57.3301 33.7881 54.7324 33.7881C52.1484 33.7881 50.5215 32.8994 50.5352 31.3818C50.5215 29.8643 52.1484 28.9756 54.7324 28.9756ZM54.7324 30.1377C53.0098 30.1377 52.0117 30.5752 52.0254 31.3818C52.0117 32.1611 53.0098 32.5986 54.7324 32.5986C56.4824 32.5986 57.4668 32.1611 57.4668 31.3818C57.4668 30.5752 56.4824 30.1377 54.7324 30.1377ZM55.1289 24.3408C55.1973 24.5938 55.2383 24.8535 55.2383 25.1338C55.2383 25.4072 55.1973 25.667 55.1426 25.9131H57.3984V24.3408H55.1289ZM64.0977 21.9893C65.6973 21.9756 66.9551 22.8984 67.2695 24.2588H69.498V21.4424H71.0156V28.0732H69.498V25.4893H67.2832C66.9756 26.877 65.7041 27.8135 64.0977 27.8135C62.1973 27.8135 60.8301 26.5967 60.8301 24.8877C60.8301 23.2061 62.1973 21.9756 64.0977 21.9893ZM64.0977 23.2607C63.0312 23.2607 62.2793 23.8896 62.2793 24.8877C62.2793 25.8721 63.0312 26.5283 64.0977 26.5283C65.1367 26.5283 65.875 25.8721 65.8887 24.8877C65.875 23.8896 65.1367 23.2607 64.0977 23.2607ZM64.3711 28.6475V29.96H69.498V28.6475H71.0156V33.6514H62.8672V28.6475H64.3711ZM64.3711 32.4209H69.498V31.1357H64.3711V32.4209ZM84.0312 27.1162V28.3467H79.1367V29.3721C81.3516 29.5225 82.6504 30.2881 82.6641 31.5732C82.6504 32.9951 81.0508 33.7881 78.3848 33.7881C75.6914 33.7881 74.0781 32.9951 74.0781 31.5732C74.0781 30.2881 75.3906 29.5156 77.6328 29.3721V28.3467H72.7656V27.1162H84.0312ZM78.3848 30.5205C76.5801 30.5342 75.6094 30.8896 75.623 31.5732C75.6094 32.2568 76.5801 32.626 78.3848 32.626C80.1484 32.626 81.1328 32.2568 81.1465 31.5732C81.1328 30.8896 80.1484 30.5342 78.3848 30.5205ZM83.0195 21.9893V23.2061H79.4648C79.7041 24.2246 81.1807 25.1406 83.498 25.3525L82.9648 26.5557C80.7227 26.3301 79.0547 25.4346 78.3848 24.1768C77.7148 25.4277 76.0742 26.3301 73.832 26.5557L73.3125 25.3525C75.582 25.1406 77.0586 24.2109 77.3184 23.2061H73.791V21.9893H83.0195Z" fill="#121212"/>
<path d="M57.1797 4.12793V10.0811H56.2656V4.12793H57.1797ZM57.1797 10.6436V14.3936H50.4062V10.6436H57.1797ZM51.3086 11.3936V13.6436H56.2773V11.3936H51.3086ZM51.5547 4.67871C53.1367 4.67871 54.2852 5.66309 54.2852 7.11621C54.2852 8.5459 53.1367 9.54199 51.5547 9.54199C49.9727 9.54199 48.8242 8.5459 48.8242 7.11621C48.8242 5.66309 49.9727 4.67871 51.5547 4.67871ZM51.5547 5.46387C50.4883 5.45215 49.7148 6.14355 49.7266 7.11621C49.7148 8.07715 50.4883 8.75684 51.5547 8.75684C52.6094 8.75684 53.3828 8.07715 53.3828 7.11621C53.3828 6.14355 52.6094 5.45215 51.5547 5.46387ZM67.8555 4.11621V14.5342H66.9766V9.07324H65.4414V13.9951H64.5977V4.35059H65.4414V8.31152H66.9766V4.11621H67.8555ZM63.2383 5.39355V6.15527H60.25V11.1709C61.6855 11.165 62.6816 11.1123 63.8359 10.8779L63.918 11.6514C62.6641 11.9092 61.5977 11.9561 60.0039 11.9561H59.3359V5.39355H63.2383ZM75.8125 5.80371C75.8125 7.22168 76.8906 8.52246 78.4023 9.03809L77.8984 9.76465C76.7441 9.34277 75.8359 8.48145 75.3789 7.39746C74.9336 8.62207 74.0078 9.58887 72.7891 10.0576L72.2969 9.31934C73.8555 8.7334 74.8984 7.33887 74.9102 5.7334V4.65527H75.8125V5.80371ZM80.4766 4.11621V6.83496H82.0469V7.6084H80.4766V10.4561H79.5625V4.11621H80.4766ZM77.1367 10.7256C79.2812 10.7256 80.5703 11.417 80.5703 12.6123C80.5703 13.8311 79.2812 14.5107 77.1367 14.5107C74.9922 14.5107 73.6797 13.8311 73.6797 12.6123C73.6797 11.417 74.9922 10.7256 77.1367 10.7256ZM77.1367 11.4639C75.5664 11.4639 74.5938 11.8975 74.6055 12.6123C74.5938 13.3506 75.5664 13.7725 77.1367 13.7842C78.7188 13.7725 79.6797 13.3506 79.6797 12.6123C79.6797 11.8975 78.7188 11.4639 77.1367 11.4639ZM87.25 5.32324V6.07324H84.0039V8.07715H87.0977V8.81543H84.0039V11.1709C85.5508 11.165 86.5059 11.124 87.6484 10.9131L87.7305 11.6748C86.5117 11.9092 85.5039 11.9561 83.793 11.9561H83.125V5.32324H87.25ZM91.6328 4.11621V14.5342H90.7422V9.07324H89.3125V14.0068H88.4219V4.33887H89.3125V8.31152H90.7422V4.11621H91.6328Z" fill="#505050"/>
<rect x="0.15625" y="0.584961" width="40" height="40" rx="4" fill="#EEEEEE"/>
<path d="M226.832 91.3896V92.5928H221.938V93.7822H225.451V97.8018H223.934V95.0127H216.811V93.7822H220.434V92.5928H215.566V91.3896H226.832ZM218.533 85.7432V86.9736H223.865V85.7432H225.369V90.4736H217.029V85.7432H218.533ZM218.533 89.2568H223.865V88.1084H218.533V89.2568ZM238.945 91.3623V92.5791H227.666V91.3623H232.561V90.1865H229.047V86.0029H237.578V87.1924H230.564V88.9834H237.646V90.1865H234.051V91.3623H238.945ZM233.285 93.29C235.951 93.29 237.551 94.0967 237.564 95.5459C237.551 96.9814 235.951 97.8018 233.285 97.8018C230.592 97.8018 228.979 96.9814 228.979 95.5459C228.979 94.0967 230.592 93.29 233.285 93.29ZM233.285 94.4521C231.48 94.4521 230.51 94.835 230.523 95.5459C230.51 96.2568 231.48 96.626 233.285 96.626C235.049 96.626 236.033 96.2568 236.047 95.5459C236.033 94.835 235.049 94.4521 233.285 94.4521ZM251.195 87.3701V88.6143H249.514V90.0225H251.195V91.2666H249.514V93.3311H247.996V85.4424H249.514V87.3701H251.195ZM245.521 93.4404C248.051 93.4404 249.65 94.2471 249.65 95.6143C249.65 96.9678 248.051 97.7881 245.521 97.7881C242.951 97.7881 241.379 96.9678 241.393 95.6143C241.379 94.2471 242.951 93.4404 245.521 93.4404ZM245.521 94.6025C243.826 94.6025 242.883 94.9307 242.896 95.6143C242.883 96.2705 243.826 96.6396 245.521 96.6396C247.189 96.6396 248.133 96.2705 248.133 95.6143C248.133 94.9307 247.189 94.6025 245.521 94.6025ZM247.107 86.7002V87.8896H239.779V86.7002H242.691V85.3604H244.209V86.7002H247.107ZM243.443 88.3818C245.234 88.3818 246.451 89.2705 246.465 90.5967C246.451 91.9229 245.234 92.7979 243.443 92.7979C241.639 92.7979 240.408 91.9229 240.408 90.5967C240.408 89.2705 241.639 88.3818 243.443 88.3818ZM243.443 89.5029C242.5 89.5029 241.885 89.9131 241.885 90.5967C241.885 91.2666 242.5 91.6494 243.443 91.6494C244.387 91.6494 245.016 91.2666 245.016 90.5967C245.016 89.9131 244.387 89.5029 243.443 89.5029Z" fill="#121212"/>
<path d="M220.383 74.667C222.527 74.667 223.816 75.3701 223.816 76.5889C223.816 77.8193 222.527 78.5225 220.383 78.5342C218.238 78.5225 216.926 77.8193 216.926 76.5889C216.926 75.3701 218.238 74.667 220.383 74.667ZM220.383 75.3936C218.812 75.4053 217.84 75.8389 217.852 76.5889C217.84 77.3389 218.812 77.7842 220.383 77.7842C221.965 77.7842 222.926 77.3389 222.926 76.5889C222.926 75.8389 221.965 75.4053 220.383 75.3936ZM223.723 68.1162V70.7412H225.293V71.5264H223.723V74.3857H222.809V68.1162H223.723ZM216.926 68.7725V70.3662H219.961V68.7725H220.875V73.5771H216.023V68.7725H216.926ZM216.926 72.8271H219.961V71.0928H216.926V72.8271ZM235.641 69.9443V70.7061H234.094V72.1475H235.641V72.9209H234.094V74.8428H233.18V68.1162H234.094V69.9443H235.641ZM230.801 74.9131C232.922 74.9131 234.211 75.5811 234.211 76.7178C234.211 77.8545 232.922 78.5107 230.801 78.5107C228.68 78.5107 227.379 77.8545 227.391 76.7178C227.379 75.5811 228.68 74.9131 230.801 74.9131ZM230.801 75.6396C229.242 75.6396 228.293 76.0264 228.305 76.7178C228.293 77.3975 229.242 77.7959 230.801 77.7959C232.359 77.7959 233.297 77.3975 233.297 76.7178C233.297 76.0264 232.359 75.6396 230.801 75.6396ZM232.184 69.3115V70.0381H225.973V69.3115H228.621V68.0342H229.535V69.3115H232.184ZM229.078 70.5771C230.578 70.5771 231.574 71.3037 231.586 72.417C231.574 73.542 230.578 74.2568 229.078 74.2568C227.566 74.2568 226.559 73.542 226.57 72.417C226.559 71.3037 227.566 70.5771 229.078 70.5771ZM229.078 71.2686C228.094 71.2803 227.438 71.7373 227.449 72.417C227.438 73.0967 228.094 73.542 229.078 73.542C230.051 73.542 230.707 73.0967 230.719 72.417C230.707 71.7373 230.051 71.2803 229.078 71.2686Z" fill="#505050"/>
<rect x="167.156" y="64.585" width="40" height="40" rx="4" fill="#EEEEEE"/>
<path d="M52.9551 157.481C52.9551 158.507 53.4268 159.587 54.4863 160.257C55.5596 159.539 56.0586 158.418 56.0723 157.481V156.976H57.5625V157.481C57.5488 158.78 58.3145 159.983 59.9414 160.503L59.2031 161.61C58 161.207 57.2002 160.421 56.7695 159.437C56.373 160.407 55.6416 161.275 54.5273 161.72C53.3516 161.296 52.6133 160.462 52.2305 159.478C51.7861 160.428 51 161.2 49.8516 161.61L49.0996 160.503C50.6992 159.942 51.4648 158.685 51.4785 157.481V156.976H52.9551V157.481ZM58.8613 149.456V156.456H57.3301V149.456H58.8613ZM52.1211 150.112C54.0215 150.112 55.4434 151.315 55.4434 153.052C55.4434 154.774 54.0215 155.978 52.1211 155.978C50.207 155.978 48.7852 154.774 48.7852 153.052C48.7852 151.315 50.207 150.112 52.1211 150.112ZM52.1211 151.397C51.041 151.397 50.2617 152.04 50.2754 153.052C50.2617 154.063 51.041 154.72 52.1211 154.72C53.1875 154.72 53.9531 154.063 53.9531 153.052C53.9531 152.04 53.1875 151.397 52.1211 151.397ZM66.2852 149.688C69.0195 149.688 70.7285 150.591 70.7422 152.095C70.7285 153.571 69.0195 154.46 66.2852 154.446C63.5781 154.46 61.8281 153.571 61.8281 152.095C61.8281 150.591 63.5781 149.688 66.2852 149.688ZM66.2852 150.878C64.4805 150.878 63.4004 151.302 63.4141 152.095C63.4004 152.847 64.4805 153.257 66.2852 153.271C68.0898 153.257 69.1699 152.847 69.1699 152.095C69.1699 151.302 68.0898 150.878 66.2852 150.878ZM70.5645 157.495V161.651H61.9922V157.495H70.5645ZM63.4961 158.698V160.421H69.0879V158.698H63.4961ZM71.9316 155.28V156.511H60.666V155.28H71.9316Z" fill="#121212"/>
<path d="M57.1797 132.128V139.745H56.2656V132.128H57.1797ZM57.5078 141.538V142.312H50.4531V138.972H51.3672V141.538H57.5078ZM51.5547 132.854C53.1133 132.854 54.2852 133.909 54.2852 135.409C54.2852 136.933 53.1133 137.976 51.5547 137.976C49.9961 137.976 48.8242 136.933 48.8242 135.409C48.8242 133.909 49.9961 132.854 51.5547 132.854ZM51.5547 133.663C50.5 133.663 49.7148 134.39 49.7266 135.409C49.7148 136.452 50.5 137.167 51.5547 137.167C52.5859 137.167 53.3828 136.452 53.3828 135.409C53.3828 134.39 52.5859 133.663 51.5547 133.663ZM63.2383 133.394V134.132H60.2383V136.194H62.7578V136.933H60.2383V139.276C61.7324 139.259 62.6465 139.206 63.7773 138.995L63.8594 139.745C62.6523 139.991 61.668 140.015 60.0156 140.026H59.3594V133.394H63.2383ZM67.8672 132.116V142.534H66.9766V132.116H67.8672ZM65.7344 132.374V141.995H64.8555V136.839H63.3203V136.077H64.8555V132.374H65.7344ZM77.9219 132.116V142.558H77.0078V132.116H77.9219ZM74.7578 133.089V136.792H70.8672V139.253C72.5957 139.253 74.1367 139.177 76 138.878L76.0938 139.651C74.1719 139.956 72.5898 140.026 70.7969 140.026H69.9297V136.042H73.832V133.851H69.9062V133.089H74.7578ZM82.4922 132.925C83.9102 132.937 84.9297 134.149 85.082 136.101H87.4141V132.116H88.3281V142.558H87.4141V136.862H85.0938C84.9824 138.901 83.9453 140.179 82.4922 140.179C80.957 140.179 79.8789 138.772 79.8789 136.558C79.8789 134.343 80.957 132.937 82.4922 132.925ZM82.4922 133.745C81.4609 133.757 80.7578 134.858 80.7578 136.558C80.7578 138.257 81.4609 139.358 82.4922 139.358C83.5117 139.358 84.2266 138.257 84.2266 136.558C84.2266 134.858 83.5117 133.757 82.4922 133.745Z" fill="#3C3C3C"/>
<rect x="0.15625" y="128.585" width="40" height="40" rx="4" fill="#EEEEEE"/>
<path d="M226.846 155.171V156.415H215.566V155.171H226.846ZM225.547 152.983V154.2H216.947V149.839H225.479V151.069H218.465V152.983H225.547ZM221.186 157.276C223.852 157.263 225.451 158.083 225.465 159.519C225.451 160.968 223.852 161.788 221.186 161.788C218.492 161.788 216.879 160.968 216.879 159.519C216.879 158.083 218.492 157.263 221.186 157.276ZM221.186 158.438C219.381 158.438 218.41 158.821 218.424 159.519C218.41 160.243 219.381 160.612 221.186 160.612C222.949 160.612 223.934 160.243 223.947 159.519C223.934 158.821 222.949 158.438 221.186 158.438ZM237.988 149.442V161.802H236.457V149.442H237.988ZM234.297 150.755C234.297 154.433 232.875 157.563 228.541 159.614L227.748 158.397C230.981 156.859 232.485 154.768 232.752 151.958H228.377V150.755H234.297ZM253.438 149.456V158.521H251.92V154.364H249.541V153.106H251.92V149.456H253.438ZM249.623 150.386C249.623 153.64 247.463 156.087 243.895 157.222L243.252 156.005C245.918 155.157 247.675 153.585 247.969 151.63H243.895V150.386H249.623ZM253.752 160.325V161.556H245.385V157.604H246.93V160.325H253.752ZM266.453 154.46V155.663H261.559V156.593H265.045V159.628H258.018V160.53H265.387V161.692H256.527V158.534H263.555V157.741H256.514V156.593H260.041V155.663H255.188V154.46H266.453ZM265.004 149.825V153.681H256.609V149.825H265.004ZM258.1 151.015V152.491H263.486V151.015H258.1Z" fill="#121212"/>
<path d="M225.082 137.073V137.847H215.578V137.073H225.082ZM223.969 135.327V136.077H216.785V132.538H223.898V133.312H217.688V135.327H223.969ZM220.324 138.761C222.562 138.761 223.898 139.44 223.91 140.636C223.898 141.843 222.562 142.511 220.324 142.511C218.074 142.511 216.727 141.843 216.727 140.636C216.727 139.44 218.074 138.761 220.324 138.761ZM220.324 139.476C218.648 139.487 217.652 139.909 217.664 140.636C217.652 141.374 218.648 141.784 220.324 141.784C221.977 141.784 222.984 141.374 222.984 140.636C222.984 139.909 221.977 139.487 220.324 139.476ZM234.562 132.116V142.534H233.637V132.116H234.562ZM231.48 133.253C231.469 136.253 230.074 138.901 226.582 140.577L226.078 139.827C228.896 138.491 230.332 136.493 230.543 134.003H226.559V133.253H231.48ZM245.848 138.304V139.054H241.5V142.534H240.598V139.054H236.309V138.304H245.848ZM238.441 132.55V133.991H243.691V132.55H244.617V137.038H237.527V132.55H238.441ZM238.441 136.288H243.691V134.741H238.441V136.288ZM259.207 137.073V137.847H249.703V137.073H259.207ZM258.094 135.327V136.077H250.91V132.538H258.023V133.312H251.812V135.327H258.094ZM254.449 138.761C256.688 138.761 258.023 139.44 258.035 140.636C258.023 141.843 256.688 142.511 254.449 142.511C252.199 142.511 250.852 141.843 250.852 140.636C250.852 139.44 252.199 138.761 254.449 138.761ZM254.449 139.476C252.773 139.487 251.777 139.909 251.789 140.636C251.777 141.374 252.773 141.784 254.449 141.784C256.102 141.784 257.109 141.374 257.109 140.636C257.109 139.909 256.102 139.487 254.449 139.476ZM262.254 132.538V133.862H267.41V132.538H268.324V136.698H265.277V137.812H269.566V138.573H260.074V137.812H264.363V136.698H261.34V132.538H262.254ZM262.254 135.96H267.41V134.589H262.254V135.96ZM268.512 141.538V142.312H261.305V139.405H262.23V141.538H268.512Z" fill="#505050"/>
<rect x="167.156" y="128.585" width="40" height="40" rx="4" fill="#EEEEEE"/>
<path d="M176.988 156.667V145.06C176.988 144.763 177.088 144.514 177.29 144.314C177.492 144.113 177.742 144.012 178.04 144.012C178.338 144.012 178.587 144.113 178.785 144.314C178.983 144.514 179.082 144.763 179.082 145.06V156.667C179.082 156.963 178.981 157.212 178.779 157.413C178.577 157.613 178.327 157.714 178.029 157.714C177.731 157.714 177.483 157.613 177.285 157.413C177.087 157.212 176.988 156.963 176.988 156.667ZM186.188 156.667V145.06C186.188 144.763 186.289 144.514 186.491 144.314C186.693 144.113 186.943 144.012 187.241 144.012C187.539 144.012 187.787 144.113 187.985 144.314C188.183 144.514 188.282 144.763 188.282 145.06V156.667C188.282 156.963 188.181 157.212 187.98 157.413C187.778 157.613 187.528 157.714 187.23 157.714C186.932 157.714 186.684 157.613 186.485 157.413C186.287 157.212 186.188 156.963 186.188 156.667ZM172.819 162.735C172.522 162.735 172.274 162.634 172.073 162.433C171.872 162.231 171.772 161.981 171.772 161.683C171.772 161.384 171.872 161.136 172.073 160.938C172.274 160.74 172.522 160.641 172.819 160.641H201.494C201.79 160.641 202.039 160.742 202.24 160.944C202.44 161.145 202.541 161.395 202.541 161.694C202.541 161.992 202.44 162.24 202.24 162.438C202.039 162.636 201.79 162.735 201.494 162.735H172.819ZM195.231 156.667V145.06C195.231 144.763 195.332 144.514 195.534 144.314C195.735 144.113 195.985 144.012 196.284 144.012C196.582 144.012 196.83 144.113 197.028 144.314C197.226 144.514 197.325 144.763 197.325 145.06V156.667C197.325 156.963 197.224 157.212 197.023 157.413C196.821 157.613 196.571 157.714 196.273 157.714C195.974 157.714 195.726 157.613 195.528 157.413C195.33 157.212 195.231 156.963 195.231 156.667ZM201.637 141.085H172.574C172.357 141.085 172.169 141.006 172.01 140.848C171.851 140.69 171.772 140.503 171.772 140.287V139.73C171.772 139.586 171.811 139.451 171.89 139.325C171.969 139.199 172.074 139.103 172.207 139.034L185.957 131.79C186.333 131.597 186.732 131.5 187.153 131.5C187.575 131.5 187.975 131.597 188.356 131.79L202.066 138.993C202.212 139.081 202.327 139.194 202.413 139.333C202.498 139.472 202.541 139.631 202.541 139.81V140.164C202.541 140.431 202.456 140.652 202.287 140.825C202.118 140.999 201.901 141.085 201.637 141.085ZM185.961 134.159C183.594 135.407 184.48 138.991 187.156 138.991C189.832 138.991 190.719 135.407 188.352 134.159L187.381 133.647C187.306 133.615 187.231 133.599 187.156 133.599C187.082 133.599 187.007 133.615 186.932 133.647L185.961 134.159Z" fill="#121212"/>
<path d="M52.9961 214.687V224.585H51.2051V216.423H51.1504L48.8398 217.899V216.272L51.2871 214.687H52.9961ZM65.6289 213.442V225.802H64.1797V219.499H62.7852V225.173H61.3906V213.675H62.7852V218.282H64.1797V213.442H65.6289ZM59.9961 214.905V216.136H56.9062V221.632C58.2529 221.618 59.3604 221.55 60.6113 221.317L60.7207 222.562C59.2305 222.862 57.9316 222.903 56.209 222.917H55.375V214.905H59.9961ZM74.8711 214.222L71.6855 226.075H70.1543L73.3535 214.222H74.8711ZM79.5469 224.722C77.6191 224.708 75.6777 223.56 75.6914 219.909C75.6914 216.519 77.2363 214.55 79.6562 214.55C81.5703 214.55 82.8828 215.753 83.1016 217.353H81.3379C81.1602 216.601 80.5586 216.095 79.6562 216.095C78.2207 216.095 77.4141 217.366 77.4141 219.444H77.5098C78.0156 218.597 78.9727 218.091 80.0527 218.091C81.8301 218.091 83.1973 219.431 83.1973 221.304C83.1973 223.272 81.7344 224.735 79.5469 224.722ZM79.5469 223.286C80.6543 223.286 81.4746 222.425 81.4746 221.345C81.4746 220.292 80.668 219.444 79.5742 219.444C78.4668 219.444 77.6191 220.319 77.6055 221.358C77.6191 222.397 78.4258 223.286 79.5469 223.286ZM94.9277 213.442V225.802H93.4785V219.499H92.084V225.173H90.6895V213.675H92.084V218.282H93.4785V213.442H94.9277ZM89.2949 214.905V216.136H86.2051V221.632C87.5518 221.618 88.6592 221.55 89.9102 221.317L90.0195 222.562C88.5293 222.862 87.2305 222.903 85.5078 222.917H84.6738V214.905H89.2949Z" fill="#121212"/>
<path d="M53.8398 197.593C53.8281 198.987 55.6914 200.171 57.5078 200.44L57.168 201.167C55.5391 200.892 53.957 200.024 53.3242 198.765C52.6914 200.024 51.1035 200.892 49.5039 201.167L49.1406 200.44C50.9453 200.171 52.8086 198.987 52.8086 197.593V197.522H49.4688V196.772H57.168V197.522H53.8398V197.593ZM58.0703 202.058V202.819H53.7578V206.534H52.8555V202.819H48.5781V202.058H58.0703ZM62.418 199.515C62.418 201.179 63.5078 202.89 65.0195 203.616L64.4805 204.331C63.332 203.769 62.4238 202.632 61.9961 201.284C61.5391 202.731 60.5723 203.944 59.3828 204.519L58.8555 203.804C60.3789 203.089 61.5156 201.308 61.5273 199.515V198.683H59.1367V197.933H61.5156V196.315H62.4414V197.933H64.7852V198.683H62.418V199.515ZM67.0117 196.116V200.394H68.7578V201.179H67.0117V206.534H66.0977V196.116H67.0117ZM80.3945 196.116V200.358H82.082V201.132H80.3945V206.534H79.4805V196.116H80.3945ZM77.6992 197.241C77.6992 200.194 76.3164 202.878 72.918 204.554L72.4023 203.827C75.0977 202.485 76.5625 200.481 76.7734 198.015H72.8828V197.241H77.6992ZM91.1172 199.034V199.796H84.0039V196.327H84.918V199.034H91.1172ZM92.207 201.015V201.776H82.7031V201.015H92.207ZM87.4492 202.714C89.6875 202.714 91.0234 203.394 91.0352 204.601C91.0234 205.808 89.6875 206.487 87.4492 206.487C85.1992 206.487 83.8516 205.808 83.8516 204.601C83.8516 203.394 85.1992 202.714 87.4492 202.714ZM87.4492 203.44C85.7734 203.452 84.7773 203.862 84.7891 204.601C84.7773 205.327 85.7734 205.772 87.4492 205.772C89.1016 205.772 90.1094 205.327 90.1094 204.601C90.1094 203.862 89.1016 203.452 87.4492 203.44ZM99.4961 196.702L96.7539 206.862H95.8398L98.5703 196.702H99.4961ZM112.598 201.519V202.28H103.105V201.519H107.395V200.218H108.297V201.519H112.598ZM108.297 196.093V197.136H111.637V197.886H108.355C108.432 199.04 110.084 199.837 112.035 200.019L111.754 200.733C110.025 200.552 108.484 199.931 107.852 198.882C107.213 199.931 105.666 200.552 103.949 200.733L103.656 200.019C105.607 199.837 107.26 199.04 107.348 197.886H104.09V197.136H107.395V196.093H108.297ZM107.852 203.065C110.113 203.065 111.426 203.675 111.438 204.788C111.426 205.913 110.113 206.511 107.852 206.511C105.59 206.511 104.254 205.913 104.254 204.788C104.254 203.675 105.59 203.065 107.852 203.065ZM107.852 203.757C106.164 203.757 105.18 204.132 105.191 204.788C105.18 205.444 106.164 205.808 107.852 205.796C109.516 205.808 110.512 205.444 110.512 204.788C110.512 204.132 109.516 203.757 107.852 203.757ZM121.75 197.593C121.738 198.987 123.602 200.171 125.418 200.44L125.078 201.167C123.449 200.892 121.867 200.024 121.234 198.765C120.602 200.024 119.014 200.892 117.414 201.167L117.051 200.44C118.855 200.171 120.719 198.987 120.719 197.593V197.522H117.379V196.772H125.078V197.522H121.75V197.593ZM125.98 202.058V202.819H121.668V206.534H120.766V202.819H116.488V202.058H125.98ZM130.328 199.515C130.328 201.179 131.418 202.89 132.93 203.616L132.391 204.331C131.242 203.769 130.334 202.632 129.906 201.284C129.449 202.731 128.482 203.944 127.293 204.519L126.766 203.804C128.289 203.089 129.426 201.308 129.438 199.515V198.683H127.047V197.933H129.426V196.315H130.352V197.933H132.695V198.683H130.328V199.515ZM134.922 196.116V200.394H136.668V201.179H134.922V206.534H134.008V196.116H134.922Z" fill="#505050"/>
<rect x="0.15625" y="192.585" width="40" height="40" rx="4" fill="#EEEEEE"/>
<path d="M52.9961 278.687V288.585H51.2051V280.423H51.1504L48.8398 281.899V280.272L51.2871 278.687H52.9961ZM65.6289 277.442V289.802H64.1797V283.499H62.7852V289.173H61.3906V277.675H62.7852V282.282H64.1797V277.442H65.6289ZM59.9961 278.905V280.136H56.9062V285.632C58.2529 285.618 59.3604 285.55 60.6113 285.317L60.7207 286.562C59.2305 286.862 57.9316 286.903 56.209 286.917H55.375V278.905H59.9961Z" fill="#121212"/>
<path d="M57.4258 260.128V265.554H56.5469V260.128H57.4258ZM55.4336 260.339V265.495H54.5664V263.257H53.4414C53.2832 264.417 52.3457 265.202 51.0742 265.19C49.668 265.202 48.6836 264.253 48.6953 262.905C48.6836 261.534 49.668 260.62 51.0742 260.632C52.3223 260.62 53.2539 261.353 53.4414 262.495H54.5664V260.339H55.4336ZM57.4258 266.034V268.495H51.4492V269.655H57.8477V270.394H50.5352V267.792H56.5234V266.772H50.5117V266.034H57.4258ZM51.0742 261.347C50.1836 261.347 49.5156 262.003 49.5273 262.905C49.5156 263.808 50.1836 264.452 51.0742 264.452C51.9648 264.452 52.6211 263.808 52.6328 262.905C52.6211 262.003 51.9648 261.347 51.0742 261.347ZM67.5508 260.116V270.558H66.6367V260.116H67.5508ZM64.3867 261.089V264.792H60.4961V267.253C62.2246 267.253 63.7656 267.177 65.6289 266.878L65.7227 267.651C63.8008 267.956 62.2188 268.026 60.4258 268.026H59.5586V264.042H63.4609V261.851H59.5352V261.089H64.3867ZM70.5859 261.147V263.702H72.8594V261.147H73.7031V264.077H75.2734V260.351H76.1523V270.019H75.2734V264.851H73.7031V267.921H69.707V261.147H70.5859ZM70.5859 267.147H72.8594V264.452H70.5859V267.147ZM78.25 260.116V270.534H77.3594V260.116H78.25ZM88.2812 260.116V270.558H87.3555V260.116H88.2812ZM82.7383 260.925C84.2852 260.937 85.3984 262.343 85.3984 264.558C85.3984 266.772 84.2852 268.179 82.7383 268.179C81.1797 268.179 80.0781 266.772 80.0781 264.558C80.0781 262.343 81.1797 260.937 82.7383 260.925ZM82.7383 261.745C81.6953 261.757 80.9688 262.858 80.9688 264.558C80.9688 266.257 81.6953 267.358 82.7383 267.358C83.7812 267.358 84.5078 266.257 84.5078 264.558C84.5078 262.858 83.7812 261.757 82.7383 261.745ZM98.6992 260.116V270.558H97.7852V264.815H95.582V264.054H97.7852V260.116H98.6992ZM95.4062 261.077V261.839H91.4688V264.007H94.9492V264.757H91.4688V267.276C93.3848 267.276 94.6035 267.212 96.0391 266.96L96.1445 267.722C94.6328 267.968 93.3555 268.038 91.3398 268.038H90.543V261.077H95.4062Z" fill="#505050"/>
<rect x="0.15625" y="256.585" width="40" height="40" rx="4" fill="#EEEEEE"/>
<path d="M225.314 213.456V216.136H227.051V217.394H225.314V220.415H223.797V213.456H225.314ZM225.314 221.017V225.638H217.316V221.017H225.314ZM218.807 222.206V224.435H223.824V222.206H218.807ZM217.631 214.058V218.405C219.217 218.392 220.885 218.248 222.689 217.899L222.867 219.144C220.816 219.554 218.916 219.663 217.125 219.663H216.1V214.058H217.631ZM238.043 213.442V225.815H236.525V220.142H233.053V218.911H236.525V217.366H233.053V216.136H236.525V213.442H238.043ZM229.84 214.769V221.81C231.658 221.796 233.073 221.7 234.639 221.399L234.775 222.657C233.025 222.999 231.467 223.081 229.32 223.081H228.322V214.769H229.84ZM248.652 221.167C251.332 221.181 253.027 222.028 253.041 223.491C253.027 224.927 251.332 225.788 248.652 225.788C245.986 225.788 244.277 224.927 244.277 223.491C244.277 222.028 245.986 221.181 248.652 221.167ZM248.652 222.315C246.875 222.315 245.795 222.739 245.809 223.491C245.795 224.216 246.875 224.612 248.652 224.612C250.443 224.612 251.523 224.216 251.537 223.491C251.523 222.739 250.443 222.315 248.652 222.315ZM252.959 214.03V215.056C252.959 216.026 252.959 217.065 252.617 218.337L251.113 218.2C251.421 216.997 251.441 216.129 251.441 215.233H244.4V214.03H252.959ZM254.326 219.048V220.278H243.115V219.048H247.463V216.806H248.967V219.048H254.326ZM266.453 219.39V220.606H255.188V219.39H257.812V217.817C256.883 217.428 256.35 216.806 256.35 215.999C256.35 214.522 258.086 213.647 260.807 213.647C263.527 213.647 265.25 214.522 265.264 215.999C265.257 216.812 264.724 217.435 263.787 217.817V219.39H266.453ZM260.807 221.358C263.473 221.345 265.072 222.138 265.086 223.56C265.072 224.995 263.473 225.774 260.807 225.774C258.113 225.774 256.5 224.995 256.5 223.56C256.5 222.138 258.113 221.345 260.807 221.358ZM260.807 222.507C259.002 222.507 258.031 222.862 258.045 223.56C258.031 224.257 259.002 224.626 260.807 224.626C262.57 224.626 263.555 224.257 263.568 223.56C263.555 222.862 262.57 222.507 260.807 222.507ZM260.807 214.823C258.975 214.823 257.922 215.233 257.936 215.999C257.922 216.751 258.975 217.147 260.807 217.147C262.625 217.147 263.691 216.751 263.691 215.999C263.691 215.233 262.625 214.823 260.807 214.823ZM259.344 219.39H262.27V218.214C261.825 218.275 261.333 218.31 260.807 218.31C260.28 218.31 259.788 218.275 259.344 218.214V219.39ZM275.039 214.687V224.585H273.248V216.423H273.193L270.883 217.899V216.272L273.33 214.687H275.039ZM287.645 213.442V225.802H286.182V219.458H284.855V225.228H283.434V213.771H284.855V218.228H286.182V213.442H287.645ZM282.381 215.001C282.381 218.337 281.328 221.208 277.814 223.218L276.939 222.165C279.571 220.641 280.686 218.686 280.904 216.218H277.514V215.001H282.381Z" fill="#121212"/>
<path d="M223.664 196.116V200.558H225.328V201.331H223.664V206.534H222.738V196.116H223.664ZM215.449 203.757C216.299 203.757 217.289 203.757 218.32 203.722V202.562C217.107 202.427 216.316 201.718 216.328 200.687C216.316 199.515 217.312 198.753 218.789 198.753C220.242 198.753 221.25 199.515 221.262 200.687C221.25 201.718 220.447 202.427 219.246 202.573V203.687C220.219 203.64 221.197 203.563 222.105 203.429L222.164 204.132C219.891 204.519 217.43 204.542 215.602 204.542L215.449 203.757ZM221.918 197.394V198.144H215.637V197.394H218.32V196.14H219.246V197.394H221.918ZM218.789 199.468C217.828 199.468 217.184 199.96 217.184 200.687C217.184 201.413 217.828 201.882 218.789 201.87C219.738 201.882 220.383 201.413 220.383 200.687C220.383 199.96 219.738 199.468 218.789 199.468ZM229.477 198.097C229.477 199.456 230.496 200.675 232.031 201.179L231.598 201.905C230.396 201.513 229.488 200.681 229.043 199.632C228.592 200.827 227.631 201.759 226.383 202.21L225.914 201.472C227.473 200.944 228.562 199.597 228.574 198.097V197.651H226.195V196.89H231.82V197.651H229.477V198.097ZM234.094 196.116V198.776H235.664V199.55H234.094V202.409H233.18V196.116H234.094ZM230.754 202.69C232.898 202.69 234.188 203.394 234.188 204.589C234.188 205.808 232.898 206.511 230.754 206.511C228.609 206.511 227.297 205.808 227.297 204.589C227.297 203.394 228.609 202.69 230.754 202.69ZM230.754 203.429C229.184 203.429 228.211 203.862 228.223 204.589C228.211 205.339 229.184 205.772 230.754 205.772C232.336 205.772 233.297 205.339 233.297 204.589C233.297 203.862 232.336 203.429 230.754 203.429ZM244.91 196.116V201.519H244.008V196.116H244.91ZM244.922 202.046V204.542H239.074V205.667H245.297V206.417H238.172V203.827H244.008V202.784H238.148V202.046H244.922ZM240.012 197.218C240 198.694 241.125 199.995 242.672 200.499L242.215 201.214C240.996 200.798 240.023 199.925 239.555 198.8C239.086 200.013 238.107 200.968 236.871 201.413L236.391 200.687C237.961 200.136 239.074 198.753 239.074 197.218V196.421H240.012V197.218Z" fill="#505050"/>
<rect x="167.156" y="192.585" width="40" height="40" rx="4" fill="#EEEEEE"/>
<path d="M225.314 277.456V280.136H227.051V281.394H225.314V284.415H223.797V277.456H225.314ZM225.314 285.017V289.638H217.316V285.017H225.314ZM218.807 286.206V288.435H223.824V286.206H218.807ZM217.631 278.058V282.405C219.217 282.392 220.885 282.248 222.689 281.899L222.867 283.144C220.816 283.554 218.916 283.663 217.125 283.663H216.1V278.058H217.631ZM238.043 277.442V289.815H236.525V284.142H233.053V282.911H236.525V281.366H233.053V280.136H236.525V277.442H238.043ZM229.84 278.769V285.81C231.658 285.796 233.073 285.7 234.639 285.399L234.775 286.657C233.025 286.999 231.467 287.081 229.32 287.081H228.322V278.769H229.84ZM248.652 285.167C251.332 285.181 253.027 286.028 253.041 287.491C253.027 288.927 251.332 289.788 248.652 289.788C245.986 289.788 244.277 288.927 244.277 287.491C244.277 286.028 245.986 285.181 248.652 285.167ZM248.652 286.315C246.875 286.315 245.795 286.739 245.809 287.491C245.795 288.216 246.875 288.612 248.652 288.612C250.443 288.612 251.523 288.216 251.537 287.491C251.523 286.739 250.443 286.315 248.652 286.315ZM252.959 278.03V279.056C252.959 280.026 252.959 281.065 252.617 282.337L251.113 282.2C251.421 280.997 251.441 280.129 251.441 279.233H244.4V278.03H252.959ZM254.326 283.048V284.278H243.115V283.048H247.463V280.806H248.967V283.048H254.326ZM266.453 283.39V284.606H255.188V283.39H257.812V281.817C256.883 281.428 256.35 280.806 256.35 279.999C256.35 278.522 258.086 277.647 260.807 277.647C263.527 277.647 265.25 278.522 265.264 279.999C265.257 280.812 264.724 281.435 263.787 281.817V283.39H266.453ZM260.807 285.358C263.473 285.345 265.072 286.138 265.086 287.56C265.072 288.995 263.473 289.774 260.807 289.774C258.113 289.774 256.5 288.995 256.5 287.56C256.5 286.138 258.113 285.345 260.807 285.358ZM260.807 286.507C259.002 286.507 258.031 286.862 258.045 287.56C258.031 288.257 259.002 288.626 260.807 288.626C262.57 288.626 263.555 288.257 263.568 287.56C263.555 286.862 262.57 286.507 260.807 286.507ZM260.807 278.823C258.975 278.823 257.922 279.233 257.936 279.999C257.922 280.751 258.975 281.147 260.807 281.147C262.625 281.147 263.691 280.751 263.691 279.999C263.691 279.233 262.625 278.823 260.807 278.823ZM259.344 283.39H262.27V282.214C261.825 282.275 261.333 282.31 260.807 282.31C260.28 282.31 259.788 282.275 259.344 282.214V283.39ZM275.039 278.687V288.585H273.248V280.423H273.193L270.883 281.899V280.272L273.33 278.687H275.039ZM287.645 277.442V289.802H286.182V283.458H284.855V289.228H283.434V277.771H284.855V282.228H286.182V277.442H287.645ZM282.381 279.001C282.381 282.337 281.328 285.208 277.814 287.218L276.939 286.165C279.571 284.641 280.686 282.686 280.904 280.218H277.514V279.001H282.381Z" fill="#121212"/>
<path d="M224.18 260.128V267.745H223.266V260.128H224.18ZM224.508 269.538V270.312H217.453V266.972H218.367V269.538H224.508ZM218.555 260.854C220.113 260.854 221.285 261.909 221.285 263.409C221.285 264.933 220.113 265.976 218.555 265.976C216.996 265.976 215.824 264.933 215.824 263.409C215.824 261.909 216.996 260.854 218.555 260.854ZM218.555 261.663C217.5 261.663 216.715 262.39 216.727 263.409C216.715 264.452 217.5 265.167 218.555 265.167C219.586 265.167 220.383 264.452 220.383 263.409C220.383 262.39 219.586 261.663 218.555 261.663ZM230.238 261.394V262.132H227.238V264.194H229.758V264.933H227.238V267.276C228.732 267.259 229.646 267.206 230.777 266.995L230.859 267.745C229.652 267.991 228.668 268.015 227.016 268.026H226.359V261.394H230.238ZM234.867 260.116V270.534H233.977V260.116H234.867ZM232.734 260.374V269.995H231.855V264.839H230.32V264.077H231.855V260.374H232.734ZM244.922 260.116V270.558H244.008V260.116H244.922ZM241.758 261.089V264.792H237.867V267.253C239.596 267.253 241.137 267.177 243 266.878L243.094 267.651C241.172 267.956 239.59 268.026 237.797 268.026H236.93V264.042H240.832V261.851H236.906V261.089H241.758ZM249.492 260.925C250.91 260.937 251.93 262.149 252.082 264.101H254.414V260.116H255.328V270.558H254.414V264.862H252.094C251.982 266.901 250.945 268.179 249.492 268.179C247.957 268.179 246.879 266.772 246.879 264.558C246.879 262.343 247.957 260.937 249.492 260.925ZM249.492 261.745C248.461 261.757 247.758 262.858 247.758 264.558C247.758 266.257 248.461 267.358 249.492 267.358C250.512 267.358 251.227 266.257 251.227 264.558C251.227 262.858 250.512 261.757 249.492 261.745Z" fill="#505050"/>
<rect x="167.156" y="256.585" width="40" height="40" rx="4" fill="#EEEEEE"/>
<mask id="mask0_794_3273" style="mask-type:alpha" maskUnits="userSpaceOnUse" x="0" y="0" width="41" height="41">
<rect x="0.15625" y="0.584961" width="40" height="40" fill="#D9D9D9"/>
</mask>
<g mask="url(#mask0_794_3273)">
<path d="M34.748 18.8703V32.562C34.748 33.2781 34.4927 33.8915 33.9822 34.4024C33.4713 34.9132 32.8577 35.1686 32.1413 35.1686H8.1605C7.44411 35.1686 6.83064 34.9132 6.32008 34.4024C5.80925 33.8915 5.55383 33.2781 5.55383 32.562V18.8245C4.81883 18.232 4.30828 17.4829 4.02217 16.5774C3.73633 15.6718 3.7455 14.7357 4.04967 13.769L5.75425 8.28154C5.97536 7.56098 6.34744 7.00098 6.8705 6.60154C7.39356 6.20181 8.01869 6.00195 8.74592 6.00195H31.4447C32.1922 6.00195 32.8359 6.19973 33.3759 6.59529C33.9162 6.99112 34.2968 7.54195 34.5176 8.24779L36.2801 13.769C36.5842 14.7357 36.5887 15.6743 36.2934 16.5849C35.9984 17.4954 35.4833 18.2572 34.748 18.8703ZM23.8659 17.8715C24.8059 17.8715 25.5447 17.5886 26.0822 17.0228C26.6194 16.457 26.8406 15.8282 26.7459 15.1365L25.6713 8.09612H21.2118V15.0232C21.2118 15.7954 21.4674 16.4632 21.9788 17.0265C22.4899 17.5899 23.119 17.8715 23.8659 17.8715ZM16.2247 17.8715C17.053 17.8715 17.7423 17.5933 18.2926 17.037C18.8429 16.4806 19.118 15.8093 19.118 15.0232V8.09612H14.6476L13.573 15.2007C13.4833 15.821 13.6927 16.4213 14.2013 17.0015C14.7097 17.5815 15.3841 17.8715 16.2247 17.8715ZM8.72883 17.8715C9.41467 17.8715 10.0115 17.6328 10.5193 17.1553C11.0273 16.6778 11.3301 16.0868 11.4276 15.3824L12.4876 8.09612H8.50883C8.32717 8.09612 8.18119 8.13612 8.07092 8.21612C7.96036 8.2964 7.88203 8.41654 7.83592 8.57654L6.10925 14.2478C5.83647 15.1031 5.9505 15.9208 6.45133 16.7011C6.95189 17.4814 7.71106 17.8715 8.72883 17.8715ZM31.573 17.8715C32.5161 17.8715 33.2636 17.4968 33.8155 16.7474C34.3674 15.9976 34.4988 15.1645 34.2097 14.2478L32.4447 8.54487C32.3986 8.38459 32.3202 8.26973 32.2097 8.20029C32.0994 8.13084 31.9534 8.09612 31.7718 8.09612H27.8313L28.8913 15.3824C28.9961 16.0868 29.2972 16.6778 29.7947 17.1553C30.2922 17.6328 30.8849 17.8715 31.573 17.8715ZM8.1605 33.0745H32.1413C32.2838 33.0745 32.4049 33.0264 32.5047 32.9303C32.6044 32.8342 32.6543 32.7114 32.6543 32.562V19.8353C32.5481 19.89 32.3947 19.9254 32.1938 19.9415C31.993 19.9576 31.7861 19.9657 31.573 19.9657C30.853 19.9657 30.1951 19.8196 29.5993 19.5274C29.0034 19.2354 28.4234 18.7754 27.8593 18.1474C27.4143 18.6985 26.8666 19.1393 26.2163 19.4699C25.5661 19.8004 24.8113 19.9657 23.9522 19.9657C23.203 19.9657 22.5286 19.8274 21.9288 19.5507C21.3291 19.2738 20.7412 18.8472 20.1651 18.2711C19.6729 18.8245 19.098 19.2453 18.4405 19.5336C17.783 19.8217 17.0993 19.9657 16.3893 19.9657C15.6056 19.9657 14.8823 19.8238 14.2193 19.5399C13.5562 19.256 12.984 18.7918 12.5026 18.1474C11.7604 18.8482 11.0761 19.3264 10.4497 19.582C9.82328 19.8378 9.24967 19.9657 8.72883 19.9657C8.52439 19.9657 8.32703 19.9576 8.13675 19.9415C7.94675 19.9254 7.78369 19.89 7.64758 19.8353V32.562C7.64758 32.7114 7.69744 32.8342 7.79717 32.9303C7.89689 33.0264 8.018 33.0745 8.1605 33.0745ZM14.2055 30.5853H17.5388C17.7397 30.5853 17.9099 30.5154 18.0497 30.3757C18.1891 30.236 18.2588 30.0693 18.2588 29.8757C18.2588 29.6824 18.1879 29.514 18.0459 29.3707C17.9043 29.2274 17.7352 29.1557 17.5388 29.1557H14.9255V27.1728H17.5368C17.739 27.1728 17.9099 27.1011 18.0497 26.9578C18.1891 26.8145 18.2588 26.6497 18.2588 26.4636V23.1303C18.2588 22.9295 18.1879 22.7592 18.0459 22.6195C17.9043 22.48 17.7352 22.4103 17.5388 22.4103H14.2055C14.0047 22.4103 13.8344 22.4811 13.6947 22.6228C13.5552 22.7647 13.4855 22.9339 13.4855 23.1303C13.4855 23.3164 13.5565 23.4811 13.6984 23.6245C13.8401 23.7678 14.0091 23.8395 14.2055 23.8395H16.8188V25.7436H14.2076C14.0054 25.7436 13.8344 25.8145 13.6947 25.9561C13.5552 26.0981 13.4855 26.2672 13.4855 26.4636V29.8686C13.4855 30.0745 13.5565 30.2453 13.6984 30.3811C13.8401 30.5172 14.0091 30.5853 14.2055 30.5853ZM25.4043 27.1728V29.8795C25.4043 30.0706 25.4752 30.236 25.6172 30.3757C25.7588 30.5154 25.9279 30.5853 26.1243 30.5853C26.3106 30.5853 26.4755 30.5157 26.6188 30.3765C26.7622 30.2376 26.8338 30.072 26.8338 29.8795V23.134C26.8338 22.9307 26.764 22.7592 26.6243 22.6195C26.4843 22.48 26.3176 22.4103 26.1243 22.4103C25.9309 22.4103 25.7626 22.4811 25.6193 22.6228C25.4759 22.7647 25.4043 22.9339 25.4043 23.1303V25.7436H23.5005V23.1324C23.5005 22.9301 23.4306 22.7592 23.2909 22.6195C23.1509 22.48 22.9842 22.4103 22.7909 22.4103C22.5976 22.4103 22.4293 22.4811 22.2859 22.6228C22.1426 22.7647 22.0709 22.9339 22.0709 23.1303V26.4636C22.0709 26.6572 22.1419 26.8239 22.2838 26.9636C22.4255 27.1031 22.5945 27.1728 22.7909 27.1728H25.4043Z" fill="#121212"/>
</g>
<mask id="mask1_794_3273" style="mask-type:alpha" maskUnits="userSpaceOnUse" x="167" y="192" width="41" height="41">
<rect x="167.156" y="192.585" width="40" height="40" fill="#D9D9D9"/>
</mask>
<g mask="url(#mask1_794_3273)">
<path d="M195.143 213.875V217.788C195.143 218.09 195.044 218.34 194.846 218.538C194.648 218.736 194.398 218.835 194.096 218.835C193.794 218.835 193.544 218.736 193.346 218.538C193.148 218.34 193.05 218.09 193.05 217.788V214.418L191.127 210.873C190.594 210.928 190.15 211.158 189.797 211.564C189.444 211.97 189.267 212.442 189.267 212.98V222.087L192.152 226.842C192.369 227.195 192.375 227.545 192.168 227.894C191.962 228.243 191.655 228.418 191.248 228.418C191.058 228.418 190.884 228.375 190.725 228.289C190.565 228.202 190.438 228.078 190.342 227.915L187.173 222.681V212.98C187.173 212.056 187.442 211.227 187.98 210.495C188.518 209.763 189.221 209.261 190.09 208.988L187.345 203.899C186.833 202.925 186.609 201.899 186.673 200.82C186.738 199.741 187.149 198.823 187.907 198.065L189.249 196.716C189.515 196.45 189.844 196.322 190.237 196.33C190.631 196.339 190.943 196.495 191.175 196.799L200.793 208.148C200.964 208.363 201.105 208.592 201.217 208.832C201.328 209.072 201.398 209.331 201.425 209.608L202.916 227.278C202.942 227.591 202.852 227.86 202.646 228.083C202.44 228.306 202.18 228.418 201.867 228.418C201.592 228.418 201.358 228.325 201.162 228.138C200.967 227.951 200.853 227.721 200.82 227.447L199.287 209.583L190.147 198.784L189.407 199.54C189.013 199.934 188.778 200.402 188.703 200.942C188.628 201.482 188.718 201.994 188.972 202.477L195.143 213.875ZM179.186 213.875L185.357 202.477C185.618 201.994 185.71 201.482 185.632 200.942C185.553 200.402 185.317 199.934 184.922 199.54L184.194 198.784L175.042 209.583L173.51 227.445C173.476 227.726 173.362 227.959 173.167 228.142C172.972 228.326 172.737 228.418 172.463 228.418C172.15 228.418 171.89 228.306 171.684 228.083C171.477 227.86 171.391 227.591 171.425 227.278L172.916 209.608C172.944 209.331 173.009 209.072 173.111 208.832C173.213 208.592 173.353 208.363 173.531 208.148L183.154 196.799C183.393 196.495 183.706 196.339 184.094 196.33C184.481 196.322 184.807 196.45 185.073 196.716L186.422 198.065C187.18 198.823 187.591 199.741 187.656 200.82C187.721 201.899 187.497 202.925 186.984 203.899L184.223 208.988C185.092 209.261 185.799 209.763 186.342 210.495C186.885 211.227 187.156 212.056 187.156 212.98V222.681L183.987 227.915C183.892 228.078 183.765 228.202 183.606 228.289C183.447 228.375 183.273 228.418 183.084 228.418C182.688 228.418 182.388 228.243 182.185 227.894C181.981 227.545 181.988 227.195 182.205 226.842L185.062 222.087V212.98C185.062 212.442 184.886 211.97 184.532 211.564C184.179 211.158 183.736 210.928 183.202 210.873L181.28 214.418V217.788C181.28 218.09 181.181 218.34 180.983 218.538C180.785 218.736 180.535 218.835 180.233 218.835C179.931 218.835 179.681 218.736 179.483 218.538C179.285 218.34 179.186 218.09 179.186 217.788V213.875Z" fill="#121212"/>
</g>
<mask id="mask2_794_3273" style="mask-type:alpha" maskUnits="userSpaceOnUse" x="167" y="256" width="41" height="41">
<rect x="167.156" y="256.585" width="40" height="40" fill="#D9D9D9"/>
</mask>
<g mask="url(#mask2_794_3273)">
<path d="M195.143 277.875V281.788C195.143 282.09 195.044 282.34 194.846 282.538C194.648 282.736 194.398 282.835 194.096 282.835C193.794 282.835 193.544 282.736 193.346 282.538C193.148 282.34 193.05 282.09 193.05 281.788V278.418L191.127 274.873C190.594 274.928 190.15 275.158 189.797 275.564C189.444 275.97 189.267 276.442 189.267 276.98V286.087L192.152 290.842C192.369 291.195 192.375 291.545 192.168 291.894C191.962 292.243 191.655 292.418 191.248 292.418C191.058 292.418 190.884 292.375 190.725 292.289C190.565 292.202 190.438 292.078 190.342 291.915L187.173 286.681V276.98C187.173 276.056 187.442 275.227 187.98 274.495C188.518 273.763 189.221 273.261 190.09 272.988L187.345 267.899C186.833 266.925 186.609 265.899 186.673 264.82C186.738 263.741 187.149 262.823 187.907 262.065L189.249 260.716C189.515 260.45 189.844 260.322 190.237 260.33C190.631 260.339 190.943 260.495 191.175 260.799L200.793 272.148C200.964 272.363 201.105 272.592 201.217 272.832C201.328 273.072 201.398 273.331 201.425 273.608L202.916 291.278C202.942 291.591 202.852 291.86 202.646 292.083C202.44 292.306 202.18 292.418 201.867 292.418C201.592 292.418 201.358 292.325 201.162 292.138C200.967 291.951 200.853 291.721 200.82 291.447L199.287 273.583L190.147 262.784L189.407 263.54C189.013 263.934 188.778 264.402 188.703 264.942C188.628 265.482 188.718 265.994 188.972 266.477L195.143 277.875ZM179.186 277.875L185.357 266.477C185.618 265.994 185.71 265.482 185.632 264.942C185.553 264.402 185.317 263.934 184.922 263.54L184.194 262.784L175.042 273.583L173.51 291.445C173.476 291.726 173.362 291.959 173.167 292.142C172.972 292.326 172.737 292.418 172.463 292.418C172.15 292.418 171.89 292.306 171.684 292.083C171.477 291.86 171.391 291.591 171.425 291.278L172.916 273.608C172.944 273.331 173.009 273.072 173.111 272.832C173.213 272.592 173.353 272.363 173.531 272.148L183.154 260.799C183.393 260.495 183.706 260.339 184.094 260.33C184.481 260.322 184.807 260.45 185.073 260.716L186.422 262.065C187.18 262.823 187.591 263.741 187.656 264.82C187.721 265.899 187.497 266.925 186.984 267.899L184.223 272.988C185.092 273.261 185.799 273.763 186.342 274.495C186.885 275.227 187.156 276.056 187.156 276.98V286.681L183.987 291.915C183.892 292.078 183.765 292.202 183.606 292.289C183.447 292.375 183.273 292.418 183.084 292.418C182.688 292.418 182.388 292.243 182.185 291.894C181.981 291.545 181.988 291.195 182.205 290.842L185.062 286.087V276.98C185.062 276.442 184.886 275.97 184.532 275.564C184.179 275.158 183.736 274.928 183.202 274.873L181.28 278.418V281.788C181.28 282.09 181.181 282.34 180.983 282.538C180.785 282.736 180.535 282.835 180.233 282.835C179.931 282.835 179.681 282.736 179.483 282.538C179.285 282.34 179.186 282.09 179.186 281.788V277.875Z" fill="#121212"/>
</g>
<mask id="mask3_794_3273" style="mask-type:alpha" maskUnits="userSpaceOnUse" x="0" y="128" width="41" height="41">
<rect x="0.15625" y="128.585" width="40" height="40" fill="#D9D9D9"/>
</mask>
<g mask="url(#mask3_794_3273)">
<path d="M9.98756 156.667V145.06C9.98756 144.763 10.0884 144.514 10.2901 144.314C10.492 144.113 10.742 144.012 11.0401 144.012C11.3384 144.012 11.5866 144.113 11.7846 144.314C11.9827 144.514 12.0817 144.763 12.0817 145.06V156.667C12.0817 156.963 11.9808 157.212 11.7788 157.413C11.5771 157.613 11.3271 157.714 11.0288 157.714C10.7308 157.714 10.4827 157.613 10.2846 157.413C10.0866 157.212 9.98756 156.963 9.98756 156.667ZM19.1884 156.667V145.06C19.1884 144.763 19.2892 144.514 19.4909 144.314C19.6928 144.113 19.9428 144.012 20.2409 144.012C20.5392 144.012 20.7874 144.113 20.9855 144.314C21.1833 144.514 21.2821 144.763 21.2821 145.06V156.667C21.2821 156.963 21.1813 157.212 20.9796 157.413C20.778 157.613 20.528 157.714 20.2296 157.714C19.9316 157.714 19.6835 157.613 19.4855 157.413C19.2874 157.212 19.1884 156.963 19.1884 156.667ZM5.81881 162.735C5.52215 162.735 5.27353 162.634 5.07298 162.433C4.87215 162.231 4.77173 161.981 4.77173 161.683C4.77173 161.384 4.87215 161.136 5.07298 160.938C5.27353 160.74 5.52215 160.641 5.81881 160.641H34.4938C34.7905 160.641 35.0391 160.742 35.2396 160.944C35.4405 161.145 35.5409 161.395 35.5409 161.694C35.5409 161.992 35.4405 162.24 35.2396 162.438C35.0391 162.636 34.7905 162.735 34.4938 162.735H5.81881ZM28.2309 156.667V145.06C28.2309 144.763 28.3319 144.514 28.5338 144.314C28.7355 144.113 28.9855 144.012 29.2838 144.012C29.5819 144.012 29.8299 144.113 30.028 144.314C30.226 144.514 30.3251 144.763 30.3251 145.06V156.667C30.3251 156.963 30.2242 157.212 30.0226 157.413C29.8206 157.613 29.5706 157.714 29.2726 157.714C28.9742 157.714 28.726 157.613 28.528 157.413C28.3299 157.212 28.2309 156.963 28.2309 156.667ZM34.6371 141.085H5.57423C5.35673 141.085 5.16853 141.006 5.00965 140.848C4.85103 140.69 4.77173 140.503 4.77173 140.287V139.73C4.77173 139.586 4.81117 139.451 4.89006 139.325C4.96867 139.199 5.07423 139.103 5.20673 139.034L18.9567 131.79C19.3334 131.597 19.7323 131.5 20.1534 131.5C20.5745 131.5 20.9753 131.597 21.3559 131.79L35.0663 138.993C35.2116 139.081 35.327 139.194 35.4126 139.333C35.4981 139.472 35.5409 139.631 35.5409 139.81V140.164C35.5409 140.431 35.4563 140.652 35.2871 140.825C35.1177 140.999 34.901 141.085 34.6371 141.085ZM9.7909 138.991H30.5217L20.3809 133.647C20.3059 133.615 20.231 133.599 20.1563 133.599C20.0816 133.599 20.0067 133.615 19.9317 133.647L9.7909 138.991Z" fill="#121212"/>
</g>
<mask id="mask4_794_3273" style="mask-type:alpha" maskUnits="userSpaceOnUse" x="167" y="64" width="41" height="41">
<rect x="167.156" y="64.585" width="40" height="40" fill="#D9D9D9"/>
</mask>
<g mask="url(#mask4_794_3273)">
<path d="M171.099 96.7533V71.8387C171.099 71.2529 171.306 70.7521 171.722 70.3362C172.138 69.9207 172.639 69.7129 173.224 69.7129H184.603C185.189 69.7129 185.689 69.9207 186.105 70.3362C186.521 70.7521 186.729 71.2529 186.729 71.8387V76.4754H201.088C201.674 76.4754 202.174 76.6833 202.59 77.0991C203.006 77.515 203.214 78.0158 203.214 78.6016V96.7533C203.214 97.3391 203.006 97.84 202.59 98.2558C202.174 98.6716 201.674 98.8796 201.088 98.8796H173.224C172.639 98.8796 172.138 98.6716 171.722 98.2558C171.306 97.84 171.099 97.3391 171.099 96.7533ZM173.192 96.7854H177.872V92.1058H173.192V96.7854ZM173.192 90.0121H177.872V85.3429H173.192V90.0121ZM173.192 83.2491H177.872V78.5696H173.192V83.2491ZM173.192 76.4754H177.872V71.8066H173.192V76.4754ZM179.966 96.7854H184.635V92.1058H179.966V96.7854ZM179.966 90.0121H184.635V85.3429H179.966V90.0121ZM179.966 83.2491H184.635V78.5696H179.966V83.2491ZM179.966 76.4754H184.635V71.8066H179.966V76.4754ZM186.729 96.7854H201.12V78.5696H186.729V83.2491H190.383V85.3429H186.729V90.0121H190.383V92.1058H186.729V96.7854ZM194.549 85.3429V83.2491H196.643V85.3429H194.549ZM194.549 92.1058V90.0121H196.643V92.1058H194.549Z" fill="#121212"/>
</g>
<path d="M7.65622 80.9297L5.13497 82.8839C4.89553 83.0675 4.63859 83.1369 4.36414 83.0922C4.08942 83.0472 3.86025 82.9065 3.67664 82.6701C3.49275 82.4338 3.42122 82.1765 3.46206 81.8985C3.50289 81.6204 3.64206 81.3897 3.87956 81.2064L18.5716 69.9789C18.8147 69.8081 19.0703 69.6753 19.3383 69.5806C19.6061 69.4858 19.8794 69.4385 20.1583 69.4385C20.4369 69.4385 20.7098 69.4858 20.9771 69.5806C21.244 69.6753 21.4986 69.8081 21.7408 69.9789L36.4583 81.2343C36.6928 81.4182 36.8269 81.6486 36.8608 81.9256C36.8947 82.2025 36.8197 82.4564 36.6358 82.6872C36.4522 82.9181 36.2261 83.0531 35.9575 83.0922C35.6889 83.1314 35.4375 83.059 35.2033 82.8751L20.1562 71.4043L9.75039 79.3389V94.4776C9.75039 94.6274 9.79845 94.7503 9.89456 94.8464C9.99067 94.9425 10.1136 94.9906 10.2633 94.9906H17.6404C17.9368 94.9906 18.1854 95.0915 18.3862 95.2935C18.5868 95.4951 18.6871 95.7451 18.6871 96.0435C18.6871 96.3415 18.5868 96.5896 18.3862 96.7876C18.1854 96.9857 17.9368 97.0847 17.6404 97.0847H10.2633C9.55192 97.0847 8.93956 96.8281 8.42622 96.3147C7.91289 95.8014 7.65622 95.189 7.65622 94.4776V80.9297ZM23.5108 102.693C23.2239 102.693 22.9865 102.6 22.7987 102.412C22.6112 102.225 22.5175 101.988 22.5175 101.701C22.5175 101.414 22.6112 101.177 22.7987 100.988C22.9865 100.8 23.2239 100.706 23.5108 100.706H25.245C24.4266 99.935 23.7675 99.0226 23.2675 97.9693C22.7675 96.916 22.5175 95.7985 22.5175 94.6168C22.5175 92.9757 22.9571 91.4944 23.8362 90.1731C24.7154 88.8514 25.873 87.8764 27.3091 87.2481C27.5611 87.1306 27.795 87.1279 28.0108 87.2401C28.2266 87.3524 28.388 87.5292 28.495 87.7706C28.6016 88.0119 28.6129 88.2604 28.5287 88.516C28.4443 88.7713 28.2364 88.9832 27.905 89.1518C26.8903 89.6454 26.0698 90.3789 25.4437 91.3522C24.8176 92.3256 24.5046 93.4138 24.5046 94.6168C24.5046 95.5293 24.7011 96.3915 25.0941 97.2035C25.4875 98.0154 26.0175 98.7226 26.6841 99.3251V97.5335C26.6841 97.2465 26.7779 97.0092 26.9654 96.8214C27.1529 96.6336 27.39 96.5397 27.6766 96.5397C27.9636 96.5397 28.2011 96.6336 28.3891 96.8214C28.5772 97.0092 28.6712 97.2465 28.6712 97.5335V101.39C28.6712 101.76 28.5464 102.069 28.2966 102.319C28.0466 102.569 27.7371 102.693 27.3679 102.693H23.5108ZM33.3066 101.985C33.0547 102.103 32.8165 102.103 32.5921 101.985C32.3676 101.868 32.2021 101.688 32.0954 101.447C31.9884 101.205 31.9772 100.957 32.0616 100.702C32.1461 100.447 32.3539 100.234 32.685 100.066C33.7108 99.5442 34.534 98.8011 35.1546 97.8364C35.7754 96.8717 36.0858 95.7985 36.0858 94.6168C36.0858 93.7043 35.8891 92.8421 35.4958 92.0301C35.1028 91.2182 34.5729 90.511 33.9062 89.9085V91.7001C33.9062 91.9871 33.8125 92.2244 33.625 92.4122C33.4375 92.5997 33.2003 92.6935 32.9133 92.6935C32.6266 92.6935 32.3893 92.5997 32.2012 92.4122C32.0132 92.2244 31.9191 91.9871 31.9191 91.7001V87.8435C31.9191 87.474 32.044 87.1644 32.2937 86.9147C32.5434 86.6647 32.853 86.5397 33.2225 86.5397H37.0791C37.3664 86.5397 37.6037 86.6335 37.7912 86.821C37.979 87.0088 38.0729 87.246 38.0729 87.5326C38.0729 87.8196 37.979 88.0571 37.7912 88.2451C37.6037 88.4329 37.3664 88.5268 37.0791 88.5268H35.3454C36.1637 89.2982 36.8229 90.2107 37.3229 91.2643C37.8229 92.3176 38.0729 93.4351 38.0729 94.6168C38.0729 96.2579 37.6333 97.7392 36.7541 99.0606C35.8747 100.382 34.7255 101.357 33.3066 101.985Z" fill="#121212"/>
<mask id="mask5_794_3273" style="mask-type:alpha" maskUnits="userSpaceOnUse" x="0" y="64" width="41" height="41">
<rect x="0.15625" y="64.585" width="40" height="40" fill="#D9D9D9"/>
</mask>
<g mask="url(#mask5_794_3273)">
</g>
<mask id="mask6_794_3273" style="mask-type:alpha" maskUnits="userSpaceOnUse" x="167" y="0" width="41" height="41">
<rect x="167.156" y="0.584961" width="40" height="40" fill="#D9D9D9"/>
</mask>
<g mask="url(#mask6_794_3273)">
<path d="M183.823 30.585H185.49V23.9183C186.184 23.9183 186.774 23.6752 187.26 23.1891C187.746 22.703 187.99 22.1127 187.99 21.4183V16.4183H186.323V21.4183H185.49V16.4183H183.823V21.4183H182.99V16.4183H181.323V21.4183C181.323 22.1127 181.566 22.703 182.052 23.1891C182.538 23.6752 183.128 23.9183 183.823 23.9183V30.585ZM190.49 30.585H192.156V16.4183C191.24 16.4183 190.455 16.7447 189.802 17.3975C189.149 18.0502 188.823 18.835 188.823 19.7516V24.7516H190.49V30.585ZM173.823 35.585V15.585L187.156 5.58496L200.49 15.585V35.585H173.823ZM176.601 32.807H197.712V16.8629L187.156 9.11288L176.601 16.8629V32.807Z" fill="#121212"/>
</g>
<mask id="mask7_794_3273" style="mask-type:alpha" maskUnits="userSpaceOnUse" x="0" y="192" width="41" height="41">
<rect x="0.15625" y="192.585" width="40" height="40" fill="#D9D9D9"/>
</mask>
<g mask="url(#mask7_794_3273)">
<path d="M17.1841 228.279V218.807L19.5449 211.918C19.6283 211.687 19.7695 211.49 19.9687 211.328C20.1678 211.166 20.4341 211.085 20.7674 211.085H33.2395C33.5728 211.085 33.8367 211.161 34.0312 211.314C34.2256 211.467 34.3691 211.668 34.4616 211.918L36.8228 218.807V228.279C36.8228 228.553 36.7294 228.784 36.5424 228.971C36.3555 229.158 36.1249 229.251 35.8508 229.251H34.8437C34.5798 229.251 34.353 229.158 34.1633 228.971C33.9733 228.784 33.8783 228.553 33.8783 228.279V226.557H20.1283V228.279C20.1283 228.553 20.0348 228.784 19.8478 228.971C19.6609 229.158 19.4303 229.251 19.1562 229.251H18.1491C17.8852 229.251 17.6584 229.158 17.4687 228.971C17.2789 228.784 17.1841 228.553 17.1841 228.279ZM19.7674 217.335H34.2395L32.7949 213.029H21.2116L19.7674 217.335ZM21.8228 223.613C22.2873 223.613 22.6766 223.455 22.9908 223.141C23.3046 222.827 23.4616 222.438 23.4616 221.973C23.4616 221.509 23.3046 221.12 22.9908 220.806C22.6766 220.492 22.2873 220.335 21.8228 220.335C21.3584 220.335 20.9692 220.492 20.6553 220.806C20.3412 221.12 20.1841 221.509 20.1841 221.973C20.1841 222.438 20.3412 222.827 20.6553 223.141C20.9692 223.455 21.3584 223.613 21.8228 223.613ZM32.1841 223.613C32.6483 223.613 33.0374 223.455 33.3516 223.141C33.6658 222.827 33.8228 222.438 33.8228 221.973C33.8228 221.509 33.6658 221.12 33.3516 220.806C33.0374 220.492 32.6483 220.335 32.1841 220.335C31.7196 220.335 31.3303 220.492 31.0162 220.806C30.702 221.12 30.5449 221.509 30.5449 221.973C30.5449 222.438 30.702 222.827 31.0162 223.141C31.3303 223.455 31.7196 223.613 32.1841 223.613ZM10.1562 216.251V213.113H13.2949V216.251H10.1562ZM18.6841 205.723V202.585H21.8228V205.723H18.6841ZM10.1562 222.751V219.613H13.2949V222.751H10.1562ZM10.1562 229.251V226.113H13.2949V229.251H10.1562ZM3.4895 229.251V206.446H12.0174V195.918H28.4895V207.029H25.7116V198.696H14.7949V209.223H6.26742V229.251H3.4895ZM19.1283 224.613H34.8783V219.279H19.1283V224.613Z" fill="#121212"/>
</g>
<mask id="mask8_794_3273" style="mask-type:alpha" maskUnits="userSpaceOnUse" x="0" y="256" width="41" height="41">
<rect x="0.15625" y="256.585" width="40" height="40" fill="#D9D9D9"/>
</mask>
<g mask="url(#mask8_794_3273)">
<path d="M17.1841 292.279V282.807L19.5449 275.918C19.6283 275.687 19.7695 275.49 19.9687 275.328C20.1678 275.166 20.4341 275.085 20.7674 275.085H33.2395C33.5728 275.085 33.8367 275.161 34.0312 275.314C34.2256 275.467 34.3691 275.668 34.4616 275.918L36.8228 282.807V292.279C36.8228 292.553 36.7294 292.784 36.5424 292.971C36.3555 293.158 36.1249 293.251 35.8508 293.251H34.8437C34.5798 293.251 34.353 293.158 34.1633 292.971C33.9733 292.784 33.8783 292.553 33.8783 292.279V290.557H20.1283V292.279C20.1283 292.553 20.0348 292.784 19.8478 292.971C19.6609 293.158 19.4303 293.251 19.1562 293.251H18.1491C17.8852 293.251 17.6584 293.158 17.4687 292.971C17.2789 292.784 17.1841 292.553 17.1841 292.279ZM19.7674 281.335H34.2395L32.7949 277.029H21.2116L19.7674 281.335ZM21.8228 287.613C22.2873 287.613 22.6766 287.455 22.9908 287.141C23.3046 286.827 23.4616 286.438 23.4616 285.973C23.4616 285.509 23.3046 285.12 22.9908 284.806C22.6766 284.492 22.2873 284.335 21.8228 284.335C21.3584 284.335 20.9692 284.492 20.6553 284.806C20.3412 285.12 20.1841 285.509 20.1841 285.973C20.1841 286.438 20.3412 286.827 20.6553 287.141C20.9692 287.455 21.3584 287.613 21.8228 287.613ZM32.1841 287.613C32.6483 287.613 33.0374 287.455 33.3516 287.141C33.6658 286.827 33.8228 286.438 33.8228 285.973C33.8228 285.509 33.6658 285.12 33.3516 284.806C33.0374 284.492 32.6483 284.335 32.1841 284.335C31.7196 284.335 31.3303 284.492 31.0162 284.806C30.702 285.12 30.5449 285.509 30.5449 285.973C30.5449 286.438 30.702 286.827 31.0162 287.141C31.3303 287.455 31.7196 287.613 32.1841 287.613ZM10.1562 280.251V277.113H13.2949V280.251H10.1562ZM18.6841 269.723V266.585H21.8228V269.723H18.6841ZM10.1562 286.751V283.613H13.2949V286.751H10.1562ZM10.1562 293.251V290.113H13.2949V293.251H10.1562ZM3.4895 293.251V270.446H12.0174V259.918H28.4895V271.029H25.7116V262.696H14.7949V273.223H6.26742V293.251H3.4895ZM19.1283 288.613H34.8783V283.279H19.1283V288.613Z" fill="#121212"/>
</g>
</svg>
