<svg width="36" height="36" viewBox="0 0 36 36" fill="none" xmlns="http://www.w3.org/2000/svg">
<rect x="0.15625" y="0.584961" width="35.0143" height="35.0143" rx="17.5072" fill="#5E3AA1"/>
<rect x="0.15625" y="0.543945" width="35.0143" height="35.0143" rx="17.5072" fill="url(#paint0_linear_819_263)"/>
<path d="M8.91003 22.0434C8.91003 17.6033 12.5094 14.0039 16.9495 14.0039V26.6815C16.9495 28.9015 15.1498 30.7012 12.9298 30.7012C10.7097 30.7012 8.91003 28.9015 8.91003 26.6815V22.0434Z" fill="white"/>
<path d="M18.8048 5.34668C23.2449 5.34668 26.8443 8.94606 26.8443 13.3861H18.8048V5.34668Z" fill="white"/>
<path d="M8.91003 9.36641C8.91003 7.14637 10.7097 5.34668 12.9298 5.34668H18.8047V13.3861H12.9298C10.7097 13.3861 8.91003 11.5864 8.91003 9.36641Z" fill="white"/>
<path d="M26.8441 14.0039C26.8441 18.444 23.2447 22.0434 18.8047 22.0434L17.5678 22.0434L17.5678 14.0039L26.8441 14.0039Z" fill="white"/>
<path d="M17.5677 22.6611H21.5875C23.8075 22.6611 25.6072 24.4608 25.6072 26.6809C25.6072 28.9009 23.8075 30.7006 21.5875 30.7006C19.3674 30.7006 17.5677 28.9009 17.5677 26.6809V22.6611Z" fill="white"/>
<circle cx="21.5876" cy="26.6804" r="1.56323" fill="#AC53EC"/>
<defs>
<linearGradient id="paint0_linear_819_263" x1="34.4475" y1="11.5249" x2="6.32038" y2="40.9314" gradientUnits="userSpaceOnUse">
<stop offset="0.274" stop-color="#FE87AA"/>
<stop offset="0.624" stop-color="#FFD3D0"/>
<stop offset="0.954" stop-color="#37F6FE"/>
</linearGradient>
</defs>
</svg>
