<svg width="98" height="41" viewBox="0 0 98 41" fill="none" xmlns="http://www.w3.org/2000/svg">
<path d="M9.99994 25.0299C9.99994 19.9576 14.1118 15.8457 19.1841 15.8457V15.8457V30.3285C19.1841 32.8646 17.1282 34.9206 14.592 34.9206V34.9206C12.0559 34.9206 9.99994 32.8646 9.99994 30.3285V25.0299Z" fill="#37F6FE"/>
<path d="M21.3035 5.95508V5.95508C26.3758 5.95508 30.4877 10.067 30.4877 15.1393V15.1393H21.3035V5.95508Z" fill="url(#paint0_linear_695_8230)"/>
<path d="M10 10.5472C10 8.01103 12.056 5.95508 14.5921 5.95508H21.3036V15.1393H14.5921C12.056 15.1393 10 13.0833 10 10.5472V10.5472Z" fill="url(#paint1_linear_695_8230)"/>
<path d="M30.4877 15.8457V15.8457C30.4877 20.918 26.3758 25.0299 21.3035 25.0299L19.8906 25.0299L19.8906 15.8457L30.4877 15.8457Z" fill="url(#paint2_linear_695_8230)"/>
<path d="M19.8905 25.7363H24.4826C27.0187 25.7363 29.0747 27.7923 29.0747 30.3284V30.3284C29.0747 32.8646 27.0187 34.9205 24.4826 34.9205V34.9205C21.9465 34.9205 19.8905 32.8646 19.8905 30.3284V25.7363Z" fill="url(#paint3_linear_695_8230)"/>
<circle cx="24.4826" cy="30.3283" r="1.78333" fill="white"/>
<path d="M58.8563 21.162H54.8563V13.262C54.8563 11.962 55.7963 11.282 56.8563 11.282C57.9163 11.282 58.8563 11.962 58.8563 13.262V21.162ZM52.7563 20.942H44.0763C42.1763 20.942 41.1363 19.862 41.1363 18.202V17.902C41.1363 16.222 42.1563 15.242 43.8763 15.242H48.1763V14.642C48.1763 14.382 48.0563 14.302 47.7563 14.302H42.4563C41.6363 14.302 41.2163 13.702 41.2163 13.042C41.2163 12.342 41.6563 11.762 42.4563 11.762H49.8163C51.5363 11.762 52.2763 12.602 52.2763 14.002V17.502H45.7563C45.4563 17.502 45.2163 17.662 45.2163 17.962V18.002C45.2163 18.322 45.4563 18.442 45.7563 18.442H52.7563C53.5563 18.442 53.9763 19.042 53.9763 19.722C53.9763 20.362 53.5963 20.942 52.7563 20.942ZM58.2563 30.062H44.7163C42.8963 30.062 41.9163 28.942 41.9163 27.542V27.082C41.9163 25.742 42.8963 24.842 44.7163 24.842H54.8163V24.402C54.8163 24.162 54.7563 24.062 54.4963 24.062H43.2363C42.4563 24.062 42.1363 23.502 42.1363 22.902C42.1363 22.342 42.4763 21.762 43.2363 21.762H56.5363C58.2763 21.762 58.8763 22.282 58.8763 23.802V26.922H46.5763C46.2963 26.922 46.1563 27.102 46.1563 27.282V27.362C46.1563 27.562 46.2963 27.722 46.5763 27.722H58.2563C59.0563 27.722 59.3963 28.322 59.3963 28.922C59.3963 29.482 59.0763 30.062 58.2563 30.062ZM77.8281 30.062H73.8281V13.262C73.8281 11.962 74.7681 11.282 75.8281 11.282C76.8881 11.282 77.8281 11.962 77.8281 13.262V30.062ZM71.0481 29.222H63.5681C61.1481 29.222 60.2081 28.342 60.2081 25.922V22.082C60.2081 19.662 61.1481 18.822 63.5681 18.822H67.2681V15.902C67.2681 15.642 67.1881 15.362 66.7681 15.362H62.0881C60.8881 15.362 60.3881 14.522 60.3881 13.702C60.3881 12.902 60.8681 12.022 62.0881 12.022H67.8681C70.5481 12.022 71.2681 12.782 71.2681 14.982V22.082H65.1081C64.4281 22.082 64.2081 22.242 64.2081 22.922V25.102C64.2081 25.782 64.4281 25.942 65.1081 25.942H71.0481C72.2681 25.942 72.7481 26.782 72.7481 27.582C72.7481 28.402 72.2481 29.222 71.0481 29.222ZM80.86 23.042C79.88 23.042 79.06 22.482 78.96 21.502C78.86 20.542 79.38 19.762 80.4 19.542C83.04 18.962 85.46 16.722 85.88 13.362C86.04 12.102 86.92 11.562 88 11.562C89.2 11.562 90.06 12.362 90.02 13.682C90 14.302 89.9 14.922 89.76 15.522C93.12 15.602 96.58 17.942 96.96 23.042H92.9C92.54 20.342 90.58 18.702 88.2 18.762C86.38 21.282 83.5 23.042 80.86 23.042ZM80.36 26.282H95.64C96.88 26.282 97.36 27.162 97.36 27.982C97.36 28.822 96.86 29.662 95.64 29.662H80.36C79.14 29.662 78.64 28.822 78.64 27.982C78.64 27.162 79.12 26.282 80.36 26.282Z" fill="#2D125F"/>
<defs>
<linearGradient id="paint0_linear_695_8230" x1="12.4726" y1="9.48746" x2="29.7812" y2="15.1393" gradientUnits="userSpaceOnUse">
<stop stop-color="#F4EEEE"/>
<stop offset="1" stop-color="#FFD3D0"/>
</linearGradient>
<linearGradient id="paint1_linear_695_8230" x1="11.413" y1="9.8407" x2="28.3684" y2="9.8407" gradientUnits="userSpaceOnUse">
<stop stop-color="#F4EEEE"/>
<stop offset="1" stop-color="#FFD3D0"/>
</linearGradient>
<linearGradient id="paint2_linear_695_8230" x1="25.1892" y1="15.8457" x2="25.1892" y2="25.0299" gradientUnits="userSpaceOnUse">
<stop stop-color="#FFD3D0"/>
<stop offset="1" stop-color="#FE87AA"/>
</linearGradient>
<linearGradient id="paint3_linear_695_8230" x1="24.4826" y1="25.7363" x2="24.4826" y2="34.9205" gradientUnits="userSpaceOnUse">
<stop stop-color="#37F6FE"/>
<stop offset="1" stop-color="#9747FF"/>
</linearGradient>
</defs>
</svg>
