<svg width="152" height="54" viewBox="0 0 152 54" fill="none" xmlns="http://www.w3.org/2000/svg">
<path d="M90.233 29.3055H83.8945V16.7869C83.8945 14.7269 85.384 13.6493 87.0637 13.6493C88.7434 13.6493 90.233 14.7269 90.233 16.7869V29.3055ZM80.5667 28.9568H66.8122C63.8014 28.9568 62.1534 27.2454 62.1534 24.615V24.1396C62.1534 21.4774 63.7697 19.9245 66.4953 19.9245H73.3092V18.9737C73.3092 18.5617 73.119 18.4349 72.6436 18.4349H64.2451C62.9457 18.4349 62.2801 17.4841 62.2801 16.4383C62.2801 15.329 62.9774 14.41 64.2451 14.41H75.9079C78.6335 14.41 79.8061 15.741 79.8061 17.9595V23.5057H69.4744C68.999 23.5057 68.6187 23.7593 68.6187 24.2346V24.298C68.6187 24.8051 68.999 24.9953 69.4744 24.9953H80.5667C81.8344 24.9953 82.5 25.946 82.5 27.0236C82.5 28.0378 81.8978 28.9568 80.5667 28.9568ZM89.2822 43.4086H67.8263C64.9423 43.4086 63.3894 41.6339 63.3894 39.4154V38.6864C63.3894 36.563 64.9423 35.1369 67.8263 35.1369H83.8311V34.4396C83.8311 34.0593 83.736 33.9009 83.324 33.9009H65.4811C64.2451 33.9009 63.738 33.0135 63.738 32.0627C63.738 31.1753 64.2768 30.2562 65.4811 30.2562H86.5566C89.3139 30.2562 90.2647 31.0802 90.2647 33.4889V38.4329H70.7737C70.3301 38.4329 70.1082 38.7181 70.1082 39.0034V39.1301C70.1082 39.4471 70.3301 39.7006 70.7737 39.7006H89.2822C90.5499 39.7006 91.0887 40.6514 91.0887 41.6022C91.0887 42.4895 90.5816 43.4086 89.2822 43.4086ZM119.945 43.4086H113.606V16.7869C113.606 14.7269 115.096 13.6493 116.775 13.6493C118.455 13.6493 119.945 14.7269 119.945 16.7869V43.4086ZM109.201 42.0775H97.3479C93.5131 42.0775 92.0236 40.6831 92.0236 36.8483V30.7633C92.0236 26.9285 93.5131 25.5974 97.3479 25.5974H103.211V20.9703C103.211 20.5583 103.084 20.1146 102.419 20.1146H95.0027C93.1011 20.1146 92.3088 18.7835 92.3088 17.4841C92.3088 16.2164 93.0694 14.822 95.0027 14.822H104.162C108.409 14.822 109.55 16.0263 109.55 19.5125V30.7633H99.7883C98.7107 30.7633 98.3621 31.0169 98.3621 32.0944V35.5489C98.3621 36.6264 98.7107 36.88 99.7883 36.88H109.201C111.134 36.88 111.895 38.2111 111.895 39.4788C111.895 40.7782 111.102 42.0775 109.201 42.0775ZM124.398 32.2846C122.845 32.2846 121.545 31.3972 121.387 29.8442C121.228 28.323 122.052 27.087 123.669 26.7384C127.852 25.8193 131.687 22.2697 132.352 16.9454C132.606 14.9487 134 14.093 135.712 14.093C137.613 14.093 138.976 15.3607 138.913 17.4524C138.881 18.4349 138.723 19.4174 138.501 20.3682C143.825 20.4949 149.308 24.203 149.91 32.2846H143.476C142.906 28.0061 139.8 25.4073 136.029 25.5024C133.145 29.4956 128.581 32.2846 124.398 32.2846ZM123.605 37.4187H147.818C149.783 37.4187 150.544 38.8132 150.544 40.1126C150.544 41.4437 149.752 42.7748 147.818 42.7748H123.605C121.672 42.7748 120.88 41.4437 120.88 40.1126C120.88 38.8132 121.64 37.4187 123.605 37.4187Z" fill="#2D125F"/>
<path d="M13 34C13 26.8203 18.8203 21 26 21V41.5C26 45.0899 23.0899 48 19.5 48C15.9101 48 13 45.0899 13 41.5V34Z" fill="#37F6FE"/>
<path d="M29 7C36.1797 7 42 12.8203 42 20H29V7Z" fill="url(#paint0_linear_20_42)"/>
<path d="M13 13.5C13 9.91015 15.9101 7 19.5 7H29V20H19.5C15.9101 20 13 17.0899 13 13.5Z" fill="url(#paint1_linear_20_42)"/>
<path d="M42 21C42 28.1797 36.1797 34 29 34L27 34L27 21L42 21Z" fill="url(#paint2_linear_20_42)"/>
<path d="M27 35H33.5C37.0899 35 40 37.9101 40 41.5C40 45.0899 37.0899 48 33.5 48C29.9101 48 27 45.0899 27 41.5V35Z" fill="#9747FF"/>
<circle cx="33.5" cy="41.5" r="3.5" fill="white"/>
<defs>
<linearGradient id="paint0_linear_20_42" x1="16.5" y1="12" x2="41" y2="20" gradientUnits="userSpaceOnUse">
<stop stop-color="#F4EEEE"/>
<stop offset="1" stop-color="#FFD3D0"/>
</linearGradient>
<linearGradient id="paint1_linear_20_42" x1="15" y1="12.5" x2="39" y2="12.5" gradientUnits="userSpaceOnUse">
<stop stop-color="#F4EEEE"/>
<stop offset="1" stop-color="#FFD3D0"/>
</linearGradient>
<linearGradient id="paint2_linear_20_42" x1="34.5" y1="21" x2="34.5" y2="34" gradientUnits="userSpaceOnUse">
<stop stop-color="#FFD3D0"/>
<stop offset="1" stop-color="#FE87AA"/>
</linearGradient>
</defs>
</svg>
