<svg width="137" height="47" viewBox="0 0 137 47" fill="none" xmlns="http://www.w3.org/2000/svg">
<path d="M76.233 25.3055H69.8945V12.7869C69.8945 10.7269 71.384 9.64934 73.0637 9.64934C74.7434 9.64934 76.233 10.7269 76.233 12.7869V25.3055ZM66.5667 24.9568H52.8122C49.8014 24.9568 48.1534 23.2454 48.1534 20.615V20.1396C48.1534 17.4774 49.7697 15.9245 52.4953 15.9245H59.3092V14.9737C59.3092 14.5617 59.119 14.4349 58.6436 14.4349H50.2451C48.9457 14.4349 48.2801 13.4841 48.2801 12.4383C48.2801 11.329 48.9774 10.41 50.2451 10.41H61.9079C64.6335 10.41 65.8061 11.741 65.8061 13.9595V19.5057H55.4744C54.999 19.5057 54.6187 19.7593 54.6187 20.2346V20.298C54.6187 20.8051 54.999 20.9953 55.4744 20.9953H66.5667C67.8344 20.9953 68.5 21.946 68.5 23.0236C68.5 24.0378 67.8978 24.9568 66.5667 24.9568ZM75.2822 39.4086H53.8263C50.9423 39.4086 49.3894 37.6339 49.3894 35.4154V34.6864C49.3894 32.563 50.9423 31.1369 53.8263 31.1369H69.8311V30.4396C69.8311 30.0593 69.736 29.9009 69.324 29.9009H51.4811C50.2451 29.9009 49.738 29.0135 49.738 28.0627C49.738 27.1753 50.2768 26.2562 51.4811 26.2562H72.5566C75.3139 26.2562 76.2647 27.0802 76.2647 29.4889V34.4329H56.7737C56.3301 34.4329 56.1082 34.7181 56.1082 35.0034V35.1301C56.1082 35.4471 56.3301 35.7006 56.7737 35.7006H75.2822C76.5499 35.7006 77.0887 36.6514 77.0887 37.6022C77.0887 38.4895 76.5816 39.4086 75.2822 39.4086ZM105.945 39.4086H99.6062V12.7869C99.6062 10.7269 101.096 9.64934 102.775 9.64934C104.455 9.64934 105.945 10.7269 105.945 12.7869V39.4086ZM95.2009 38.0775H83.3479C79.5131 38.0775 78.0236 36.6831 78.0236 32.8483V26.7633C78.0236 22.9285 79.5131 21.5974 83.3479 21.5974H89.2111V16.9703C89.2111 16.5583 89.0843 16.1146 88.4187 16.1146H81.0027C79.1011 16.1146 78.3088 14.7835 78.3088 13.4841C78.3088 12.2164 79.0694 10.822 81.0027 10.822H90.1618C94.4086 10.822 95.5496 12.0263 95.5496 15.5125V26.7633H85.7883C84.7107 26.7633 84.3621 27.0169 84.3621 28.0944V31.5489C84.3621 32.6264 84.7107 32.88 85.7883 32.88H95.2009C97.1342 32.88 97.8948 34.2111 97.8948 35.4788C97.8948 36.7782 97.1025 38.0775 95.2009 38.0775ZM110.398 28.2846C108.845 28.2846 107.545 27.3972 107.387 25.8442C107.228 24.323 108.052 23.087 109.669 22.7384C113.852 21.8193 117.687 18.2697 118.352 12.9454C118.606 10.9487 120 10.093 121.712 10.093C123.613 10.093 124.976 11.3607 124.913 13.4524C124.881 14.4349 124.723 15.4174 124.501 16.3682C129.825 16.4949 135.308 20.203 135.91 28.2846H129.476C128.906 24.0061 125.8 21.4073 122.029 21.5024C119.145 25.4956 114.581 28.2846 110.398 28.2846ZM109.605 33.4187H133.818C135.783 33.4187 136.544 34.8132 136.544 36.1126C136.544 37.4437 135.752 38.7748 133.818 38.7748H109.605C107.672 38.7748 106.88 37.4437 106.88 36.1126C106.88 34.8132 107.64 33.4187 109.605 33.4187Z" fill="#2D125F"/>
<path d="M8.70312 30.7628C8.70312 23.2209 14.817 17.1069 22.3589 17.1069V38.6411C22.3589 42.412 19.302 45.469 15.531 45.469C11.7601 45.469 8.70312 42.412 8.70312 38.6411V30.7628Z" fill="#37F6FE"/>
<path d="M25.5098 2.40088C33.0517 2.40088 39.1656 8.51479 39.1656 16.0567H25.5098V2.40088Z" fill="url(#paint0_linear_513_1352)"/>
<path d="M8.70312 9.22878C8.70312 5.45784 11.7601 2.40088 15.531 2.40088H25.5103V16.0567H15.531C11.7601 16.0567 8.70312 12.9997 8.70312 9.22878Z" fill="url(#paint1_linear_513_1352)"/>
<path d="M39.166 17.1069C39.166 24.6488 33.0521 30.7627 25.5102 30.7627L23.4093 30.7627L23.4093 17.1069L39.166 17.1069Z" fill="url(#paint2_linear_513_1352)"/>
<path d="M23.4102 31.8135H30.2381C34.009 31.8135 37.066 34.8704 37.066 38.6414C37.066 42.4123 34.009 45.4693 30.2381 45.4693C26.4671 45.4693 23.4102 42.4123 23.4102 38.6414V31.8135Z" fill="#9747FF"/>
<circle cx="30.2391" cy="38.6419" r="3.67656" fill="white"/>
<defs>
<linearGradient id="paint0_linear_513_1352" x1="12.3792" y1="7.65311" x2="38.1151" y2="16.0567" gradientUnits="userSpaceOnUse">
<stop stop-color="#F4EEEE"/>
<stop offset="1" stop-color="#FFD3D0"/>
</linearGradient>
<linearGradient id="paint1_linear_513_1352" x1="10.804" y1="8.17834" x2="36.0147" y2="8.17834" gradientUnits="userSpaceOnUse">
<stop stop-color="#F4EEEE"/>
<stop offset="1" stop-color="#FFD3D0"/>
</linearGradient>
<linearGradient id="paint2_linear_513_1352" x1="31.2877" y1="17.1069" x2="31.2877" y2="30.7627" gradientUnits="userSpaceOnUse">
<stop stop-color="#FFD3D0"/>
<stop offset="1" stop-color="#FE87AA"/>
</linearGradient>
</defs>
</svg>
