<svg width="54" height="54" viewBox="0 0 54 54" fill="none" xmlns="http://www.w3.org/2000/svg">
<circle cx="27" cy="27" r="27" fill="#2D125F"/>
<path d="M13 34C13 26.8203 18.8203 21 26 21V41.5C26 45.0899 23.0899 48 19.5 48C15.9101 48 13 45.0899 13 41.5V34Z" fill="#37F6FE"/>
<path d="M29 7C36.1797 7 42 12.8203 42 20H29V7Z" fill="url(#paint0_linear_0_1)"/>
<path d="M13 13.5C13 9.91015 15.9101 7 19.5 7H29V20H19.5C15.9101 20 13 17.0899 13 13.5Z" fill="url(#paint1_linear_0_1)"/>
<path d="M42 21C42 28.1797 36.1797 34 29 34L27 34L27 21L42 21Z" fill="url(#paint2_linear_0_1)"/>
<path d="M27 35H33.5C37.0899 35 40 37.9101 40 41.5C40 45.0899 37.0899 48 33.5 48C29.9101 48 27 45.0899 27 41.5V35Z" fill="#9747FF"/>
<circle cx="33.5" cy="41.5" r="3.5" fill="white"/>
<defs>
<linearGradient id="paint0_linear_0_1" x1="16.5" y1="12" x2="41" y2="20" gradientUnits="userSpaceOnUse">
<stop stop-color="#F4EEEE"/>
<stop offset="1" stop-color="#FFD3D0"/>
</linearGradient>
<linearGradient id="paint1_linear_0_1" x1="15" y1="12.5" x2="39" y2="12.5" gradientUnits="userSpaceOnUse">
<stop stop-color="#F4EEEE"/>
<stop offset="1" stop-color="#FFD3D0"/>
</linearGradient>
<linearGradient id="paint2_linear_0_1" x1="34.5" y1="21" x2="34.5" y2="34" gradientUnits="userSpaceOnUse">
<stop stop-color="#FFD3D0"/>
<stop offset="1" stop-color="#FE87AA"/>
</linearGradient>
</defs>
</svg>
