<svg width="54" height="54" viewBox="0 0 54 54" fill="none" xmlns="http://www.w3.org/2000/svg">
<circle cx="27" cy="27" r="27" fill="#2D125F"/>
<path d="M15 32.0402C15 26.3356 19.6245 21.7112 25.329 21.7112H25.7024V37.018C25.7024 39.9734 23.3066 42.3692 20.3512 42.3692C17.3958 42.3692 15 39.9734 15 37.018V32.0402Z" fill="#37F6FE"/>
<path d="M28.1719 11H28.9279C34.4211 11 38.8743 15.4532 38.8743 20.9464H28.1719V11Z" fill="url(#paint0_linear_0_1)"/>
<path d="M15 15.9732C15 13.2266 17.2266 11 19.9732 11H28.1722V20.9464H19.9732C17.2266 20.9464 15 18.7199 15 15.9732Z" fill="url(#paint1_linear_0_1)"/>
<path d="M38.875 21.7112C38.875 27.2045 34.4218 31.6576 28.9286 31.6576L26.5261 31.6576L26.5261 21.7112L38.875 21.7112Z" fill="url(#paint2_linear_0_1)"/>
<path d="M26.5254 32.4238H32.2546C35.0012 32.4238 37.2278 34.6504 37.2278 37.3971C37.2278 40.1437 35.0012 42.3703 32.2546 42.3703H31.8766C28.9212 42.3703 26.5254 39.9745 26.5254 37.0191V32.4238Z" fill="#9747FF"/>
<ellipse cx="31.8775" cy="37.3971" rx="2.88142" ry="2.67789" fill="white"/>
<defs>
<linearGradient id="paint0_linear_0_1" x1="17.8811" y1="14.8256" x2="37.749" y2="21.8061" gradientUnits="userSpaceOnUse">
<stop stop-color="#F4EEEE"/>
<stop offset="1" stop-color="#FFD3D0"/>
</linearGradient>
<linearGradient id="paint1_linear_0_1" x1="16.6465" y1="15.2081" x2="36.4048" y2="15.2081" gradientUnits="userSpaceOnUse">
<stop stop-color="#F4EEEE"/>
<stop offset="1" stop-color="#FFD3D0"/>
</linearGradient>
<linearGradient id="paint2_linear_0_1" x1="32.7005" y1="21.7112" x2="32.7005" y2="31.6576" gradientUnits="userSpaceOnUse">
<stop stop-color="#FFD3D0"/>
<stop offset="1" stop-color="#FE87AA"/>
</linearGradient>
</defs>
</svg>
