<svg width="44" height="44" viewBox="0 0 44 44" fill="none" xmlns="http://www.w3.org/2000/svg">
<rect width="44" height="44" rx="22" fill="#5E3AA1"/>
<path d="M11.0002 26.9825C11.0002 21.403 15.5233 16.8799 21.1029 16.8799V32.8109C21.1029 35.6007 18.8413 37.8622 16.0515 37.8622C13.2618 37.8622 11.0002 35.6007 11.0002 32.8109V26.9825Z" fill="#37F6FE"/>
<path d="M23.434 6C29.0135 6 33.5366 10.5231 33.5366 16.1026H23.434V6Z" fill="url(#paint0_linear_695_8230)"/>
<path d="M11.0001 11.0513C11.0001 8.26155 13.2617 6 16.0514 6H23.4341V16.1026H16.0514C13.2617 16.1026 11.0001 13.8411 11.0001 11.0513Z" fill="url(#paint1_linear_695_8230)"/>
<path d="M33.5366 16.8799C33.5366 22.4594 29.0135 26.9825 23.434 26.9825L21.8798 26.9825L21.8798 16.8799L33.5366 16.8799Z" fill="url(#paint2_linear_695_8230)"/>
<path d="M21.8795 27.7598H26.9308C29.7206 27.7598 31.9821 30.0213 31.9821 32.8111C31.9821 35.6008 29.7206 37.8624 26.9308 37.8624C24.1411 37.8624 21.8795 35.6008 21.8795 32.8111V27.7598Z" fill="url(#paint3_linear_695_8230)"/>
<circle cx="26.9311" cy="32.8108" r="2.71993" fill="white"/>
<defs>
<linearGradient id="paint0_linear_695_8230" x1="13.7199" y1="9.88562" x2="32.7594" y2="16.1026" gradientUnits="userSpaceOnUse">
<stop stop-color="#F4EEEE"/>
<stop offset="1" stop-color="#FFD3D0"/>
</linearGradient>
<linearGradient id="paint1_linear_695_8230" x1="12.5544" y1="10.2742" x2="31.2053" y2="10.2742" gradientUnits="userSpaceOnUse">
<stop stop-color="#F4EEEE"/>
<stop offset="1" stop-color="#FFD3D0"/>
</linearGradient>
<linearGradient id="paint2_linear_695_8230" x1="27.7082" y1="16.8799" x2="27.7082" y2="26.9825" gradientUnits="userSpaceOnUse">
<stop stop-color="#FFD3D0"/>
<stop offset="1" stop-color="#FE87AA"/>
</linearGradient>
<linearGradient id="paint3_linear_695_8230" x1="26.9308" y1="27.7598" x2="26.9308" y2="37.8624" gradientUnits="userSpaceOnUse">
<stop stop-color="#37F6FE"/>
<stop offset="1" stop-color="#9747FF"/>
</linearGradient>
</defs>
</svg>
