<svg width="36" height="36" viewBox="0 0 36 36" fill="none" xmlns="http://www.w3.org/2000/svg">
<rect width="36" height="36" rx="18" fill="#5E3AA1"/>
<path d="M9.00012 22.0763C9.00012 17.5113 12.7008 13.8105 17.2659 13.8105V26.845C17.2659 29.1276 15.4155 30.9779 13.133 30.9779C10.8505 30.9779 9.00012 29.1276 9.00012 26.845V22.0763Z" fill="#37F6FE"/>
<path d="M19.1732 4.90918C23.7383 4.90918 27.439 8.60989 27.439 13.1749H19.1732V4.90918Z" fill="url(#paint0_linear_766_2414)"/>
<path d="M9.00006 9.04206C9.00006 6.75954 10.8504 4.90918 13.1329 4.90918H19.1733V13.1749H13.1329C10.8504 13.1749 9.00006 11.3246 9.00006 9.04206Z" fill="url(#paint1_linear_766_2414)"/>
<path d="M27.4391 13.8105C27.4391 18.3756 23.7383 22.0763 19.1733 22.0763L17.9016 22.0763L17.9016 13.8105L27.4391 13.8105Z" fill="url(#paint2_linear_766_2414)"/>
<path d="M17.9014 22.7119H22.0343C24.3168 22.7119 26.1672 24.5623 26.1672 26.8448C26.1672 29.1273 24.3168 30.9777 22.0343 30.9777C19.7518 30.9777 17.9014 29.1273 17.9014 26.8448V22.7119Z" fill="url(#paint3_linear_766_2414)"/>
<circle cx="22.0345" cy="26.8445" r="2.2254" fill="white"/>
<defs>
<linearGradient id="paint0_linear_766_2414" x1="11.2254" y1="8.08832" x2="26.8032" y2="13.1749" gradientUnits="userSpaceOnUse">
<stop stop-color="#F4EEEE"/>
<stop offset="1" stop-color="#FFD3D0"/>
</linearGradient>
<linearGradient id="paint1_linear_766_2414" x1="10.2717" y1="8.40624" x2="25.5316" y2="8.40624" gradientUnits="userSpaceOnUse">
<stop stop-color="#F4EEEE"/>
<stop offset="1" stop-color="#FFD3D0"/>
</linearGradient>
<linearGradient id="paint2_linear_766_2414" x1="22.6703" y1="13.8105" x2="22.6703" y2="22.0763" gradientUnits="userSpaceOnUse">
<stop stop-color="#FFD3D0"/>
<stop offset="1" stop-color="#FE87AA"/>
</linearGradient>
<linearGradient id="paint3_linear_766_2414" x1="22.0343" y1="22.7119" x2="22.0343" y2="30.9777" gradientUnits="userSpaceOnUse">
<stop stop-color="#37F6FE"/>
<stop offset="1" stop-color="#9747FF"/>
</linearGradient>
</defs>
</svg>
