<svg width="102" height="38" viewBox="0 0 102 38" fill="none" xmlns="http://www.w3.org/2000/svg">
<path d="M62.8282 17.62H58.8282V9.72C58.8282 8.42 59.7682 7.74 60.8282 7.74C61.8882 7.74 62.8282 8.42 62.8282 9.72V17.62ZM56.7282 17.4H48.0482C46.1482 17.4 45.1082 16.32 45.1082 14.66V14.36C45.1082 12.68 46.1282 11.7 47.8482 11.7H52.1482V11.1C52.1482 10.84 52.0282 10.76 51.7282 10.76H46.4282C45.6082 10.76 45.1882 10.16 45.1882 9.5C45.1882 8.8 45.6282 8.22 46.4282 8.22H53.7882C55.5082 8.22 56.2482 9.06 56.2482 10.46V13.96H49.7282C49.4282 13.96 49.1882 14.12 49.1882 14.42V14.46C49.1882 14.78 49.4282 14.9 49.7282 14.9H56.7282C57.5282 14.9 57.9482 15.5 57.9482 16.18C57.9482 16.82 57.5682 17.4 56.7282 17.4ZM62.2282 26.52H48.6882C46.8682 26.52 45.8882 25.4 45.8882 24V23.54C45.8882 22.2 46.8682 21.3 48.6882 21.3H58.7882V20.86C58.7882 20.62 58.7282 20.52 58.4682 20.52H47.2082C46.4282 20.52 46.1082 19.96 46.1082 19.36C46.1082 18.8 46.4482 18.22 47.2082 18.22H60.5082C62.2482 18.22 62.8482 18.74 62.8482 20.26V23.38H50.5482C50.2682 23.38 50.1282 23.56 50.1282 23.74V23.82C50.1282 24.02 50.2682 24.18 50.5482 24.18H62.2282C63.0282 24.18 63.3682 24.78 63.3682 25.38C63.3682 25.94 63.0482 26.52 62.2282 26.52ZM81.8 26.52H77.8V9.72C77.8 8.42 78.74 7.74 79.8 7.74C80.86 7.74 81.8 8.42 81.8 9.72V26.52ZM75.02 25.68H67.54C65.12 25.68 64.18 24.8 64.18 22.38V18.54C64.18 16.12 65.12 15.28 67.54 15.28H71.24V12.36C71.24 12.1 71.16 11.82 70.74 11.82H66.06C64.86 11.82 64.36 10.98 64.36 10.16C64.36 9.36 64.84 8.48 66.06 8.48H71.84C74.52 8.48 75.24 9.24 75.24 11.44V18.54H69.08C68.4 18.54 68.18 18.7 68.18 19.38V21.56C68.18 22.24 68.4 22.4 69.08 22.4H75.02C76.24 22.4 76.72 23.24 76.72 24.04C76.72 24.86 76.22 25.68 75.02 25.68ZM84.8318 19.5C83.8518 19.5 83.0318 18.94 82.9318 17.96C82.8318 17 83.3518 16.22 84.3718 16C87.0118 15.42 89.4318 13.18 89.8518 9.82C90.0118 8.56 90.8918 8.02 91.9718 8.02C93.1718 8.02 94.0318 8.82 93.9918 10.14C93.9718 10.76 93.8718 11.38 93.7318 11.98C97.0918 12.06 100.552 14.4 100.932 19.5H96.8718C96.5118 16.8 94.5518 15.16 92.1718 15.22C90.3518 17.74 87.4718 19.5 84.8318 19.5ZM84.3318 22.74H99.6118C100.852 22.74 101.332 23.62 101.332 24.44C101.332 25.28 100.832 26.12 99.6118 26.12H84.3318C83.1118 26.12 82.6118 25.28 82.6118 24.44C82.6118 23.62 83.0918 22.74 84.3318 22.74Z" fill="#2D125F"/>
<rect width="37.0134" height="37.0134" rx="8" fill="#5E3AA1"/>
<path d="M9.25342 22.6987C9.25342 18.0051 13.0583 14.2002 17.7519 14.2002V27.6016C17.7519 29.9484 15.8494 31.8508 13.5026 31.8508C11.1559 31.8508 9.25342 29.9484 9.25342 27.6016V22.6987Z" fill="#37F6FE"/>
<path d="M19.7129 5.04785C24.4065 5.04785 28.2113 8.85274 28.2113 13.5463H19.7129V5.04785Z" fill="url(#paint0_linear_695_8230)"/>
<path d="M9.25342 9.29708C9.25342 6.9503 11.1559 5.04785 13.5026 5.04785H19.7131V13.5463H13.5026C11.1559 13.5463 9.25342 11.6439 9.25342 9.29708Z" fill="url(#paint1_linear_695_8230)"/>
<path d="M28.2114 14.2002C28.2114 18.8938 24.4065 22.6987 19.713 22.6987L18.4055 22.6987L18.4055 14.2002L28.2114 14.2002Z" fill="url(#paint2_linear_695_8230)"/>
<path d="M18.4055 23.3525H22.6547C25.0015 23.3525 26.904 25.255 26.904 27.6018C26.904 29.9486 25.0015 31.851 22.6547 31.851C20.308 31.851 18.4055 29.9486 18.4055 27.6018V23.3525Z" fill="url(#paint3_linear_695_8230)"/>
<circle cx="22.6552" cy="27.6015" r="2.28805" fill="white"/>
<defs>
<linearGradient id="paint0_linear_695_8230" x1="11.5413" y1="8.31649" x2="27.5576" y2="13.5463" gradientUnits="userSpaceOnUse">
<stop stop-color="#F4EEEE"/>
<stop offset="1" stop-color="#FFD3D0"/>
</linearGradient>
<linearGradient id="paint1_linear_695_8230" x1="10.5609" y1="8.64335" x2="26.2503" y2="8.64335" gradientUnits="userSpaceOnUse">
<stop stop-color="#F4EEEE"/>
<stop offset="1" stop-color="#FFD3D0"/>
</linearGradient>
<linearGradient id="paint2_linear_695_8230" x1="23.3085" y1="14.2002" x2="23.3085" y2="22.6987" gradientUnits="userSpaceOnUse">
<stop stop-color="#FFD3D0"/>
<stop offset="1" stop-color="#FE87AA"/>
</linearGradient>
<linearGradient id="paint3_linear_695_8230" x1="22.6547" y1="23.3525" x2="22.6547" y2="31.851" gradientUnits="userSpaceOnUse">
<stop stop-color="#37F6FE"/>
<stop offset="1" stop-color="#9747FF"/>
</linearGradient>
</defs>
</svg>
