<svg width="102" height="38" viewBox="0 0 102 38" fill="none" xmlns="http://www.w3.org/2000/svg">
<path d="M62.8282 18.62H58.8282V10.72C58.8282 9.42 59.7682 8.74 60.8282 8.74C61.8882 8.74 62.8282 9.42 62.8282 10.72V18.62ZM56.7282 18.4H48.0482C46.1482 18.4 45.1082 17.32 45.1082 15.66V15.36C45.1082 13.68 46.1282 12.7 47.8482 12.7H52.1482V12.1C52.1482 11.84 52.0282 11.76 51.7282 11.76H46.4282C45.6082 11.76 45.1882 11.16 45.1882 10.5C45.1882 9.8 45.6282 9.22 46.4282 9.22H53.7882C55.5082 9.22 56.2482 10.06 56.2482 11.46V14.96H49.7282C49.4282 14.96 49.1882 15.12 49.1882 15.42V15.46C49.1882 15.78 49.4282 15.9 49.7282 15.9H56.7282C57.5282 15.9 57.9482 16.5 57.9482 17.18C57.9482 17.82 57.5682 18.4 56.7282 18.4ZM62.2282 27.52H48.6882C46.8682 27.52 45.8882 26.4 45.8882 25V24.54C45.8882 23.2 46.8682 22.3 48.6882 22.3H58.7882V21.86C58.7882 21.62 58.7282 21.52 58.4682 21.52H47.2082C46.4282 21.52 46.1082 20.96 46.1082 20.36C46.1082 19.8 46.4482 19.22 47.2082 19.22H60.5082C62.2482 19.22 62.8482 19.74 62.8482 21.26V24.38H50.5482C50.2682 24.38 50.1282 24.56 50.1282 24.74V24.82C50.1282 25.02 50.2682 25.18 50.5482 25.18H62.2282C63.0282 25.18 63.3682 25.78 63.3682 26.38C63.3682 26.94 63.0482 27.52 62.2282 27.52ZM81.8 27.52H77.8V10.72C77.8 9.42 78.74 8.74 79.8 8.74C80.86 8.74 81.8 9.42 81.8 10.72V27.52ZM75.02 26.68H67.54C65.12 26.68 64.18 25.8 64.18 23.38V19.54C64.18 17.12 65.12 16.28 67.54 16.28H71.24V13.36C71.24 13.1 71.16 12.82 70.74 12.82H66.06C64.86 12.82 64.36 11.98 64.36 11.16C64.36 10.36 64.84 9.48 66.06 9.48H71.84C74.52 9.48 75.24 10.24 75.24 12.44V19.54H69.08C68.4 19.54 68.18 19.7 68.18 20.38V22.56C68.18 23.24 68.4 23.4 69.08 23.4H75.02C76.24 23.4 76.72 24.24 76.72 25.04C76.72 25.86 76.22 26.68 75.02 26.68ZM84.8318 20.5C83.8518 20.5 83.0318 19.94 82.9318 18.96C82.8318 18 83.3518 17.22 84.3718 17C87.0118 16.42 89.4318 14.18 89.8518 10.82C90.0118 9.56 90.8918 9.02 91.9718 9.02C93.1718 9.02 94.0318 9.82 93.9918 11.14C93.9718 11.76 93.8718 12.38 93.7318 12.98C97.0918 13.06 100.552 15.4 100.932 20.5H96.8718C96.5118 17.8 94.5518 16.16 92.1718 16.22C90.3518 18.74 87.4718 20.5 84.8318 20.5ZM84.3318 23.74H99.6118C100.852 23.74 101.332 24.62 101.332 25.44C101.332 26.28 100.832 27.12 99.6118 27.12H84.3318C83.1118 27.12 82.6118 26.28 82.6118 25.44C82.6118 24.62 83.0918 23.74 84.3318 23.74Z" fill="#2D125F"/>
<rect width="37.0134" height="37.0134" rx="8" fill="#5E3AA1"/>
<path d="M9.25342 22.6987C9.25342 18.0051 13.0583 14.2002 17.7519 14.2002V14.2002V27.6016C17.7519 29.9484 15.8494 31.8508 13.5026 31.8508V31.8508C11.1559 31.8508 9.25342 29.9484 9.25342 27.6016V22.6987Z" fill="#37F6FE"/>
<path d="M19.713 5.04785V5.04785C24.4066 5.04785 28.2115 8.85274 28.2115 13.5463V13.5463H19.713V5.04785Z" fill="url(#paint0_linear_695_8230)"/>
<path d="M9.25342 9.29708C9.25342 6.9503 11.1559 5.04785 13.5026 5.04785H19.7131V13.5463H13.5026C11.1559 13.5463 9.25342 11.6439 9.25342 9.29708V9.29708Z" fill="url(#paint1_linear_695_8230)"/>
<path d="M28.2114 14.2002V14.2002C28.2114 18.8938 24.4065 22.6987 19.713 22.6987L18.4055 22.6987L18.4055 14.2002L28.2114 14.2002Z" fill="url(#paint2_linear_695_8230)"/>
<path d="M18.4055 23.3525H22.6547C25.0015 23.3525 26.904 25.255 26.904 27.6018V27.6018C26.904 29.9486 25.0015 31.851 22.6547 31.851V31.851C20.308 31.851 18.4055 29.9486 18.4055 27.6018V23.3525Z" fill="url(#paint3_linear_695_8230)"/>
<circle cx="22.6551" cy="27.6015" r="2.28805" fill="white"/>
<defs>
<linearGradient id="paint0_linear_695_8230" x1="11.5414" y1="8.31649" x2="27.5577" y2="13.5463" gradientUnits="userSpaceOnUse">
<stop stop-color="#F4EEEE"/>
<stop offset="1" stop-color="#FFD3D0"/>
</linearGradient>
<linearGradient id="paint1_linear_695_8230" x1="10.5609" y1="8.64335" x2="26.2503" y2="8.64335" gradientUnits="userSpaceOnUse">
<stop stop-color="#F4EEEE"/>
<stop offset="1" stop-color="#FFD3D0"/>
</linearGradient>
<linearGradient id="paint2_linear_695_8230" x1="23.3085" y1="14.2002" x2="23.3085" y2="22.6987" gradientUnits="userSpaceOnUse">
<stop stop-color="#FFD3D0"/>
<stop offset="1" stop-color="#FE87AA"/>
</linearGradient>
<linearGradient id="paint3_linear_695_8230" x1="22.6547" y1="23.3525" x2="22.6547" y2="31.851" gradientUnits="userSpaceOnUse">
<stop stop-color="#37F6FE"/>
<stop offset="1" stop-color="#9747FF"/>
</linearGradient>
</defs>
</svg>
