<svg width="36" height="44" viewBox="0 0 36 44" fill="none" xmlns="http://www.w3.org/2000/svg">
<path d="M5.27208 31.0473C-1.75736 24.0178 -1.75736 12.6209 5.27208 5.59141C12.3015 -1.43802 23.6985 -1.43802 30.7279 5.59141C37.7574 12.6209 37.7574 24.0178 30.7279 31.0473L18.252 43.5231C18.1128 43.6623 17.8872 43.6623 17.748 43.5231L5.27208 31.0473Z" fill="#885AFF"/>
<circle cx="18" cy="18.3193" r="10" fill="white"/>
<path d="M15.0059 22.3193L14.9941 21.042L18.041 18.2412C18.8379 17.4795 19.2598 17.0107 19.2598 16.3428C19.2598 15.5928 18.6855 15.124 17.9121 15.124C17.1152 15.124 16.5996 15.6279 16.5996 16.4365H14.9238C14.9121 14.7725 16.1426 13.7178 17.9355 13.7178C19.752 13.7178 20.959 14.749 20.959 16.2256C20.959 17.1865 20.4902 17.9834 18.7441 19.5654L17.4551 20.8193V20.8662H21.0762V22.3193H15.0059Z" fill="black"/>
</svg>
