<svg width="51" height="59" viewBox="0 0 51 59" fill="none" xmlns="http://www.w3.org/2000/svg">
<g filter="url(#filter0_d_805_14532)">
<path d="M12.7281 33.7279C5.6987 26.6985 5.6987 15.3015 12.7281 8.27208C19.7576 1.24264 31.1545 1.24264 38.184 8.27208C45.2134 15.3015 45.2134 26.6985 38.184 33.7279L25.7081 46.2038C25.5689 46.343 25.3432 46.343 25.204 46.2038L12.7281 33.7279Z" fill="#5E3AA1"/>
</g>
<circle cx="25.4561" cy="21" r="10" fill="white"/>
<path d="M25.4326 25.1172C23.5693 25.1172 22.2334 24.0859 22.1982 22.6094H23.9795C24.0146 23.2422 24.624 23.6641 25.4443 23.6641C26.2881 23.6641 26.8975 23.1836 26.8857 22.5039C26.8975 21.8125 26.2764 21.3203 25.2803 21.3203H24.4951V20.0195H25.2803C26.1123 20.0195 26.6982 19.5625 26.6982 18.8945C26.6982 18.25 26.2061 17.8047 25.4561 17.8047C24.7061 17.8047 24.085 18.2266 24.0615 18.8711H22.374C22.3975 17.4062 23.7217 16.3984 25.4561 16.3984C27.2256 16.3984 28.4092 17.4414 28.3975 18.7891C28.4092 19.7383 27.7412 20.418 26.792 20.582V20.6523C28.0342 20.8047 28.7256 21.5664 28.7139 22.6211C28.7256 24.0742 27.3428 25.1172 25.4326 25.1172Z" fill="black"/>
<defs>
<filter id="filter0_d_805_14532" x="0.356055" y="0.9" width="50.2" height="57.5086" filterUnits="userSpaceOnUse" color-interpolation-filters="sRGB">
<feFlood flood-opacity="0" result="BackgroundImageFix"/>
<feColorMatrix in="SourceAlpha" type="matrix" values="0 0 0 0 0 0 0 0 0 0 0 0 0 0 0 0 0 0 127 0" result="hardAlpha"/>
<feOffset dy="5"/>
<feGaussianBlur stdDeviation="3.55"/>
<feComposite in2="hardAlpha" operator="out"/>
<feColorMatrix type="matrix" values="0 0 0 0 0.313726 0 0 0 0 0.313726 0 0 0 0 0.313726 0 0 0 0.5 0"/>
<feBlend mode="normal" in2="BackgroundImageFix" result="effect1_dropShadow_805_14532"/>
<feBlend mode="normal" in="SourceGraphic" in2="effect1_dropShadow_805_14532" result="shape"/>
</filter>
</defs>
</svg>
