<svg width="37" height="44" viewBox="0 0 37 44" fill="none" xmlns="http://www.w3.org/2000/svg">
<path d="M5.72814 31.0473C-1.3013 24.0178 -1.3013 12.6209 5.72814 5.59141C12.7576 -1.43802 24.1545 -1.43802 31.184 5.59141C38.2134 12.6209 38.2134 24.0178 31.184 31.0473L18.7081 43.5231C18.5689 43.6623 18.3432 43.6623 18.204 43.5231L5.72814 31.0473Z" fill="#885AFF"/>
<circle cx="18.4561" cy="18.3193" r="10" fill="white"/>
<path d="M18.4326 22.4365C16.5693 22.4365 15.2334 21.4053 15.1982 19.9287H16.9795C17.0146 20.5615 17.624 20.9834 18.4443 20.9834C19.2881 20.9834 19.8975 20.5029 19.8857 19.8232C19.8975 19.1318 19.2764 18.6396 18.2803 18.6396H17.4951V17.3389H18.2803C19.1123 17.3389 19.6982 16.8818 19.6982 16.2139C19.6982 15.5693 19.2061 15.124 18.4561 15.124C17.7061 15.124 17.085 15.5459 17.0615 16.1904H15.374C15.3975 14.7256 16.7217 13.7178 18.4561 13.7178C20.2256 13.7178 21.4092 14.7607 21.3975 16.1084C21.4092 17.0576 20.7412 17.7373 19.792 17.9014V17.9717C21.0342 18.124 21.7256 18.8857 21.7139 19.9404C21.7256 21.3936 20.3428 22.4365 18.4326 22.4365Z" fill="black"/>
</svg>
