<svg width="25" height="30" viewBox="0 0 25 30" fill="none" xmlns="http://www.w3.org/2000/svg">
<path d="M3.74419 20.6532C-0.942099 15.967 -0.942099 8.36898 3.74419 3.68269C8.43048 -1.0036 16.0285 -1.0036 20.7148 3.68269C25.401 8.36898 25.401 15.967 20.7148 20.6532L12.3975 28.9705C12.3047 29.0633 12.1542 29.0633 12.0614 28.9705L3.74419 20.6532Z" fill="#885AFF"/>
<ellipse cx="12.2295" cy="12.1676" rx="6.66667" ry="6.66667" fill="white"/>
<path d="M10.0668 15.501L10.059 14.6494L12.0902 12.7822C12.6215 12.2744 12.9027 11.9619 12.9027 11.5166C12.9027 11.0166 12.5199 10.7041 12.0043 10.7041C11.473 10.7041 11.1293 11.04 11.1293 11.5791H10.0121C10.0043 10.4697 10.8246 9.7666 12.0199 9.7666C13.2308 9.7666 14.0355 10.4541 14.0355 11.4385C14.0355 12.0791 13.723 12.6104 12.559 13.665L11.6996 14.501V14.5322H14.1136V15.501H10.0668Z" fill="black"/>
</svg>
