<svg width="41" height="41" viewBox="0 0 41 41" fill="none" xmlns="http://www.w3.org/2000/svg">
<circle cx="20.6538" cy="20.4688" r="18" fill="#D9D9D9"/>
<mask id="mask0_862_5506" style="mask-type:alpha" maskUnits="userSpaceOnUse" x="0" y="0" width="41" height="41">
<rect x="0.653809" y="0.389648" width="40" height="40" fill="#EEEEEE"/>
</mask>
<g mask="url(#mask0_862_5506)">
<path d="M9.04711 30.9774C10.8455 29.7692 12.6823 28.834 14.5575 28.1717C16.4323 27.5092 18.4644 27.178 20.6538 27.178C22.8431 27.178 24.8785 27.5092 26.76 28.1717C28.6415 28.834 30.4814 29.7692 32.2798 30.9774C33.5907 29.4818 34.584 27.8591 35.2598 26.1093C35.9353 24.3595 36.273 22.4793 36.273 20.4687C36.273 16.089 34.7648 12.3908 31.7484 9.3741C28.7316 6.35769 25.0334 4.84948 20.6538 4.84948C16.2741 4.84948 12.5759 6.35769 9.55916 9.3741C6.54275 12.3908 5.03454 16.089 5.03454 20.4687C5.03454 22.4793 5.37559 24.3595 6.0577 26.1093C6.7398 27.8591 7.73627 29.4818 9.04711 30.9774ZM20.6481 21.6591C18.9352 21.6591 17.4934 21.0717 16.3224 19.897C15.1518 18.7222 14.5665 17.2785 14.5665 15.5656C14.5665 13.8531 15.1538 12.4114 16.3286 11.2404C17.5033 10.0695 18.9469 9.484 20.6595 9.484C22.3723 9.484 23.8142 10.0714 24.9851 11.2461C26.1558 12.4208 26.7411 13.8646 26.7411 15.5775C26.7411 17.29 26.1537 18.7317 24.979 19.9027C23.8042 21.0736 22.3606 21.6591 20.6481 21.6591ZM20.641 38.4687C18.1466 38.4687 15.8029 37.9986 13.6101 37.0585C11.4176 36.1184 9.51021 34.833 7.88801 33.2023C6.2658 31.5715 4.98796 29.665 4.05449 27.4825C3.1207 25.3001 2.65381 22.957 2.65381 20.4531C2.65381 17.9571 3.12386 15.6158 4.06396 13.4293C5.00407 11.2428 6.28948 9.33952 7.92022 7.71953C9.55095 6.09921 11.4575 4.81901 13.6399 3.87891C15.8224 2.9388 18.1655 2.46875 20.6694 2.46875C23.1654 2.46875 25.5067 2.9388 27.6932 3.87891C29.8797 4.81901 31.783 6.09921 33.403 7.71953C35.0233 9.33952 36.3035 11.2445 37.2436 13.4345C38.1837 15.6245 38.6537 17.9664 38.6537 20.4602C38.6537 22.9625 38.1837 25.3041 37.2436 27.4849C36.3035 29.6657 35.0233 31.5715 33.403 33.2023C31.783 34.833 29.8765 36.1184 27.6837 37.0585C25.4912 37.9986 23.1436 38.4687 20.641 38.4687Z" fill="#EEEEEE"/>
</g>
</svg>
