<svg width="40" height="40" viewBox="0 0 40 40" fill="none" xmlns="http://www.w3.org/2000/svg">
<path d="M6.96347 30.4809L7.25911 30.8272L7.6315 30.5652C9.4639 29.2757 11.4208 28.3188 13.5034 27.6923C15.5908 27.0644 17.7558 26.75 20 26.75C22.2442 26.75 24.4092 27.0644 26.4966 27.6923C28.5792 28.3188 30.5361 29.2757 32.3685 30.5652L32.7409 30.8272L33.0365 30.4809C34.2921 29.0101 35.2269 27.375 35.838 25.5776C36.4463 23.7885 36.75 21.9285 36.75 20C36.75 15.3657 35.114 11.4042 31.8519 8.14425L31.8519 8.14423C28.5897 4.88461 24.6255 3.25 19.988 3.25C15.3505 3.25 11.39 4.88465 8.13572 8.14467L8.1357 8.14469C4.88171 11.4048 3.25 15.3661 3.25 20C3.25 21.9285 3.55373 23.7885 4.16203 25.5776C4.77312 27.375 5.70794 29.0101 6.96347 30.4809ZM30.1989 33.2623L30.7729 32.8249L30.1617 32.4411C28.6301 31.4794 27.008 30.7484 25.2962 30.2492C23.5832 29.7495 21.8173 29.5 20 29.5C18.1844 29.5 16.4119 29.7404 14.6836 30.2214C12.9485 30.7044 11.329 31.4471 9.82682 32.4486L9.24351 32.8374L9.80115 33.2623C11.3003 34.4045 12.9099 35.2725 14.6291 35.8635C16.3494 36.4548 18.1405 36.75 20 36.75C21.8595 36.75 23.6506 36.4548 25.3709 35.8635C27.0901 35.2725 28.6997 34.4045 30.1989 33.2623ZM20 23.25C18.0478 23.25 16.4046 22.5724 15.0411 21.2089C13.6776 19.8454 13 18.2022 13 16.25C13 14.2978 13.6776 12.6546 15.0411 11.2911C16.4046 9.92755 18.0478 9.25 20 9.25C21.9522 9.25 23.5954 9.92755 24.9589 11.2911C26.3224 12.6546 27 14.2978 27 16.25C27 18.2022 26.3224 19.8454 24.9589 21.2089C23.5954 22.5724 21.9522 23.25 20 23.25ZM20.0146 39.5C17.3267 39.5 14.8023 38.9918 12.4365 37.9779C10.0629 36.9607 7.9897 35.5638 6.21293 33.7871C4.43611 32.0103 3.03929 29.9377 2.02203 27.5655C1.00826 25.2013 0.5 22.6732 0.5 19.976C0.5 17.2789 1.00826 14.7592 2.02156 12.4117C3.03869 10.0553 4.43557 7.99029 6.21293 6.21293C7.98975 4.43611 10.0623 3.03929 12.4346 2.02203C14.7987 1.00826 17.3268 0.5 20.024 0.5C22.7211 0.5 25.2408 1.00826 27.5883 2.02156C29.9447 3.03869 32.0097 4.43557 33.7871 6.21293C35.5642 7.99003 36.961 10.0587 37.9782 12.4226C38.9918 14.7786 39.5 17.2979 39.5 19.9854C39.5 22.6733 38.9918 25.1977 37.9779 27.5635C36.9607 29.9371 35.5638 32.0103 33.7871 33.7871C32.01 35.5642 29.9413 36.961 27.5774 37.9782C25.2214 38.9918 22.7021 39.5 20.0146 39.5ZM20 20.5C21.1728 20.5 22.1858 20.0838 23.0098 19.2598C23.8338 18.4358 24.25 17.4228 24.25 16.25C24.25 15.0772 23.8338 14.0642 23.0098 13.2402C22.1858 12.4162 21.1728 12 20 12C18.8272 12 17.8142 12.4162 16.9902 13.2402C16.1662 14.0642 15.75 15.0772 15.75 16.25C15.75 17.4228 16.1662 18.4358 16.9902 19.2598C17.8142 20.0838 18.8272 20.5 20 20.5Z" fill="#CABBE6" stroke="white"/>
</svg>
