<svg width="40" height="40" viewBox="0 0 40 40" fill="none" xmlns="http://www.w3.org/2000/svg">
<path d="M7.34375 30.1562C9.21875 28.8368 11.224 27.8559 13.3594 27.2135C15.4948 26.5712 17.7083 26.25 20 26.25C22.2917 26.25 24.5052 26.5712 26.6406 27.2135C28.776 27.8559 30.7812 28.8368 32.6562 30.1562C33.8715 28.7326 34.7743 27.1528 35.3646 25.4167C35.9549 23.6806 36.25 21.875 36.25 20C36.25 15.4976 34.6661 11.6635 31.4984 8.49792C28.3307 5.33264 24.4939 3.75 19.988 3.75C15.4821 3.75 11.6493 5.33264 8.48958 8.49792C5.32986 11.6635 3.75 15.4976 3.75 20C3.75 21.875 4.04514 23.6806 4.63542 25.4167C5.22569 27.1528 6.12847 28.7326 7.34375 30.1562ZM20 23.75C17.9167 23.75 16.1458 23.0208 14.6875 21.5625C13.2292 20.1042 12.5 18.3333 12.5 16.25C12.5 14.1667 13.2292 12.3958 14.6875 10.9375C16.1458 9.47917 17.9167 8.75 20 8.75C22.0833 8.75 23.8542 9.47917 25.3125 10.9375C26.7708 12.3958 27.5 14.1667 27.5 16.25C27.5 18.3333 26.7708 20.1042 25.3125 21.5625C23.8542 23.0208 22.0833 23.75 20 23.75ZM20.0146 40C17.2618 40 14.6701 39.4792 12.2396 38.4375C9.80903 37.3958 7.68229 35.9635 5.85938 34.1406C4.03646 32.3177 2.60417 30.1917 1.5625 27.7625C0.520833 25.3333 0 22.7378 0 19.976C0 17.2142 0.520833 14.6267 1.5625 12.2135C2.60417 9.80035 4.03646 7.68229 5.85938 5.85938C7.68229 4.03646 9.80833 2.60417 12.2375 1.5625C14.6667 0.520833 17.2622 0 20.024 0C22.7858 0 25.3733 0.520833 27.7865 1.5625C30.1997 2.60417 32.3177 4.03646 34.1406 5.85938C35.9635 7.68229 37.3958 9.80416 38.4375 12.225C39.4792 14.6462 40 17.233 40 19.9854C40 22.7382 39.4792 25.3299 38.4375 27.7604C37.3958 30.191 35.9635 32.3177 34.1406 34.1406C32.3177 35.9635 30.1958 37.3958 27.775 38.4375C25.3538 39.4792 22.767 40 20.0146 40ZM20 36.25C21.8056 36.25 23.5417 35.9635 25.2083 35.3906C26.875 34.8177 28.4375 33.9757 29.8958 32.8646C28.4028 31.9271 26.8229 31.2153 25.1562 30.7292C23.4896 30.2431 21.7708 30 20 30C18.2292 30 16.5017 30.2344 14.8177 30.7031C13.1337 31.1719 11.5625 31.8924 10.1042 32.8646C11.5625 33.9757 13.125 34.8177 14.7917 35.3906C16.4583 35.9635 18.1944 36.25 20 36.25ZM20 20C21.0417 20 21.9271 19.6354 22.6562 18.9062C23.3854 18.1771 23.75 17.2917 23.75 16.25C23.75 15.2083 23.3854 14.3229 22.6562 13.5938C21.9271 12.8646 21.0417 12.5 20 12.5C18.9583 12.5 18.0729 12.8646 17.3438 13.5938C16.6146 14.3229 16.25 15.2083 16.25 16.25C16.25 17.2917 16.6146 18.1771 17.3438 18.9062C18.0729 19.6354 18.9583 20 20 20Z" fill="#2D125F"/>
</svg>
