<svg width="40" height="40" viewBox="0 0 40 40" fill="none" xmlns="http://www.w3.org/2000/svg">
<mask id="mask0_844_2996" style="mask-type:alpha" maskUnits="userSpaceOnUse" x="0" y="0" width="40" height="40">
<rect width="40" height="40" fill="#D9D9D9"/>
</mask>
<g mask="url(#mask0_844_2996)">
<path d="M9.79044 29.2441C11.3724 28.1285 12.9909 27.2588 14.6459 26.6349C16.3009 26.011 18.0856 25.6991 20 25.6991C21.9145 25.6991 23.702 26.011 25.3625 26.6349C27.0234 27.2588 28.6447 28.1285 30.2267 29.2441C31.3797 27.9285 32.2535 26.5009 32.8479 24.9612C33.4421 23.4212 33.7392 21.7675 33.7392 20.0003C33.7392 16.1478 32.4125 12.8948 29.7592 10.2412C27.1056 7.58783 23.8525 6.26116 20 6.26116C16.1475 6.26116 12.8945 7.58783 10.2409 10.2412C7.58752 12.8948 6.26085 16.1478 6.26085 20.0003C6.26085 21.7675 6.56085 23.4212 7.16085 24.9612C7.76085 26.5009 8.63738 27.9285 9.79044 29.2441ZM19.9942 21.0474C18.4881 21.0474 17.22 20.5305 16.19 19.4966C15.1603 18.4627 14.6454 17.1927 14.6454 15.6866C14.6454 14.1807 15.1624 12.9128 16.1963 11.8828C17.2299 10.8528 18.4997 10.3378 20.0059 10.3378C21.512 10.3378 22.78 10.8548 23.81 11.8887C24.8397 12.9225 25.3546 14.1925 25.3546 15.6987C25.3546 17.2045 24.8377 18.4724 23.8038 19.5024C22.7702 20.5324 21.5003 21.0474 19.9942 21.0474ZM20.0129 35.8337C17.8171 35.8337 15.757 35.4202 13.8325 34.5932C11.9084 33.7663 10.2299 32.6356 8.7971 31.2012C7.36405 29.7667 6.23405 28.0903 5.4071 26.172C4.58016 24.2537 4.16669 22.1957 4.16669 19.9982C4.16669 17.801 4.58016 15.7438 5.4071 13.8266C6.23405 11.9096 7.36474 10.2339 8.79919 8.79949C10.2336 7.36505 11.91 6.23435 13.8284 5.40741C15.7467 4.58047 17.8046 4.16699 20.0021 4.16699C22.1993 4.16699 24.2565 4.58047 26.1738 5.40741C28.0907 6.23435 29.7664 7.36505 31.2009 8.79949C32.6353 10.2339 33.766 11.91 34.5929 13.8278C35.4199 15.7453 35.8334 17.7985 35.8334 19.9874C35.8334 22.1832 35.4199 24.2434 34.5929 26.1678C33.766 28.092 32.6353 29.7705 31.2009 31.2032C29.7664 32.6363 28.0903 33.7663 26.1725 34.5932C24.255 35.4202 22.2018 35.8337 20.0129 35.8337ZM20 33.7395C21.5342 33.7395 23.0361 33.4948 24.5059 33.0053C25.9756 32.5156 27.3347 31.7589 28.5834 30.7353C27.3347 29.8037 25.987 29.0803 24.54 28.5653C23.0931 28.0503 21.5797 27.7928 20 27.7928C18.4203 27.7928 16.9043 28.0477 15.4521 28.5574C13.9996 29.0671 12.6581 29.7931 11.4275 30.7353C12.6689 31.7589 14.0245 32.5156 15.4942 33.0053C16.9639 33.4948 18.4659 33.7395 20 33.7395ZM20.0017 18.9532C20.9422 18.9532 21.7206 18.6448 22.3367 18.0278C22.9528 17.4106 23.2609 16.6317 23.2609 15.6912C23.2609 14.7506 22.9522 13.9723 22.335 13.3562C21.7181 12.74 20.9392 12.432 19.9984 12.432C19.0578 12.432 18.2795 12.7405 17.6634 13.3574C17.0472 13.9746 16.7392 14.7535 16.7392 15.6941C16.7392 16.6346 17.0478 17.413 17.665 18.0291C18.282 18.6452 19.0609 18.9532 20.0017 18.9532Z" fill="#5E3AA1"/>
</g>
</svg>
