<svg width="40" height="40" viewBox="0 0 40 40" fill="none" xmlns="http://www.w3.org/2000/svg">
<circle cx="20" cy="20" r="19.5" stroke="#2D125F"/>
<path d="M32.1282 34.3459V31.2049C32.1282 29.5388 31.4663 27.9409 30.2882 26.7628C29.1101 25.5847 27.5123 24.9229 25.8462 24.9229H13.2821C11.6159 24.9229 10.0181 25.5847 8.83997 26.7628C7.66186 27.9409 7 29.5388 7 31.2049V34.3459" stroke="#2D125F" stroke-linecap="round" stroke-linejoin="round"/>
<path d="M19.4238 22C23.566 22 26.9238 18.6421 26.9238 14.5C26.9238 10.3579 23.566 7 19.4238 7C15.2817 7 11.9238 10.3579 11.9238 14.5C11.9238 18.6421 15.2817 22 19.4238 22Z" stroke="#2D125F" stroke-linecap="round" stroke-linejoin="round"/>
</svg>
