<svg width="21" height="21" viewBox="0 0 21 21" fill="none" xmlns="http://www.w3.org/2000/svg">
<mask id="mask0_794_6143" style="mask-type:alpha" maskUnits="userSpaceOnUse" x="0" y="0" width="21" height="21">
<rect x="0.15625" y="0.584961" width="20" height="20" fill="#D9D9D9"/>
</mask>
<g mask="url(#mask0_794_6143)">
<path d="M10.1582 13.7328C11.033 13.7328 11.776 13.4266 12.3871 12.8142C12.9982 12.2019 13.3038 11.4583 13.3038 10.5834C13.3038 9.70855 12.9976 8.96556 12.3853 8.35445C11.7729 7.74334 11.0293 7.43779 10.1544 7.43779C9.27956 7.43779 8.53657 7.74397 7.92546 8.35633C7.31435 8.96869 7.00879 9.7123 7.00879 10.5872C7.00879 11.462 7.31497 12.205 7.92734 12.8161C8.5397 13.4272 9.28331 13.7328 10.1582 13.7328ZM10.1563 12.5853C9.60074 12.5853 9.12852 12.3908 8.73963 12.002C8.35074 11.6131 8.15629 11.1408 8.15629 10.5853C8.15629 10.0297 8.35074 9.55751 8.73963 9.16862C9.12852 8.77973 9.60074 8.58529 10.1563 8.58529C10.7118 8.58529 11.1841 8.77973 11.573 9.16862C11.9619 9.55751 12.1563 10.0297 12.1563 10.5853C12.1563 11.1408 11.9619 11.6131 11.573 12.002C11.1841 12.3908 10.7118 12.5853 10.1563 12.5853ZM10.1563 16.1686C8.45754 16.1686 6.89129 15.718 5.45754 14.8167C4.02379 13.9156 2.87317 12.7295 2.00567 11.2584C1.93622 11.1526 1.88893 11.044 1.86379 10.9326C1.83879 10.8212 1.82629 10.7069 1.82629 10.5897C1.82629 10.4724 1.83879 10.3567 1.86379 10.2424C1.88893 10.1281 1.93622 10.018 2.00567 9.91216C2.87317 8.44105 4.02379 7.25494 5.45754 6.35383C6.89129 5.45258 8.45754 5.00195 10.1563 5.00195C11.855 5.00195 13.4213 5.45258 14.855 6.35383C16.2888 7.25494 17.4394 8.44105 18.3069 9.91216C18.3764 10.018 18.4237 10.1266 18.4488 10.238C18.4738 10.3494 18.4863 10.4637 18.4863 10.5809C18.4863 10.6981 18.4738 10.8139 18.4488 10.9282C18.4237 11.0425 18.3764 11.1526 18.3069 11.2584C17.4394 12.7295 16.2888 13.9156 14.855 14.8167C13.4213 15.718 11.855 16.1686 10.1563 16.1686ZM10.1563 15.0853C11.7118 15.0853 13.1493 14.6825 14.4688 13.877C15.7882 13.0714 16.8021 11.9742 17.5105 10.5853C16.8021 9.1964 15.7882 8.09918 14.4688 7.29362C13.1493 6.48806 11.7118 6.08529 10.1563 6.08529C8.60074 6.08529 7.16324 6.48806 5.84379 7.29362C4.52435 8.09918 3.51046 9.1964 2.80213 10.5853C3.51046 11.9742 4.52435 13.0714 5.84379 13.877C7.16324 14.6825 8.60074 15.0853 10.1563 15.0853Z" fill="#505050"/>
</g>
</svg>
